<?xml version="1.0" encoding="utf-8"?>
<!-- Generator: Adobe Illustrator 19.0.0, SVG Export Plug-In . SVG Version: 6.00 Build 0)  -->
<svg version="1.1" id="Layer_1" xmlns="http://www.w3.org/2000/svg" xmlns:xlink="http://www.w3.org/1999/xlink" x="0px" y="0px"
	 viewBox="0 0 550 180" style="enable-background:new 0 0 550 180;" xml:space="preserve">
<style type="text/css">
	.st0{fill:#62276F;}
	.st1{fill-rule:evenodd;clip-rule:evenodd;fill:#FFFFFF;}
	.st2{fill:none;stroke:#62276F;stroke-width:3;stroke-miterlimit:22.9256;}
	.st3{fill-rule:evenodd;clip-rule:evenodd;fill:#62276F;}
	.st4{fill-rule:evenodd;clip-rule:evenodd;fill:#F9F9FA;}
	.st5{fill:#FFFFFF;}
</style>
<rect id="XMLID_1_" class="st0" width="550" height="180"/>
<rect id="XMLID_10_" x="254.8" y="17.8" class="st1" width="55.2" height="55.2"/>
<ellipse id="XMLID_9_" class="st2" cx="282.4" cy="45.3" rx="24.7" ry="23.5"/>
<path id="XMLID_8_" class="st3" d="M304.4,35.6c0,0,0.5,6.8-7.1,14.1c0,0-4.5,5.3-13.5,4.7c0,0-0.9-0.2,0.3-1.3c0,0,2.6-4-2.4-7.4
	c0,0-5-2.3-9.7,2.6l-2.6,4.1c0,0-0.8,2.2-2.1,2.2c0,0,1.2,1.2,1.9,2.5l1.1,2.7c0,0,1.3,4.6,6,5.6c0,0,6.5,2.2,7.9-2.6
	c0,0,1.5-2.3-0.5-4.9c0,0,0.1-0.8,0.6-0.7c0,0,2.3-0.1,3.1-0.1c0,0-0.7,5.4,2.8,6.4c0,0,4.6,0.8,4.6-2.4c0,0,0.5-2.9-2.4-2
	c0,0-0.2,0.4-0.7,1c0,0-1.3,1.5-2.1-0.9c0,0-1-2.2,1-2.8c0,0,10.4-4.3,15.7-14.9l-0.3-2.9l-0.6-1.5L304.4,35.6z"/>
<path id="XMLID_7_" class="st3" d="M260.4,56.1c0,0-0.5-6.8,7.1-14.1c0,0,4.5-5.3,13.5-4.7c0,0,0.9,0.2-0.3,1.3c0,0-2.6,4,2.4,7.4
	c0,0,5,2.3,9.7-2.6l2.6-4.1c0,0,0.8-2.2,2.1-2.2c0,0-1.2-1.2-1.9-2.5l-1.1-2.7c0,0-1.3-4.6-6-5.6c0,0-6.5-2.2-7.9,2.6
	c0,0-1.5,2.3,0.5,4.9c0,0-0.1,0.8-0.6,0.7c0,0-2.3,0.1-3.1,0.1c0,0,0.7-5.4-2.8-6.4c0,0-4.6-0.8-4.6,2.4c0,0-0.5,2.9,2.4,2
	c0,0,0.2-0.4,0.7-1c0,0,1.3-1.5,2.1,0.9c0,0,1,2.2-1,2.8c0,0-10.4,4.3-15.7,14.9l0.3,2.9l0.6,1.5L260.4,56.1z"/>
<path id="XMLID_6_" class="st4" d="M296.7,77l2.2,3.5l3.8,0.1c0,0,2.8-0.1,2.8,2.9c0,0,0.1,2.4-2.1,2.4l-7.7,0.1v3.6h8.8
	c0,0,5-0.9,5-6.2c0,0,0.3-6.2-4.8-6.3l-3.5-0.1H296.7z"/>
<path id="XMLID_5_" class="st1" d="M292.5,77.1h-4.1l0,7c0.3,2.9-6,2.9-6.2,0.4l0-6c0.2-0.1-2.3,2.1-4.6,0l-0.1,5.4
	c-0.2,3.1-6.3,3.3-6.3-0.5v-6.4h-11.2c0,0-5.4,0.3-5.4,6.3c0,0-0.1,5.3,5.2,6.1l7.6,0l-2.2-3.4h-4.1c0,0-2.4-0.5-2.4-2.6
	c0,0-0.4-2.9,2.6-2.9h5.4v4c0,0,0.8,4.9,7.1,5.2c0,0,4.7,0.3,6.2-2c0,0,1,2.1,6.1,1.9c3.3,0,6.3-2,6.3-5.5l0.1-2.3V77.1z"/>
<path id="XMLID_4_" class="st1" d="M279.9,73.7c1.6,0,2.9,1.2,2.9,2.6c0,1.4-1.3,2.6-2.9,2.6c-1.6,0-2.9-1.2-2.9-2.6
	C277.1,74.9,278.4,73.7,279.9,73.7"/>
<path id="XMLID_3_" class="st1" d="M282.8,90.3c1.6,0,2.9,1.2,2.9,2.6c0,1.4-1.3,2.6-2.9,2.6c-1.6,0-2.9-1.2-2.9-2.6
	C279.9,91.4,281.2,90.3,282.8,90.3"/>
<path id="XMLID_2_" class="st1" d="M276.9,90.3c1.6,0,2.9,1.2,2.9,2.6c0,1.4-1.3,2.6-2.9,2.6c-1.6,0-2.9-1.2-2.9-2.6
	C274,91.4,275.3,90.3,276.9,90.3"/>
<g id="XMLID_211_">
	<path id="XMLID_212_" class="st5" d="M128.9,132.4c-0.2,0-0.5,0-0.8-0.1s-0.6-0.1-1-0.2c-0.3-0.1-0.6-0.2-0.9-0.3
		c-0.3-0.1-0.5-0.2-0.6-0.3l0.6-1.4c0.2,0.1,0.4,0.2,0.7,0.3c0.3,0.1,0.5,0.2,0.8,0.3c0.3,0.1,0.6,0.1,0.9,0.2c0.3,0,0.6,0,0.9,0
		s0.5-0.1,0.8-0.2s0.4-0.2,0.6-0.4c0.1-0.2,0.1-0.4,0.1-0.8c-0.1-0.2-0.1-0.5-0.3-0.8c-0.1-0.3-0.3-0.5-0.4-0.8
		c-0.2-0.3-0.4-0.5-0.6-0.8s-0.4-0.5-0.6-0.7c-0.2-0.2-0.4-0.4-0.7-0.6c-0.2-0.2-0.5-0.3-0.7-0.4l0.6-1.3c0.3,0.1,0.6,0.3,0.9,0.5
		s0.6,0.4,0.9,0.7s0.5,0.5,0.8,0.9c0.3,0.3,0.5,0.6,0.7,0.9c0.2,0.3,0.4,0.7,0.5,1s0.3,0.6,0.3,1c0.1,0.3,0.1,0.5,0.1,0.7
		s0,0.4-0.1,0.6s-0.1,0.3-0.2,0.4s-0.1,0.2-0.2,0.3c-0.4,0.5-1.1,0.9-1.9,1.1c-0.2,0-0.4,0.1-0.6,0.1
		C129.3,132.4,129.1,132.4,128.9,132.4z"/>
	<path id="XMLID_214_" class="st5" d="M134.1,137.5l-0.3-1.4c0.8-0.2,1.4-0.4,2-0.6s1.1-0.6,1.5-0.9c0.4-0.3,0.8-0.7,1-1.1
		c0.2-0.4,0.4-0.8,0.5-1.1c-0.2,0-0.4,0-0.7,0c-0.3,0-0.6,0-0.8,0c-1.1-0.1-1.8-0.4-2.4-1c-0.2-0.3-0.4-0.6-0.4-1
		c-0.1-0.4-0.1-0.8,0-1.1c0.1-0.4,0.2-0.8,0.3-1.1c0.2-0.4,0.3-0.7,0.5-0.9c0.2-0.3,0.5-0.5,0.8-0.7c0.3-0.2,0.6-0.2,0.9-0.2
		c0.7,0,1.3,0.3,1.9,0.9c0.2,0.2,0.4,0.5,0.6,0.8c0.2,0.3,0.3,0.6,0.4,0.9c0.1,0.3,0.2,0.7,0.3,1c0.1,0.4,0.1,0.7,0.1,1.1h0.5
		c0.1,0,0.2,0,0.3,0.1c0.1,0,0.2,0.1,0.2,0.2c0.1,0.1,0.1,0.1,0.2,0.2s0.1,0.2,0.1,0.3c0,0.1,0,0.2-0.1,0.3c0,0.1-0.1,0.2-0.2,0.2
		c-0.1,0.1-0.1,0.1-0.2,0.2c-0.1,0-0.2,0.1-0.3,0.1h-0.7c-0.1,0.7-0.4,1.4-0.8,2c-0.4,0.6-0.8,1.1-1.4,1.5c-0.5,0.4-1.2,0.8-1.8,1.1
		S134.8,137.4,134.1,137.5z M136.9,127.6c-0.1,0-0.3,0.1-0.4,0.2c-0.1,0.1-0.2,0.3-0.3,0.4s-0.2,0.4-0.3,0.6
		c-0.1,0.2-0.1,0.4-0.1,0.6c0,0.2,0,0.4,0,0.6c0,0.2,0.1,0.3,0.2,0.4c0.1,0.1,0.2,0.2,0.3,0.2c0.1,0.1,0.2,0.1,0.4,0.1
		c0.1,0,0.2,0.1,0.4,0.1c0.1,0,0.2,0,0.3,0c0.3,0,0.6,0,0.8,0c0.3,0,0.5,0,0.7,0c0-0.3-0.1-0.6-0.1-0.9c-0.1-0.3-0.1-0.5-0.2-0.8
		c-0.1-0.2-0.2-0.5-0.3-0.6c-0.1-0.2-0.2-0.4-0.4-0.5c0,0-0.1-0.1-0.2-0.2c-0.1-0.1-0.1-0.1-0.2-0.2c-0.1,0-0.1-0.1-0.2-0.1
		C137.1,127.7,137,127.6,136.9,127.6z"/>
	<path id="XMLID_217_" class="st5" d="M140.1,131.7c0-0.1,0-0.2,0.1-0.3c0-0.1,0.1-0.2,0.1-0.2c0.1-0.1,0.1-0.1,0.2-0.2
		s0.2-0.1,0.3-0.1c0.3,0,0.5-0.1,0.8-0.2c0.2-0.1,0.4-0.3,0.6-0.5c0.2-0.2,0.3-0.4,0.5-0.6c0.1-0.2,0.2-0.5,0.3-0.8
		c0.1-0.3,0.2-0.5,0.3-0.8c0.1-0.3,0.1-0.5,0.2-0.8l1.5,0.3c0,0.1-0.1,0.3-0.1,0.5c-0.1,0.2-0.1,0.4-0.2,0.6
		c-0.1,0.2-0.1,0.4-0.1,0.7c0,0.2-0.1,0.4-0.1,0.6c0,0.1,0,0.3,0,0.4c0,0.1,0.1,0.2,0.1,0.3s0.1,0.2,0.2,0.2s0.2,0.1,0.4,0.1
		c0.2,0,0.5-0.1,0.7-0.2c0.2-0.1,0.4-0.3,0.5-0.5c0.2-0.2,0.3-0.5,0.4-0.7s0.2-0.6,0.3-0.8c0.1-0.3,0.1-0.6,0.2-0.8
		c0.1-0.3,0.1-0.5,0.1-0.7l1.4,0.3c-0.1,0.3-0.1,0.6-0.1,0.8c0,0.2-0.1,0.5-0.1,0.7c0,0.3,0,0.5,0,0.7c0,0.2,0,0.4,0,0.5
		c0,0.2,0.1,0.3,0.1,0.4c0.1,0.1,0.1,0.2,0.2,0.3c0.1,0.1,0.2,0.1,0.4,0.1c0.2,0,0.4,0,0.6,0c0.1,0,0.3-0.1,0.4-0.1
		c0.1-0.1,0.2-0.1,0.2-0.2s0.1-0.1,0.1-0.1h0c0.1-0.1,0.1-0.2,0.1-0.4s0-0.3,0-0.4c0-0.3,0-0.6-0.1-0.9s-0.2-0.6-0.3-0.9
		c-0.1-0.3-0.2-0.6-0.3-0.9c-0.1-0.3-0.2-0.5-0.3-0.6l1.3-0.7c0,0,0.1,0.1,0.1,0.3c0.1,0.1,0.1,0.3,0.2,0.5c0.1,0.2,0.2,0.4,0.3,0.7
		c0.1,0.3,0.2,0.5,0.3,0.8c0.1,0.3,0.1,0.6,0.2,0.9c0.1,0.3,0.1,0.6,0.1,0.9c0,0.4-0.1,0.8-0.2,1.1c-0.1,0.3-0.3,0.6-0.5,0.9
		c-0.2,0.2-0.5,0.4-0.9,0.6c-0.4,0.1-0.8,0.2-1.2,0.2c-0.2,0-0.4,0-0.6-0.1s-0.4-0.1-0.5-0.2c-0.2-0.1-0.3-0.2-0.5-0.4
		c-0.1-0.1-0.3-0.3-0.4-0.4c-0.3,0.3-0.6,0.6-1,0.8c-0.4,0.2-0.8,0.3-1.2,0.3c-0.2,0-0.4,0-0.6-0.1c-0.2,0-0.4-0.1-0.6-0.2
		s-0.3-0.2-0.5-0.3c-0.1-0.1-0.3-0.3-0.3-0.5c-0.3,0.3-0.6,0.6-1,0.7s-0.8,0.3-1.3,0.3h-0.1c-0.1,0-0.2,0-0.3-0.1s-0.2-0.1-0.2-0.2
		c-0.1-0.1-0.1-0.1-0.1-0.2C140.1,131.9,140.1,131.8,140.1,131.7z M144.9,123.9l1.2-1.2l1.2,1.2l-1.2,1.2L144.9,123.9z M146.6,121.8
		l1.1-1.1l1.1,1.1l-1.1,1.1L146.6,121.8z M147.9,123.9l1.2-1.2l1.2,1.2l-1.2,1.2L147.9,123.9z"/>
	<path id="XMLID_222_" class="st5" d="M164.3,137.2c-0.4,0-0.9,0-1.3-0.1c-0.5,0-0.9-0.1-1.3-0.3c-0.4-0.1-0.8-0.3-1.2-0.5
		c-0.4-0.2-0.6-0.5-0.9-0.9c-0.5-0.8-0.8-1.8-0.7-3c0-0.7,0.2-1.4,0.4-2.2s0.5-1.7,0.9-2.6l1.3,0.5c-0.6,1.5-1,2.8-1.1,3.9
		c-0.1,1.1,0,1.9,0.4,2.5c0.2,0.3,0.4,0.5,0.7,0.7c0.3,0.2,0.6,0.3,0.9,0.3c0.3,0.1,0.6,0.1,1,0.1c0.3,0,0.6,0,0.8,0
		c0.1,0,0.3,0,0.6,0c0.3,0,0.5-0.1,0.8-0.1s0.6-0.1,0.9-0.2c0.3-0.1,0.6-0.2,0.9-0.3c0.3-0.1,0.5-0.3,0.6-0.5
		c0.2-0.2,0.2-0.4,0.2-0.6c0-0.1,0-0.1-0.1-0.2c-0.1-0.1-0.1-0.2-0.3-0.3c-0.1-0.1-0.3-0.2-0.5-0.3s-0.4-0.2-0.7-0.3
		c-0.2-0.1-0.3-0.1-0.5-0.2c-0.2-0.1-0.3-0.1-0.5-0.1c-0.1,0-0.3-0.1-0.4-0.1s-0.2-0.1-0.3-0.1l-0.2,0l0.1-1.4l5.6,0
		c0.2,0,0.4,0.1,0.5,0.2s0.2,0.3,0.2,0.5s-0.1,0.4-0.2,0.5s-0.3,0.2-0.5,0.2H169c0.2,0.1,0.3,0.3,0.4,0.4c0.1,0.1,0.2,0.3,0.2,0.4
		s0.1,0.3,0.1,0.4s0,0.2,0,0.3c0,0.4-0.1,0.8-0.3,1.1s-0.4,0.6-0.7,0.8s-0.6,0.4-1,0.6c-0.4,0.2-0.8,0.3-1.2,0.4
		c-0.4,0.1-0.8,0.2-1.2,0.2C165,137.2,164.6,137.2,164.3,137.2z"/>
	<path id="XMLID_224_" class="st5" d="M169.9,131.7c0-0.2,0.1-0.4,0.2-0.5c0.1-0.1,0.3-0.2,0.5-0.2h0c0.4,0,0.8-0.1,1-0.2
		c0.3-0.1,0.5-0.3,0.7-0.5c0.2-0.2,0.4-0.5,0.5-0.8c0.2-0.3,0.3-0.6,0.5-0.9c0.1-0.3,0.3-0.5,0.4-0.8s0.3-0.5,0.4-0.7
		c0.4-0.5,1-0.8,1.6-0.8c0.7,0,1.4,0.3,1.8,0.9c0.4,0.5,0.6,1.1,0.7,1.8c0,0.3,0.1,0.7,0,1s-0.1,0.6-0.2,0.9
		c-0.1,0.4-0.3,0.6-0.6,0.9c-0.2,0.2-0.5,0.4-0.8,0.5c-0.5,0.1-1.2,0.1-1.9-0.2c-0.5-0.2-1-0.5-1.5-0.8c0,0-0.1,0.1-0.1,0.1
		c-0.7,0.8-1.7,1.1-2.8,1.1h0c-0.2,0-0.4-0.1-0.5-0.2C169.9,132.1,169.9,131.9,169.9,131.7z M174.3,130c0.4,0.3,0.8,0.6,1.2,0.7
		s0.7,0.2,0.9,0.1c0.1,0,0.2-0.1,0.2-0.2s0.1-0.2,0.2-0.4s0.1-0.3,0.1-0.5c0-0.2,0-0.4,0-0.6c0,0,0-0.1,0-0.2c0-0.1,0-0.2-0.1-0.3
		c0-0.1-0.1-0.2-0.1-0.3c-0.1-0.1-0.1-0.2-0.2-0.3c-0.1-0.1-0.2-0.2-0.3-0.2c-0.1-0.1-0.2-0.1-0.4-0.1c-0.1,0-0.2,0-0.3,0.1
		c-0.1,0.1-0.2,0.1-0.3,0.3s-0.2,0.3-0.3,0.4c-0.1,0.2-0.2,0.4-0.3,0.6L174.3,130z"/>
	<path id="XMLID_227_" class="st5" d="M188.2,127.6c0.1,0.5,0.3,0.9,0.4,1.3c0,0.2,0.1,0.4,0.2,0.6s0.1,0.4,0.2,0.6
		c0,0.2,0.1,0.4,0.1,0.6c0,0.2,0.1,0.4,0.1,0.5c0,0.1,0,0.1,0,0.2c0,0.1,0,0.1,0,0.2c0,0.4-0.1,0.8-0.2,1.2
		c-0.1,0.4-0.3,0.8-0.5,1.2c-0.2,0.4-0.5,0.7-0.8,1.1c-0.3,0.3-0.6,0.7-1,0.9c-0.4,0.3-0.7,0.6-1.1,0.8s-0.8,0.5-1.2,0.7l-0.6-1.3
		c0.5-0.3,1-0.5,1.5-0.9c0.5-0.3,0.9-0.7,1.3-1.1s0.7-0.8,0.9-1.3s0.3-0.9,0.3-1.4c0,0,0-0.1,0-0.1c0-0.1,0-0.1,0-0.2v0
		c0-0.2,0-0.3-0.1-0.5c0-0.2-0.1-0.4-0.1-0.5c0-0.2-0.1-0.4-0.1-0.6c0-0.2-0.1-0.4-0.1-0.5c-0.1-0.4-0.2-0.8-0.4-1.2L188.2,127.6z
		 M188.7,124.7l-1.2,1.2l-1.2-1.2l1.2-1.2L188.7,124.7z"/>
	<path id="XMLID_230_" class="st5" d="M194.4,132.4c-0.5,0-1-0.1-1.4-0.2s-0.7-0.3-1-0.6c-0.2-0.2-0.3-0.3-0.4-0.5
		c-0.1-0.2-0.1-0.4-0.2-0.5c0-0.2-0.1-0.4-0.1-0.5c0-0.2,0-0.3,0-0.4v-0.1c0,0,0-0.1,0-0.3c0-0.2,0-0.4,0-0.7c0-0.3,0-0.6,0-1
		s0-0.8,0-1.2c0-0.4,0-0.9,0-1.3c0-0.5,0-0.9,0-1.3c0-0.4,0-0.8-0.1-1.2c0-0.4-0.1-0.7-0.1-0.9l1.4-0.3c0,0.2,0.1,0.6,0.1,0.9
		c0,0.4,0.1,0.8,0.1,1.2c0,0.4,0,0.9,0,1.3c0,0.5,0,0.9,0,1.4c0,0.4,0,0.8,0,1.2c0,0.4,0,0.7,0,1.1c0,0.3,0,0.6,0,0.8
		c0,0.2,0,0.3,0,0.4v0.1c0,0.2,0,0.4,0,0.6c0,0.2,0.1,0.3,0.2,0.4c0.2,0.2,0.6,0.3,1.2,0.4h0.1c0.1,0,0.2,0,0.3,0.1
		c0.1,0,0.2,0.1,0.2,0.2c0.1,0.1,0.1,0.1,0.2,0.2s0.1,0.2,0.1,0.3c0,0.2-0.1,0.4-0.2,0.5S194.6,132.4,194.4,132.4z"/>
	<path id="XMLID_232_" class="st5" d="M200.8,128c-0.2-0.2-0.4-0.3-0.6-0.5c-0.2-0.1-0.4-0.2-0.7-0.3s-0.6-0.2-0.9-0.2
		c-0.3,0-0.5,0-0.7,0.1c-0.2,0.1-0.4,0.2-0.5,0.4c-0.1,0.2-0.3,0.3-0.3,0.6c-0.1,0.2-0.1,0.4-0.1,0.6c0,0.3,0.1,0.6,0.2,0.8
		c0.1,0.3,0.3,0.5,0.5,0.6c0.2,0.2,0.5,0.3,0.8,0.4s0.6,0.1,0.9,0.1c0.3,0,0.6,0,0.8-0.1c0.3,0,0.5-0.1,0.7-0.1
		c0.2,0,0.5-0.1,0.7-0.1l0.2,1.4c-0.3,0.1-0.6,0.1-0.9,0.2c-0.3,0.1-0.8,0.1-1.2,0.2s-1,0.1-1.6,0.1s-1.3,0.1-2.1,0.1l-1.6,0
		c-0.2,0-0.4-0.1-0.5-0.2s-0.2-0.3-0.2-0.5s0.1-0.4,0.2-0.5s0.3-0.2,0.5-0.2l2.1,0c-0.4-0.3-0.6-0.7-0.8-1c-0.1-0.4-0.2-0.8-0.2-1.2
		c0-0.4,0.1-0.8,0.2-1.2c0.2-0.4,0.4-0.7,0.7-1s0.6-0.5,1-0.7c0.4-0.2,0.8-0.3,1.3-0.3c0.2,0,0.4,0,0.7,0.1c0.2,0,0.4,0.1,0.6,0.2
		s0.4,0.1,0.5,0.2s0.3,0.2,0.4,0.2c0.3,0.2,0.6,0.4,0.8,0.7L200.8,128z M199.3,122.7l-1.2,1.2l-1.2-1.2l1.2-1.2L199.3,122.7z"/>
	<path id="XMLID_235_" class="st5" d="M202.4,120.3C202.4,120.3,202.4,120.2,202.4,120.3c0.1-0.2,0.1-0.2,0.1-0.3
		c0-0.1,0.1-0.2,0.1-0.2c0-0.1,0.1-0.2,0.1-0.2c0.2-0.2,0.3-0.4,0.5-0.6c0.2-0.1,0.4-0.2,0.6-0.3c0,0,0.1,0,0.2,0c0.1,0,0.1,0,0.2,0
		c0.2,0,0.4,0,0.6,0.1s0.3,0.1,0.5,0.2c0.1,0.1,0.3,0.1,0.4,0.1s0.3,0.1,0.4,0.1c0.1,0,0.2,0,0.3-0.1s0.2-0.1,0.3-0.2
		c0.1-0.1,0.2-0.2,0.2-0.2c0.1-0.1,0.1-0.1,0.1-0.2l0.8,0.5c0,0,0,0-0.1,0.1s-0.1,0.1-0.2,0.2c-0.1,0.1-0.2,0.2-0.3,0.3
		c-0.1,0.1-0.2,0.2-0.4,0.3c-0.1,0.1-0.3,0.2-0.5,0.2s-0.3,0.1-0.5,0.1c-0.2,0-0.4,0-0.5-0.1c-0.2,0-0.3-0.1-0.5-0.2l-0.1,0
		c-0.2-0.1-0.3-0.1-0.4-0.1s-0.3,0-0.4,0c-0.1,0-0.2,0.1-0.2,0.1c-0.1,0.1-0.1,0.2-0.2,0.3c-0.1,0.1-0.1,0.2-0.2,0.3
		c0,0.1-0.1,0.2-0.1,0.2L202.4,120.3z M205.8,132.5l-1.4-0.1c0.1-1.1,0.1-2.2,0.1-3.1c0-1,0-1.9,0-2.7c0-0.8-0.1-1.5-0.1-2.1
		c0-0.5-0.1-1-0.1-1.5s-0.1-0.8-0.1-1.1c0-0.3,0-0.4,0-0.4l1.4-0.2c0,0,0,0.3,0.1,0.9c0.1,0.6,0.1,1.1,0.2,1.7
		c0,0.6,0.1,1.2,0.1,1.8c0,0.6,0,1.3,0,2c0,0.7,0,1.5,0,2.3C205.9,130.7,205.9,131.6,205.8,132.5z"/>
	<path id="XMLID_238_" class="st5" d="M222.3,126.3c0.3-0.1,0.7-0.1,1-0.1s0.6,0.1,0.8,0.1s0.4,0.1,0.6,0.2s0.2,0.1,0.2,0.1
		l-0.6,1.3c-0.2-0.1-0.4-0.1-0.5-0.2c-0.1,0-0.3-0.1-0.5-0.1c-0.2,0-0.4,0-0.6,0c-0.2,0-0.4,0.1-0.6,0.2s-0.4,0.2-0.6,0.4
		c-0.2,0.2-0.4,0.4-0.6,0.6c-0.2,0.2-0.3,0.4-0.4,0.7c-0.1,0.2-0.2,0.5-0.2,0.7s0,0.5,0.1,0.7c0.1,0.2,0.2,0.3,0.3,0.4
		c0.2,0.1,0.3,0.2,0.6,0.3s0.4,0.1,0.7,0.2s0.5,0.1,0.7,0.2c0.2,0.1,0.5,0.2,0.7,0.3c0.2,0.1,0.4,0.2,0.6,0.4
		c0.2,0.2,0.3,0.4,0.3,0.6c0.1,0.3,0.1,0.6,0,0.9c-0.1,0.5-0.3,0.9-0.6,1.3c-0.3,0.4-0.8,0.7-1.4,1c-0.5,0.3-1.1,0.5-1.8,0.6
		c-0.7,0.1-1.4,0.2-2.2,0.2c-0.9,0-1.7-0.1-2.4-0.4c-0.7-0.3-1.3-0.7-1.7-1.2c-0.4-0.5-0.7-1-0.8-1.6c-0.2-0.6-0.2-1.3-0.1-2
		c0-0.3,0.1-0.6,0.2-1c0.1-0.3,0.1-0.7,0.2-1c0.1-0.3,0.2-0.6,0.2-0.9c0.1-0.3,0.2-0.5,0.2-0.8s0.1-0.4,0.2-0.5s0.1-0.2,0.1-0.2
		l1.4,0.5c-0.2,0.7-0.4,1.4-0.6,2s-0.3,1.4-0.4,2.1c0,0.2,0,0.4,0,0.6c0,0.2,0,0.4,0.1,0.6c0,0.2,0.1,0.4,0.2,0.6
		c0.1,0.2,0.2,0.4,0.4,0.6c0.3,0.4,0.7,0.6,1.2,0.8c0.5,0.2,1.1,0.3,1.8,0.3c0.7,0,1.3-0.1,1.9-0.2c0.6-0.1,1-0.3,1.4-0.4
		c0.4-0.2,0.7-0.4,0.9-0.6c0.2-0.2,0.3-0.5,0.4-0.7c0-0.1,0-0.2-0.1-0.3s-0.2-0.1-0.4-0.2s-0.3-0.1-0.6-0.2c-0.2,0-0.4-0.1-0.7-0.2
		c-0.2-0.1-0.5-0.1-0.7-0.2c-0.2-0.1-0.4-0.2-0.6-0.3c-0.2-0.1-0.4-0.3-0.5-0.5c-0.1-0.2-0.2-0.4-0.3-0.7c-0.1-0.4-0.1-0.8-0.1-1.2
		c0-0.4,0.1-0.8,0.3-1.1c0.1-0.4,0.3-0.7,0.5-1c0.2-0.3,0.5-0.6,0.8-0.9c0.3-0.3,0.6-0.5,1-0.7C221.6,126.5,221.9,126.4,222.3,126.3
		z"/>
	<path id="XMLID_240_" class="st5" d="M229.2,132.4c-0.2,0-0.5,0-0.8-0.1s-0.6-0.1-1-0.2c-0.3-0.1-0.6-0.2-0.9-0.3
		c-0.3-0.1-0.5-0.2-0.6-0.3l0.6-1.4c0.2,0.1,0.4,0.2,0.7,0.3c0.3,0.1,0.5,0.2,0.8,0.3c0.3,0.1,0.6,0.1,0.9,0.2c0.3,0,0.6,0,0.9,0
		s0.5-0.1,0.8-0.2s0.4-0.2,0.6-0.4c0.1-0.2,0.1-0.4,0.1-0.8c-0.1-0.2-0.1-0.5-0.3-0.8c-0.1-0.3-0.3-0.5-0.4-0.8
		c-0.2-0.3-0.4-0.5-0.6-0.8s-0.4-0.5-0.6-0.7c-0.2-0.2-0.4-0.4-0.7-0.6c-0.2-0.2-0.5-0.3-0.7-0.4l0.6-1.3c0.3,0.1,0.6,0.3,0.9,0.5
		s0.6,0.4,0.9,0.7s0.5,0.5,0.8,0.9c0.3,0.3,0.5,0.6,0.7,0.9c0.2,0.3,0.4,0.7,0.5,1s0.3,0.6,0.3,1c0.1,0.3,0.1,0.5,0.1,0.7
		s0,0.4-0.1,0.6s-0.1,0.3-0.2,0.4s-0.1,0.2-0.2,0.3c-0.4,0.5-1.1,0.9-1.9,1.1c-0.2,0-0.4,0.1-0.6,0.1
		C229.6,132.4,229.4,132.4,229.2,132.4z"/>
	<path id="XMLID_242_" class="st5" d="M234.3,137.5l-0.3-1.4c0.8-0.2,1.4-0.4,2-0.6s1.1-0.6,1.5-0.9c0.4-0.3,0.8-0.7,1-1.1
		c0.2-0.4,0.4-0.8,0.5-1.1c-0.2,0-0.4,0-0.7,0c-0.3,0-0.6,0-0.8,0c-1.1-0.1-1.8-0.4-2.4-1c-0.2-0.3-0.4-0.6-0.4-1
		c-0.1-0.4-0.1-0.8,0-1.1c0.1-0.4,0.2-0.8,0.3-1.1c0.2-0.4,0.3-0.7,0.5-0.9c0.2-0.3,0.5-0.5,0.8-0.7c0.3-0.2,0.6-0.2,0.9-0.2
		c0.7,0,1.3,0.3,1.9,0.9c0.2,0.3,0.5,0.6,0.7,0.9c0.2,0.4,0.3,0.7,0.5,1.2s0.2,0.8,0.2,1.3c0,0.4,0,0.9,0,1.3
		c-0.1,0.5-0.2,1-0.4,1.5c-0.2,0.5-0.4,0.9-0.7,1.3c-0.3,0.4-0.6,0.8-1,1.1c-0.4,0.3-0.8,0.6-1.2,0.8c-0.4,0.2-0.9,0.4-1.4,0.6
		C235.3,137.3,234.8,137.5,234.3,137.5z M237.2,127.6c-0.1,0-0.3,0.1-0.4,0.2c-0.1,0.1-0.2,0.3-0.3,0.4c-0.1,0.2-0.2,0.4-0.3,0.6
		c-0.1,0.2-0.1,0.4-0.1,0.6c0,0.2,0,0.4,0,0.6c0,0.2,0.1,0.3,0.2,0.4c0.1,0.1,0.2,0.2,0.3,0.2c0.1,0.1,0.2,0.1,0.4,0.1
		c0.1,0,0.2,0.1,0.4,0.1c0.1,0,0.2,0,0.3,0c0.3,0,0.6,0,0.8,0c0.3,0,0.5,0,0.7,0c0-0.3-0.1-0.6-0.1-0.9c-0.1-0.3-0.1-0.5-0.2-0.8
		c-0.1-0.2-0.2-0.5-0.3-0.6c-0.1-0.2-0.2-0.4-0.4-0.5c0,0-0.1-0.1-0.2-0.2c-0.1-0.1-0.1-0.1-0.2-0.2c-0.1,0-0.1-0.1-0.2-0.1
		C237.4,127.7,237.3,127.6,237.2,127.6z"/>
	<path id="XMLID_245_" class="st5" d="M244.7,127.6c0.1,0.5,0.3,0.9,0.4,1.3c0,0.2,0.1,0.4,0.2,0.6s0.1,0.4,0.2,0.6
		c0,0.2,0.1,0.4,0.1,0.6c0,0.2,0.1,0.4,0.1,0.5c0,0.1,0,0.1,0,0.2c0,0.1,0,0.1,0,0.2c0,0.4-0.1,0.8-0.2,1.2
		c-0.1,0.4-0.3,0.8-0.5,1.2c-0.2,0.4-0.5,0.7-0.8,1.1c-0.3,0.3-0.6,0.7-1,0.9c-0.4,0.3-0.7,0.6-1.1,0.8c-0.4,0.3-0.8,0.5-1.2,0.7
		l-0.6-1.3c0.5-0.3,1-0.5,1.5-0.9c0.5-0.3,0.9-0.7,1.3-1.1c0.4-0.4,0.7-0.8,0.9-1.3s0.3-0.9,0.3-1.4c0,0,0-0.1,0-0.1
		c0-0.1,0-0.1,0-0.2v0c0-0.2,0-0.3-0.1-0.5c0-0.2-0.1-0.4-0.1-0.5c0-0.2-0.1-0.4-0.1-0.6c0-0.2-0.1-0.4-0.1-0.5
		c-0.1-0.4-0.2-0.8-0.4-1.2L244.7,127.6z M245.2,124.7l-1.2,1.2l-1.2-1.2l1.2-1.2L245.2,124.7z"/>
	<path id="XMLID_248_" class="st5" d="M256,131.4c-1.3,0-2.1-0.3-2.6-0.9c-0.1-0.2-0.2-0.3-0.3-0.5c-0.1-0.2-0.1-0.4-0.1-0.6
		c0-0.2,0-0.3,0-0.5s0.1-0.3,0.1-0.4c0.1-0.3,0.3-0.5,0.5-0.8c0.2-0.2,0.4-0.4,0.6-0.6c0.2-0.2,0.4-0.3,0.6-0.5
		c0.2-0.1,0.4-0.3,0.6-0.4c0.2-0.1,0.4-0.2,0.6-0.3c0.2-0.1,0.3-0.1,0.5-0.2c0-0.4-0.1-0.6-0.1-0.8c0-0.2,0-0.3,0-0.3l1.4-0.3v0
		c0,0,0,0.1,0,0.3s0,0.3,0.1,0.5c0,0.2,0,0.4,0.1,0.6c0,0.2,0,0.4,0.1,0.6s0,0.3,0.1,0.5c0,0.1,0,0.2,0,0.3c0.1,0.6,0.1,1.1,0.2,1.5
		s0.1,0.7,0.2,1c0,0.2,0.1,0.4,0.1,0.5c0,0.1,0.1,0.2,0.1,0.2c0.1,0.1,0.1,0.2,0.2,0.3c0.1,0.1,0.2,0.2,0.3,0.2
		c0.1,0.1,0.2,0.1,0.4,0.1c0.1,0,0.3,0,0.5,0c0.2,0,0.4,0.1,0.5,0.2s0.2,0.3,0.2,0.5c0,0.1,0,0.2-0.1,0.3c0,0.1-0.1,0.2-0.2,0.2
		c-0.1,0.1-0.1,0.1-0.2,0.2c-0.1,0-0.2,0.1-0.3,0.1c-0.2,0-0.4,0-0.7,0c-0.3,0-0.5-0.1-0.8-0.2c-0.4-0.2-0.7-0.5-1-0.9
		c-0.3,0-0.6,0.1-0.8,0.1C256.5,131.4,256.3,131.4,256,131.4z M256.8,127.3c-0.1,0-0.3,0.1-0.4,0.2c-0.2,0.1-0.3,0.2-0.5,0.2
		c-0.2,0.1-0.3,0.2-0.5,0.3c-0.2,0.1-0.3,0.2-0.5,0.4c-0.1,0.1-0.2,0.3-0.3,0.4c-0.1,0.1-0.1,0.3-0.1,0.5c0,0.2,0.1,0.3,0.2,0.4
		c0.1,0.1,0.2,0.2,0.4,0.2c0.2,0.1,0.3,0.1,0.5,0.1s0.4,0,0.6,0c0.2,0,0.4,0,0.6,0c0.2,0,0.3,0,0.5-0.1c-0.1-0.3-0.1-0.6-0.2-1
		C256.9,128.4,256.8,127.9,256.8,127.3z"/>
	<path id="XMLID_251_" class="st5" d="M259.3,131.7c0-0.2,0.1-0.4,0.2-0.5c0.1-0.1,0.3-0.2,0.5-0.2h0.8c0.3,0,0.5,0,0.7,0
		c0.2,0,0.5,0,0.7-0.1s0.4-0.1,0.5-0.3c0.2-0.1,0.3-0.3,0.4-0.5c0.1-0.2,0.1-0.5,0.1-0.9c0-0.4-0.1-0.8-0.3-1.4
		c-0.1-0.2-0.1-0.3-0.2-0.5c-0.1-0.2-0.1-0.4-0.2-0.5c-0.1-0.2-0.2-0.4-0.2-0.5l1.3-0.6c0,0,0,0.1,0.1,0.2c0,0.1,0.1,0.2,0.2,0.4
		c0.1,0.2,0.1,0.3,0.2,0.6c0.1,0.2,0.2,0.4,0.2,0.7c0.5,1.4,0.5,2.5,0.2,3.3c-0.3,0.8-1,1.3-1.8,1.6c-0.3,0.1-0.5,0.1-0.8,0.1
		c-0.3,0-0.5,0-0.7,0h-1H260c-0.2,0-0.4-0.1-0.5-0.2C259.3,132.1,259.3,131.9,259.3,131.7z M263.4,135.2l-1.2,1.2l-1.2-1.2l1.2-1.2
		L263.4,135.2z"/>
	<path id="XMLID_254_" class="st5" d="M276,137.4c-1.3,0-2.4-0.4-3.2-1.1c-0.4-0.3-0.7-0.7-0.9-1.2c-0.2-0.5-0.4-1-0.5-1.5
		c0-0.3-0.1-0.6-0.1-0.9c0-0.3,0-0.6,0.1-0.9c0-0.3,0.1-0.5,0.1-0.8c0.1-0.2,0.1-0.5,0.2-0.7c0.2-0.5,0.3-0.9,0.5-1.3
		c0.2-0.4,0.3-0.6,0.4-0.8l1.2,0.9c-0.1,0.1-0.1,0.2-0.2,0.4c-0.1,0.2-0.2,0.4-0.3,0.6c-0.1,0.2-0.2,0.5-0.2,0.7s-0.1,0.5-0.2,0.8
		c-0.1,0.3-0.1,0.6-0.1,0.9c0,0.3,0,0.6,0,0.9c0,0.1,0.1,0.3,0.1,0.4c0.1,0.2,0.1,0.3,0.3,0.5c0.1,0.2,0.2,0.4,0.4,0.5
		c0.2,0.2,0.4,0.3,0.6,0.5c0.2,0.1,0.5,0.3,0.8,0.4c0.3,0.1,0.7,0.2,1.1,0.2c0,0,0,0,0,0c0,0,0,0,0,0s0,0,0,0s0,0,0,0
		c1,0,1.9-0.3,2.5-0.6c0.6-0.4,1.1-0.9,1.3-1.6c0.1-0.4,0.2-0.8,0.2-1.3c0-0.4,0-0.8-0.1-1.2c-0.1-0.4-0.2-0.8-0.3-1.1
		c-0.1-0.3-0.2-0.6-0.3-0.9c-0.1-0.3-0.2-0.4-0.3-0.6c-0.1-0.1-0.1-0.2-0.1-0.2l1.2-0.8c0,0,0.1,0.1,0.2,0.3s0.2,0.4,0.4,0.7
		c0.1,0.3,0.3,0.7,0.4,1.1c0.1,0.4,0.2,0.8,0.3,1.3s0.1,1,0.1,1.5c0,0.5-0.1,1-0.3,1.6c-0.1,0.5-0.4,0.9-0.6,1.2
		c-0.3,0.4-0.6,0.7-1,1c-0.4,0.3-1,0.5-1.5,0.7c-0.6,0.2-1.2,0.3-1.9,0.3c0,0-0.1,0-0.1,0C276.1,137.4,276,137.4,276,137.4z
		 M277.7,127.7l-1.2,1.2l-1.2-1.2l1.2-1.2L277.7,127.7z"/>
	<path id="XMLID_257_" class="st5" d="M285.4,132.5l-1.4-0.1c0.1-1.1,0.1-2.2,0.1-3.1c0-1,0-1.9,0-2.7c0-0.8,0-1.6-0.1-2.3
		c0-0.7-0.1-1.2-0.1-1.7c0-0.5-0.1-0.8-0.1-1.1c0-0.3,0-0.4,0-0.4l1.4-0.2c0,0,0,0.3,0.1,0.9c0.1,0.6,0.1,1.2,0.2,2s0.1,1.4,0.1,2
		c0,0.6,0,1.3,0,2c0,0.7,0,1.5,0,2.3C285.5,130.7,285.4,131.6,285.4,132.5z"/>
	<path id="XMLID_259_" class="st5" d="M290.7,131.9L290.7,131.9c0,0.5-0.1,0.9-0.2,1.3c-0.1,0.4-0.3,0.8-0.5,1.2
		c-0.2,0.4-0.5,0.7-0.8,1.1c-0.3,0.3-0.6,0.7-1,0.9c-0.4,0.3-0.7,0.6-1.1,0.8c-0.4,0.3-0.8,0.5-1.2,0.7l-0.6-1.3
		c0.4-0.2,0.7-0.4,1-0.6c0.3-0.2,0.7-0.4,1-0.7c0.3-0.3,0.6-0.5,0.8-0.8c0.3-0.3,0.5-0.6,0.7-0.9c0.2-0.3,0.3-0.6,0.4-0.9
		c0.1-0.3,0.1-0.7,0.1-1v0c0-0.3-0.1-0.6-0.2-0.9c-0.1-0.3-0.1-0.6-0.2-0.9c-0.1-0.3-0.2-0.6-0.2-0.9c-0.1-0.3-0.2-0.5-0.2-0.7
		l1.4-0.4c0.2,0.6,0.4,1,0.5,1.4c0.2,0.4,0.4,0.7,0.5,1c0.2,0.3,0.4,0.4,0.6,0.6s0.4,0.2,0.7,0.2h0c0.1,0,0.2,0,0.3,0.1
		s0.2,0.1,0.2,0.2c0.1,0.1,0.1,0.1,0.2,0.2c0,0.1,0.1,0.2,0.1,0.3c0,0.2-0.1,0.4-0.2,0.5c-0.1,0.1-0.3,0.2-0.5,0.2h0
		c-0.1,0-0.2,0-0.3,0c-0.1,0-0.2,0-0.4-0.1c-0.1,0-0.3-0.1-0.4-0.2C291,132.1,290.8,132,290.7,131.9z"/>
	<path id="XMLID_261_" class="st5" d="M291,131.7c0-0.2,0.1-0.4,0.2-0.5c0.1-0.1,0.3-0.2,0.5-0.2h0.8c0.2,0,0.4,0,0.6,0
		c0.2,0,0.4,0,0.6,0s0.4,0,0.6-0.1c0.2,0,0.4-0.1,0.5-0.2c0.2-0.1,0.3-0.1,0.4-0.2s0.2-0.2,0.3-0.4c0.1-0.2,0.1-0.5,0.1-0.9
		c0-0.4-0.1-0.8-0.3-1.4c-0.1-0.2-0.1-0.3-0.2-0.5c-0.1-0.2-0.1-0.4-0.2-0.5c-0.1-0.2-0.2-0.4-0.2-0.5l1.3-0.6c0,0,0,0.1,0.1,0.2
		c0,0.1,0.1,0.2,0.2,0.4c0.1,0.2,0.1,0.3,0.2,0.6c0.1,0.2,0.2,0.4,0.2,0.7c0.5,1.4,0.5,2.5,0.2,3.3c-0.3,0.8-1,1.3-1.8,1.6
		c-0.1,0-0.3,0.1-0.5,0.1c-0.2,0-0.4,0-0.6,0c-0.2,0-0.4,0-0.6,0c-0.2,0-0.3,0-0.5,0h-1.1h-0.1c-0.2,0-0.4-0.1-0.5-0.2
		C291.1,132.1,291,131.9,291,131.7z M294.7,134.9l-1.2,1.2l-1.2-1.2l1.2-1.2L294.7,134.9z M297.4,134.9l-1.2,1.2l-1.2-1.2l1.2-1.2
		L297.4,134.9z"/>
	<path id="XMLID_265_" class="st5" d="M301.1,132.5l-1.4-0.1c0.1-1.1,0.1-2.2,0.1-3.1c0-1,0-1.9,0-2.7c0-0.8,0-1.6-0.1-2.3
		c0-0.7-0.1-1.2-0.1-1.7c0-0.5-0.1-0.8-0.1-1.1c0-0.3,0-0.4,0-0.4l1.4-0.2c0,0,0,0.3,0.1,0.9c0.1,0.6,0.1,1.2,0.2,2s0.1,1.4,0.1,2
		c0,0.6,0,1.3,0,2c0,0.7,0,1.5,0,2.3C301.2,130.7,301.2,131.6,301.1,132.5z"/>
	<path id="XMLID_267_" class="st5" d="M311.5,131.4c-1.3,0-2.1-0.3-2.6-0.9c-0.1-0.2-0.2-0.3-0.3-0.5c-0.1-0.2-0.1-0.4-0.1-0.6
		c0-0.2,0-0.3,0-0.5s0.1-0.3,0.1-0.4c0.1-0.3,0.3-0.5,0.5-0.8c0.2-0.2,0.4-0.4,0.6-0.6c0.2-0.2,0.4-0.3,0.6-0.5
		c0.2-0.1,0.4-0.3,0.6-0.4c0.2-0.1,0.4-0.2,0.6-0.3c0.2-0.1,0.3-0.1,0.5-0.2c0-0.4-0.1-0.6-0.1-0.8c0-0.2,0-0.3,0-0.3l1.4-0.3v0
		c0,0,0,0.1,0,0.3s0,0.3,0.1,0.5c0,0.2,0,0.4,0.1,0.6c0,0.2,0,0.4,0.1,0.6s0,0.3,0.1,0.5c0,0.1,0,0.2,0,0.3c0.1,0.6,0.1,1.1,0.2,1.5
		s0.1,0.7,0.2,1c0,0.2,0.1,0.4,0.1,0.5c0,0.1,0.1,0.2,0.1,0.2c0.1,0.1,0.1,0.2,0.2,0.3c0.1,0.1,0.2,0.2,0.3,0.2
		c0.1,0.1,0.2,0.1,0.4,0.1c0.1,0,0.3,0,0.5,0c0.2,0,0.4,0.1,0.5,0.2s0.2,0.3,0.2,0.5c0,0.1,0,0.2-0.1,0.3c0,0.1-0.1,0.2-0.2,0.2
		c-0.1,0.1-0.1,0.1-0.2,0.2c-0.1,0-0.2,0.1-0.3,0.1c-0.2,0-0.4,0-0.7,0c-0.3,0-0.5-0.1-0.8-0.2c-0.4-0.2-0.7-0.5-1-0.9
		c-0.3,0-0.6,0.1-0.8,0.1C312,131.4,311.8,131.4,311.5,131.4z M312.2,127.3c-0.1,0-0.3,0.1-0.4,0.2c-0.2,0.1-0.3,0.2-0.5,0.2
		c-0.2,0.1-0.3,0.2-0.5,0.3c-0.2,0.1-0.3,0.2-0.5,0.4c-0.1,0.1-0.2,0.3-0.3,0.4c-0.1,0.1-0.1,0.3-0.1,0.5c0,0.2,0.1,0.3,0.2,0.4
		c0.1,0.1,0.2,0.2,0.4,0.2c0.2,0.1,0.3,0.1,0.5,0.1s0.4,0,0.6,0c0.2,0,0.4,0,0.6,0c0.2,0,0.3,0,0.5-0.1c-0.1-0.3-0.1-0.6-0.2-1
		C312.4,128.4,312.3,127.9,312.2,127.3z"/>
	<path id="XMLID_270_" class="st5" d="M314.8,131.7c0-0.2,0.1-0.4,0.2-0.5c0.1-0.1,0.3-0.2,0.5-0.2h0.1c0.8,0,1.4-0.1,1.8-0.4
		c0.4-0.3,0.6-0.7,0.6-1.3c0-0.1,0-0.3,0-0.5s0-0.4-0.1-0.5c0-0.2-0.1-0.4-0.1-0.6c0-0.2-0.1-0.4-0.1-0.6l1.4-0.4
		c0.1,0.2,0.1,0.4,0.2,0.7s0.1,0.5,0.1,0.7c0,0.2,0.1,0.4,0.1,0.6c0,0.2,0,0.4,0,0.6v0c0,0.2,0,0.4,0.1,0.6c0,0.2,0.1,0.4,0.2,0.6
		c0.1,0.2,0.2,0.3,0.4,0.4c0.2,0.1,0.4,0.2,0.6,0.2c0.1,0,0.2,0,0.3,0.1c0.1,0,0.2,0.1,0.2,0.2c0.1,0.1,0.1,0.1,0.2,0.2
		s0.1,0.2,0.1,0.3c0,0.1,0,0.2-0.1,0.3c0,0.1-0.1,0.2-0.2,0.2c-0.1,0.1-0.1,0.1-0.2,0.2c-0.1,0-0.2,0.1-0.3,0.1
		c-0.2,0-0.5,0-0.7-0.1c-0.2,0-0.4-0.1-0.5-0.2c-0.2-0.1-0.3-0.2-0.4-0.3c-0.1-0.1-0.2-0.2-0.3-0.4c-0.3,0.3-0.7,0.5-1.2,0.7
		c-0.5,0.2-1.1,0.2-1.8,0.2h-0.1c-0.2,0-0.4-0.1-0.5-0.2S314.8,131.9,314.8,131.7z M319.6,124.2l-1.2,1.2l-1.2-1.2l1.2-1.2
		L319.6,124.2z"/>
	<path id="XMLID_273_" class="st5" d="M319.6,131.7c0-0.2,0.1-0.4,0.2-0.5c0.1-0.1,0.3-0.2,0.5-0.2h0.8c0.2,0,0.4,0,0.6,0
		c0.2,0,0.4,0,0.6,0s0.4,0,0.6-0.1c0.2,0,0.4-0.1,0.5-0.2c0.2-0.1,0.3-0.1,0.4-0.2s0.2-0.2,0.3-0.4c0.1-0.2,0.1-0.5,0.1-0.9
		c0-0.4-0.1-0.8-0.3-1.4c-0.1-0.2-0.1-0.3-0.2-0.5c-0.1-0.2-0.1-0.4-0.2-0.5c-0.1-0.2-0.2-0.4-0.2-0.5l1.3-0.6c0,0,0,0.1,0.1,0.2
		c0,0.1,0.1,0.2,0.2,0.4c0.1,0.2,0.1,0.3,0.2,0.6c0.1,0.2,0.2,0.4,0.2,0.7c0.5,1.4,0.5,2.5,0.2,3.3c-0.3,0.8-1,1.3-1.8,1.6
		c-0.1,0-0.3,0.1-0.5,0.1c-0.2,0-0.4,0-0.6,0c-0.2,0-0.4,0-0.6,0c-0.2,0-0.3,0-0.5,0h-1.1h-0.1c-0.2,0-0.4-0.1-0.5-0.2
		C319.7,132.1,319.6,131.9,319.6,131.7z M323.2,134.9l-1.2,1.2l-1.2-1.2l1.2-1.2L323.2,134.9z M326,134.9l-1.2,1.2l-1.2-1.2l1.2-1.2
		L326,134.9z"/>
	<path id="XMLID_277_" class="st5" d="M330.5,132.4c-0.2,0-0.5,0-0.8-0.1c-0.3-0.1-0.6-0.1-1-0.2c-0.3-0.1-0.6-0.2-0.9-0.3
		c-0.3-0.1-0.5-0.2-0.6-0.3l0.6-1.4c0.2,0.1,0.4,0.2,0.7,0.3c0.3,0.1,0.5,0.2,0.8,0.3c0.3,0.1,0.6,0.1,0.9,0.2c0.3,0,0.6,0,0.9,0
		s0.5-0.1,0.8-0.2s0.4-0.2,0.6-0.4c0.1-0.2,0.1-0.4,0.1-0.8c-0.1-0.2-0.1-0.5-0.3-0.8c-0.1-0.3-0.3-0.5-0.4-0.8
		c-0.2-0.3-0.4-0.5-0.6-0.8s-0.4-0.5-0.6-0.7c-0.2-0.2-0.4-0.4-0.7-0.6c-0.2-0.2-0.5-0.3-0.7-0.4l0.6-1.3c0.3,0.1,0.6,0.3,0.9,0.5
		s0.6,0.4,0.9,0.7c0.3,0.3,0.5,0.5,0.8,0.9c0.3,0.3,0.5,0.6,0.7,0.9c0.2,0.3,0.4,0.7,0.5,1s0.3,0.6,0.3,1c0.1,0.3,0.1,0.5,0.1,0.7
		s0,0.4-0.1,0.6c0,0.2-0.1,0.3-0.2,0.4c-0.1,0.1-0.1,0.2-0.2,0.3c-0.4,0.5-1.1,0.9-1.9,1.1c-0.2,0-0.4,0.1-0.6,0.1
		C331,132.4,330.8,132.4,330.5,132.4z"/>
	<path id="XMLID_279_" class="st5" d="M353.9,131.2c-0.2-0.2-0.3-0.5-0.5-0.8c-1.3,1.3-3.3,2-6.1,2c-1.5,0-2.7-0.2-3.7-0.5
		c-1-0.3-1.7-0.9-2.1-1.6c-0.1-0.2-0.3-0.5-0.3-0.7c-0.1-0.3-0.1-0.5-0.1-0.8c0-0.3,0-0.5,0-0.7c0-0.2,0.1-0.5,0.1-0.7
		c0.1-0.2,0.1-0.4,0.2-0.6c0.1-0.2,0.1-0.3,0.2-0.5c0.1-0.1,0.1-0.2,0.1-0.3s0.1-0.1,0.1-0.1l1.3,0.7c0,0,0,0.1-0.1,0.1
		s-0.1,0.2-0.1,0.4c-0.1,0.2-0.1,0.3-0.2,0.5c-0.1,0.2-0.1,0.4-0.1,0.6c0,0.2,0,0.4,0,0.7s0.1,0.4,0.2,0.7c0.3,0.5,0.8,0.9,1.6,1.1
		c0.8,0.3,1.7,0.4,2.9,0.4c1.1,0,2-0.1,2.8-0.3c0.8-0.2,1.4-0.5,1.9-0.9c0.2-0.2,0.4-0.4,0.6-0.6c0.2-0.2,0.3-0.4,0.4-0.7
		c0.1-0.2,0.2-0.5,0.3-0.7s0.1-0.5,0.2-0.7l1.4,0.4c0,0.1-0.1,0.2-0.1,0.3c0,0.1-0.1,0.3-0.1,0.4c-0.1,0.3-0.1,0.5-0.1,0.7
		c0,0.2,0,0.4,0.1,0.7s0.2,0.4,0.3,0.6c0.3,0.4,0.9,0.7,1.7,0.7c0.2,0,0.4,0.1,0.5,0.2c0.1,0.1,0.2,0.3,0.2,0.5s-0.1,0.4-0.2,0.5
		c-0.1,0.1-0.3,0.2-0.5,0.2h-0.1C355.5,132.4,354.5,132,353.9,131.2z M347.8,125.2l-1.2,1.2l-1.2-1.2l1.2-1.2L347.8,125.2z
		 M350.5,125.2l-1.2,1.2l-1.2-1.2l1.2-1.2L350.5,125.2z"/>
	<path id="XMLID_283_" class="st5" d="M355.8,131.7c0-0.2,0.1-0.4,0.2-0.5c0.1-0.1,0.3-0.2,0.5-0.2h0.8c0.2,0,0.4,0,0.6,0
		c0.2,0,0.4,0,0.6,0s0.4,0,0.6-0.1c0.2,0,0.4-0.1,0.5-0.2c0.2-0.1,0.3-0.1,0.4-0.2s0.2-0.2,0.3-0.4c0.1-0.2,0.1-0.5,0.1-0.9
		c0-0.4-0.1-0.8-0.3-1.4c-0.1-0.2-0.1-0.3-0.2-0.5c-0.1-0.2-0.1-0.4-0.2-0.5c-0.1-0.2-0.2-0.4-0.2-0.5l1.3-0.6c0,0,0,0.1,0.1,0.2
		c0,0.1,0.1,0.2,0.2,0.4c0.1,0.2,0.1,0.3,0.2,0.6c0.1,0.2,0.2,0.4,0.2,0.7c0.5,1.4,0.5,2.5,0.2,3.3c-0.3,0.8-1,1.3-1.8,1.6
		c-0.1,0-0.3,0.1-0.5,0.1c-0.2,0-0.4,0-0.6,0c-0.2,0-0.4,0-0.6,0c-0.2,0-0.3,0-0.5,0h-1.1h-0.1c-0.2,0-0.4-0.1-0.5-0.2
		C355.9,132.1,355.8,131.9,355.8,131.7z M359.5,134.9l-1.2,1.2l-1.2-1.2l1.2-1.2L359.5,134.9z M362.3,134.9l-1.2,1.2l-1.2-1.2
		l1.2-1.2L362.3,134.9z"/>
	<path id="XMLID_287_" class="st5" d="M367.4,132.4c-0.5,0-1-0.1-1.4-0.2c-0.4-0.1-0.7-0.3-1-0.6c-0.2-0.2-0.3-0.3-0.4-0.5
		c-0.1-0.2-0.1-0.4-0.2-0.5c0-0.2-0.1-0.4-0.1-0.5c0-0.2,0-0.3,0-0.4v-0.1c0,0,0-0.1,0-0.3c0-0.2,0-0.4,0-0.7c0-0.3,0-0.6,0-1
		s0-0.8,0-1.2c0-0.4,0-0.9,0-1.3c0-0.5,0-0.9,0-1.3c0-0.4,0-0.8-0.1-1.2c0-0.4-0.1-0.7-0.1-0.9l1.4-0.3c0,0.2,0.1,0.6,0.1,0.9
		c0,0.4,0.1,0.8,0.1,1.2c0,0.4,0,0.9,0,1.3c0,0.5,0,0.9,0,1.4c0,0.4,0,0.8,0,1.2c0,0.4,0,0.7,0,1.1c0,0.3,0,0.6,0,0.8
		c0,0.2,0,0.3,0,0.4v0.1c0,0.2,0,0.4,0,0.6c0,0.2,0.1,0.3,0.2,0.4c0.2,0.2,0.6,0.3,1.2,0.4h0.1c0.1,0,0.2,0,0.3,0.1
		c0.1,0,0.2,0.1,0.2,0.2c0.1,0.1,0.1,0.1,0.2,0.2c0,0.1,0.1,0.2,0.1,0.3c0,0.2-0.1,0.4-0.2,0.5S367.6,132.4,367.4,132.4z"/>
	<path id="XMLID_289_" class="st5" d="M366.7,131.7c0-0.1,0-0.2,0.1-0.3c0-0.1,0.1-0.2,0.1-0.2c0.1-0.1,0.1-0.1,0.2-0.2
		s0.2-0.1,0.3-0.1c0.3,0,0.5-0.1,0.8-0.2c0.2-0.1,0.4-0.3,0.6-0.5c0.2-0.2,0.3-0.4,0.5-0.6c0.1-0.2,0.2-0.5,0.3-0.8
		c0.1-0.3,0.2-0.5,0.3-0.8c0.1-0.3,0.1-0.5,0.2-0.8l1.5,0.3c0,0.1-0.1,0.3-0.1,0.5c-0.1,0.2-0.1,0.4-0.2,0.6
		c-0.1,0.2-0.1,0.4-0.1,0.7c0,0.2-0.1,0.4-0.1,0.6c0,0.1,0,0.3,0,0.4c0,0.1,0.1,0.2,0.1,0.3s0.1,0.2,0.2,0.2s0.2,0.1,0.4,0.1
		c0.2,0,0.5-0.1,0.7-0.2c0.2-0.1,0.4-0.3,0.5-0.5c0.2-0.2,0.3-0.5,0.4-0.7s0.2-0.6,0.3-0.8c0.1-0.3,0.1-0.6,0.2-0.8
		c0.1-0.3,0.1-0.5,0.1-0.7l1.4,0.3c-0.1,0.3-0.1,0.6-0.1,0.8c0,0.2-0.1,0.5-0.1,0.7c0,0.3,0,0.5,0,0.7c0,0.2,0,0.4,0,0.5
		c0,0.2,0.1,0.3,0.1,0.4c0.1,0.1,0.1,0.2,0.2,0.3c0.1,0.1,0.2,0.1,0.4,0.1c0.2,0,0.4,0,0.6,0c0.1,0,0.3-0.1,0.4-0.1
		c0.1-0.1,0.2-0.1,0.2-0.2c0-0.1,0.1-0.1,0.1-0.1h0c0.1-0.1,0.1-0.2,0.1-0.4c0-0.1,0-0.3,0-0.4c0-0.3,0-0.6-0.1-0.9
		c-0.1-0.3-0.2-0.6-0.3-0.9c-0.1-0.3-0.2-0.6-0.3-0.9c-0.1-0.3-0.2-0.5-0.3-0.6l1.3-0.7c0,0,0.1,0.1,0.1,0.3
		c0.1,0.1,0.1,0.3,0.2,0.5c0.1,0.2,0.2,0.4,0.3,0.7c0.1,0.3,0.2,0.5,0.3,0.8c0.1,0.3,0.1,0.6,0.2,0.9c0.1,0.3,0.1,0.6,0.1,0.9
		c0,0.4-0.1,0.8-0.2,1.1c-0.1,0.3-0.3,0.6-0.5,0.9c-0.2,0.2-0.5,0.4-0.9,0.6c-0.4,0.1-0.8,0.2-1.2,0.2c-0.2,0-0.4,0-0.6-0.1
		s-0.4-0.1-0.5-0.2c-0.2-0.1-0.3-0.2-0.5-0.4c-0.1-0.1-0.3-0.3-0.4-0.4c-0.3,0.3-0.6,0.6-1,0.8c-0.4,0.2-0.8,0.3-1.2,0.3
		c-0.2,0-0.4,0-0.6-0.1c-0.2,0-0.4-0.1-0.6-0.2s-0.3-0.2-0.5-0.3c-0.1-0.1-0.3-0.3-0.3-0.5c-0.3,0.3-0.6,0.6-1,0.7s-0.8,0.3-1.3,0.3
		h-0.1c-0.1,0-0.2,0-0.3-0.1s-0.2-0.1-0.2-0.2c-0.1-0.1-0.1-0.1-0.1-0.2C366.7,131.9,366.7,131.8,366.7,131.7z"/>
	<path id="XMLID_291_" class="st5" d="M398.3,131.2c-0.2-0.2-0.3-0.5-0.5-0.8c-1.3,1.3-3.3,2-6.1,2c-1.5,0-2.7-0.2-3.7-0.5
		c-1-0.3-1.7-0.9-2.1-1.6c-0.1-0.2-0.3-0.5-0.3-0.7c-0.1-0.3-0.1-0.5-0.1-0.8c0-0.3,0-0.5,0-0.7c0-0.2,0.1-0.5,0.1-0.7
		c0.1-0.2,0.1-0.4,0.2-0.6c0.1-0.2,0.1-0.3,0.2-0.5c0.1-0.1,0.1-0.2,0.1-0.3s0.1-0.1,0.1-0.1l1.3,0.7c0,0,0,0.1-0.1,0.1
		s-0.1,0.2-0.1,0.4c-0.1,0.2-0.1,0.3-0.2,0.5c-0.1,0.2-0.1,0.4-0.1,0.6c0,0.2,0,0.4,0,0.7s0.1,0.4,0.2,0.7c0.3,0.5,0.8,0.9,1.6,1.1
		c0.8,0.3,1.7,0.4,2.9,0.4c1.1,0,2-0.1,2.8-0.3c0.8-0.2,1.4-0.5,1.9-0.9c0.2-0.2,0.4-0.4,0.6-0.6c0.2-0.2,0.3-0.4,0.4-0.7
		c0.1-0.2,0.2-0.5,0.3-0.7s0.1-0.5,0.2-0.7l1.4,0.4c0,0.1-0.1,0.2-0.1,0.3c0,0.1-0.1,0.3-0.1,0.4c-0.1,0.3-0.1,0.5-0.1,0.7
		c0,0.2,0,0.4,0.1,0.7s0.2,0.4,0.3,0.6c0.3,0.4,0.9,0.7,1.7,0.7c0.2,0,0.4,0.1,0.5,0.2c0.1,0.1,0.2,0.3,0.2,0.5s-0.1,0.4-0.2,0.5
		c-0.1,0.1-0.3,0.2-0.5,0.2h-0.1C399.8,132.4,398.9,132,398.3,131.2z M392.1,125.2l-1.2,1.2l-1.2-1.2l1.2-1.2L392.1,125.2z
		 M394.9,125.2l-1.2,1.2l-1.2-1.2l1.2-1.2L394.9,125.2z"/>
	<path id="XMLID_295_" class="st5" d="M400.5,131.7c0-0.2,0.1-0.4,0.2-0.5c0.1-0.1,0.3-0.2,0.5-0.2h0.6c0.4,0,0.8,0,1.2-0.1
		s0.7-0.1,1-0.3c0.3-0.1,0.5-0.3,0.7-0.5c0.2-0.2,0.2-0.5,0.2-0.9c0-0.1,0-0.3,0-0.5c0-0.2,0-0.4-0.1-0.5c0-0.2-0.1-0.4-0.1-0.6
		c0-0.2-0.1-0.4-0.1-0.6l1.4-0.4c0.1,0.2,0.1,0.5,0.2,0.7c0.1,0.2,0.1,0.5,0.1,0.7c0,0.2,0.1,0.4,0.1,0.6c0,0.2,0,0.4,0,0.6v0
		c0,0.2,0,0.4,0,0.6c0,0.2,0.1,0.4,0.2,0.6c0.1,0.2,0.2,0.3,0.4,0.4c0.2,0.1,0.4,0.2,0.6,0.2c0.2,0,0.4,0.1,0.5,0.2s0.2,0.3,0.2,0.5
		c0,0.1,0,0.2-0.1,0.3c0,0.1-0.1,0.2-0.2,0.2c-0.1,0.1-0.1,0.1-0.2,0.2c-0.1,0-0.2,0.1-0.3,0.1c-0.5,0-0.9-0.1-1.2-0.3
		c-0.3-0.2-0.6-0.4-0.8-0.7c-0.2,0.2-0.4,0.3-0.7,0.4c-0.3,0.1-0.6,0.2-0.9,0.3c-0.3,0.1-0.7,0.1-1.1,0.2s-0.7,0.1-1.1,0.1h-0.6
		c-0.2,0-0.4-0.1-0.5-0.2C400.6,132.1,400.5,131.9,400.5,131.7z M403.7,135.2l-1.2,1.2l-1.2-1.2l1.2-1.2L403.7,135.2z M406.5,135.2
		l-1.2,1.2l-1.2-1.2l1.2-1.2L406.5,135.2z"/>
	<path id="XMLID_299_" class="st5" d="M406.9,131.7c0-0.2,0.1-0.4,0.2-0.5c0.1-0.1,0.3-0.2,0.5-0.2h0.1h0.3c0.6,0,0.9-0.1,1.2-0.4
		c0.3-0.3,0.4-0.8,0.4-1.5v-0.2c0-0.2,0-0.6,0-1.2s-0.1-1.3-0.1-2.2c0-0.5,0-1-0.1-1.5c0-0.5-0.1-0.9-0.1-1.2s0-0.6-0.1-0.9
		c0-0.2,0-0.3,0-0.4l1.4-0.2c0,0.1,0,0.2,0,0.5c0,0.2,0,0.5,0.1,0.9s0.1,0.8,0.1,1.2c0,0.5,0.1,1,0.1,1.5c0,0.9,0.1,1.6,0.1,2.2
		c0,0.6,0,1,0,1.2c0,0,0,0.1,0,0.1c0,0,0,0.1,0,0.1c0,0.2,0,0.4,0,0.6c0,0.2,0,0.4-0.1,0.7s-0.1,0.4-0.2,0.7
		c-0.1,0.2-0.2,0.4-0.4,0.6c-0.5,0.5-1.3,0.8-2.2,0.8h-0.3h-0.1c-0.2,0-0.4-0.1-0.5-0.2C406.9,132.1,406.9,131.9,406.9,131.7z"/>
	<path id="XMLID_301_" class="st5" d="M416.3,132.4c-0.5,0-1-0.1-1.4-0.2c-0.4-0.1-0.7-0.3-1-0.6c-0.2-0.2-0.3-0.3-0.4-0.5
		c-0.1-0.2-0.1-0.4-0.2-0.5c0-0.2-0.1-0.4-0.1-0.5c0-0.2,0-0.3,0-0.4v-0.1c0,0,0-0.1,0-0.3c0-0.2,0-0.4,0-0.7c0-0.3,0-0.6,0-1
		s0-0.8,0-1.2c0-0.4,0-0.9,0-1.3c0-0.5,0-0.9,0-1.3c0-0.4,0-0.8-0.1-1.2c0-0.4-0.1-0.7-0.1-0.9l1.4-0.3c0,0.2,0.1,0.6,0.1,0.9
		c0,0.4,0.1,0.8,0.1,1.2c0,0.4,0,0.9,0,1.3c0,0.5,0,0.9,0,1.4c0,0.4,0,0.8,0,1.2c0,0.4,0,0.7,0,1.1c0,0.3,0,0.6,0,0.8
		c0,0.2,0,0.3,0,0.4v0.1c0,0.2,0,0.4,0,0.6c0,0.2,0.1,0.3,0.2,0.4c0.2,0.2,0.6,0.3,1.2,0.4h0.1c0.1,0,0.2,0,0.3,0.1
		c0.1,0,0.2,0.1,0.2,0.2c0.1,0.1,0.1,0.1,0.2,0.2c0,0.1,0.1,0.2,0.1,0.3c0,0.2-0.1,0.4-0.2,0.5S416.5,132.4,416.3,132.4z"/>
	<path id="XMLID_303_" class="st5" d="M424.6,131c0.1,0,0.2,0,0.3,0.1s0.2,0.1,0.2,0.2c0.1,0.1,0.1,0.1,0.2,0.2
		c0,0.1,0.1,0.2,0.1,0.3c0,0.2-0.1,0.4-0.2,0.5s-0.3,0.2-0.5,0.2c-0.8,0-1.5-0.1-2.2-0.2c-0.7-0.1-1.3-0.4-1.8-0.7
		c-0.3,0.1-0.6,0.3-1,0.4c-0.4,0.1-0.7,0.2-1.1,0.3c-0.4,0.1-0.8,0.1-1.2,0.2c-0.4,0-0.8,0.1-1.1,0.1c-0.2,0-0.4-0.1-0.5-0.2
		c-0.1-0.1-0.2-0.3-0.2-0.5c0-0.1,0-0.2,0.1-0.3s0.1-0.2,0.2-0.2c0.1-0.1,0.1-0.1,0.2-0.2s0.2-0.1,0.3-0.1c0.2,0,0.5,0,0.8,0
		c0.3,0,0.6-0.1,0.8-0.1c0.3,0,0.5-0.1,0.8-0.1c0.2-0.1,0.5-0.1,0.6-0.2c-0.2-0.2-0.4-0.4-0.6-0.6c-0.2-0.2-0.4-0.4-0.6-0.7
		c-0.2-0.2-0.4-0.5-0.6-0.7s-0.4-0.5-0.6-0.7l0.1-1c0.2-0.2,0.5-0.4,0.8-0.6c0.3-0.2,0.5-0.3,0.8-0.4c0.3-0.1,0.5-0.2,0.8-0.2
		c0.2-0.1,0.5-0.1,0.7-0.1c0.5-0.1,1,0,1.5,0c0.5,0.1,0.9,0.2,1.3,0.3c0.3,0.1,0.5,0.2,0.6,0.4c0.2,0.1,0.3,0.3,0.4,0.4
		s0.1,0.3,0.2,0.4c0,0.1,0,0.2,0,0.3c0,0.2,0,0.5-0.1,0.8c-0.1,0.3-0.3,0.6-0.5,0.9c-0.2,0.3-0.4,0.6-0.7,0.8
		c-0.2,0.3-0.5,0.5-0.8,0.7c0.3,0.1,0.7,0.2,1.2,0.3C423.7,130.9,424.1,131,424.6,131z M420.7,129.8c0.1-0.1,0.3-0.2,0.4-0.3
		c0.1-0.1,0.3-0.3,0.4-0.4c0.1-0.1,0.3-0.3,0.4-0.5c0.1-0.2,0.2-0.3,0.3-0.5c0.1-0.1,0.2-0.3,0.2-0.4c0.1-0.1,0.1-0.2,0.1-0.3
		c-0.3-0.2-0.5-0.3-0.9-0.4c-0.3-0.1-0.7-0.1-1-0.1s-0.7,0-1.1,0.1s-0.7,0.2-1,0.4c0.4,0.5,0.8,0.9,1.1,1.3
		C420,129.2,420.3,129.5,420.7,129.8z"/>
	<path id="XMLID_306_" class="st5" d="M423.8,131.7c0-0.2,0.1-0.4,0.2-0.5s0.3-0.2,0.5-0.2c0.5,0,1,0,1.5-0.1
		c0.5-0.1,0.9-0.1,1.2-0.2c0.4-0.1,0.7-0.2,0.9-0.3c0.3-0.1,0.4-0.2,0.5-0.3c0.1-0.1,0.1-0.1,0.2-0.1s0.1-0.1,0.1-0.1h-0.7
		c-0.3,0-0.5,0-0.8-0.1c-0.3,0-0.5-0.1-0.7-0.2c-0.2-0.1-0.4-0.2-0.6-0.3c-0.2-0.1-0.3-0.3-0.5-0.4c-0.1-0.1-0.1-0.2-0.2-0.3
		c-0.1-0.1-0.1-0.3-0.2-0.4c0-0.2-0.1-0.3-0.1-0.5c0-0.2,0-0.4,0-0.7c0.1-0.4,0.2-0.7,0.3-1c0.1-0.3,0.3-0.6,0.5-0.8
		c0.2-0.3,0.5-0.5,0.7-0.7s0.6-0.2,0.8-0.2c0.6,0,1.2,0.3,1.8,0.9c0.2,0.2,0.4,0.5,0.6,0.9c0.2,0.3,0.3,0.7,0.4,1.1
		c0.1,0.4,0.2,0.8,0.2,1.2c0,0.4,0,0.8,0,1.2h0c0,0.2-0.1,0.4-0.1,0.6c0,0.1,0,0.1-0.1,0.2c0,0.1-0.1,0.2-0.1,0.3
		c-0.1,0.1-0.2,0.3-0.3,0.4c-0.1,0.1-0.3,0.3-0.4,0.4c-0.2,0.2-0.5,0.3-0.9,0.5c-0.4,0.1-0.8,0.3-1.2,0.4c-0.4,0.1-0.9,0.2-1.4,0.2
		s-1,0.1-1.5,0.1h-0.1c-0.2,0-0.4-0.1-0.5-0.2C423.9,132.1,423.8,131.9,423.8,131.7z M428.7,121.6l-1.2,1.2l-1.2-1.2l1.2-1.2
		L428.7,121.6z M427.7,125.6c-0.1,0-0.1,0-0.2,0.1c-0.1,0.1-0.2,0.2-0.3,0.3c-0.1,0.1-0.2,0.3-0.3,0.5c-0.1,0.2-0.1,0.4-0.2,0.7
		c-0.1,0.4,0,0.6,0.1,0.8c0.1,0.1,0.2,0.2,0.4,0.3c0.2,0.1,0.4,0.1,0.7,0.1c0.3,0,0.5,0,0.7,0c0.2,0,0.4,0,0.6,0
		c0-0.5-0.1-0.9-0.3-1.3c-0.1-0.4-0.3-0.8-0.6-1c-0.1-0.1-0.2-0.2-0.3-0.3C428,125.7,427.9,125.6,427.7,125.6z"/>
</g>
<g id="XMLID_112_">
	<path id="XMLID_113_" class="st5" d="M128.9,132.4c-0.2,0-0.5,0-0.8-0.1s-0.6-0.1-1-0.2c-0.3-0.1-0.6-0.2-0.9-0.3
		c-0.3-0.1-0.5-0.2-0.6-0.3l0.6-1.4c0.2,0.1,0.4,0.2,0.7,0.3c0.3,0.1,0.5,0.2,0.8,0.3c0.3,0.1,0.6,0.1,0.9,0.2c0.3,0,0.6,0,0.9,0
		s0.5-0.1,0.8-0.2s0.4-0.2,0.6-0.4c0.1-0.2,0.1-0.4,0.1-0.8c-0.1-0.2-0.1-0.5-0.3-0.8c-0.1-0.3-0.3-0.5-0.4-0.8
		c-0.2-0.3-0.4-0.5-0.6-0.8s-0.4-0.5-0.6-0.7c-0.2-0.2-0.4-0.4-0.7-0.6c-0.2-0.2-0.5-0.3-0.7-0.4l0.6-1.3c0.3,0.1,0.6,0.3,0.9,0.5
		s0.6,0.4,0.9,0.7s0.5,0.5,0.8,0.9c0.3,0.3,0.5,0.6,0.7,0.9c0.2,0.3,0.4,0.7,0.5,1s0.3,0.6,0.3,1c0.1,0.3,0.1,0.5,0.1,0.7
		s0,0.4-0.1,0.6s-0.1,0.3-0.2,0.4s-0.1,0.2-0.2,0.3c-0.4,0.5-1.1,0.9-1.9,1.1c-0.2,0-0.4,0.1-0.6,0.1
		C129.3,132.4,129.1,132.4,128.9,132.4z"/>
	<path id="XMLID_115_" class="st5" d="M134.1,137.5l-0.3-1.4c0.8-0.2,1.4-0.4,2-0.6s1.1-0.6,1.5-0.9c0.4-0.3,0.8-0.7,1-1.1
		c0.2-0.4,0.4-0.8,0.5-1.1c-0.2,0-0.4,0-0.7,0c-0.3,0-0.6,0-0.8,0c-1.1-0.1-1.8-0.4-2.4-1c-0.2-0.3-0.4-0.6-0.4-1
		c-0.1-0.4-0.1-0.8,0-1.1c0.1-0.4,0.2-0.8,0.3-1.1c0.2-0.4,0.3-0.7,0.5-0.9c0.2-0.3,0.5-0.5,0.8-0.7c0.3-0.2,0.6-0.2,0.9-0.2
		c0.7,0,1.3,0.3,1.9,0.9c0.2,0.2,0.4,0.5,0.6,0.8c0.2,0.3,0.3,0.6,0.4,0.9c0.1,0.3,0.2,0.7,0.3,1c0.1,0.4,0.1,0.7,0.1,1.1h0.5
		c0.1,0,0.2,0,0.3,0.1c0.1,0,0.2,0.1,0.2,0.2c0.1,0.1,0.1,0.1,0.2,0.2s0.1,0.2,0.1,0.3c0,0.1,0,0.2-0.1,0.3c0,0.1-0.1,0.2-0.2,0.2
		c-0.1,0.1-0.1,0.1-0.2,0.2c-0.1,0-0.2,0.1-0.3,0.1h-0.7c-0.1,0.7-0.4,1.4-0.8,2c-0.4,0.6-0.8,1.1-1.4,1.5c-0.5,0.4-1.2,0.8-1.8,1.1
		S134.8,137.4,134.1,137.5z M136.9,127.6c-0.1,0-0.3,0.1-0.4,0.2c-0.1,0.1-0.2,0.3-0.3,0.4s-0.2,0.4-0.3,0.6
		c-0.1,0.2-0.1,0.4-0.1,0.6c0,0.2,0,0.4,0,0.6c0,0.2,0.1,0.3,0.2,0.4c0.1,0.1,0.2,0.2,0.3,0.2c0.1,0.1,0.2,0.1,0.4,0.1
		c0.1,0,0.2,0.1,0.4,0.1c0.1,0,0.2,0,0.3,0c0.3,0,0.6,0,0.8,0c0.3,0,0.5,0,0.7,0c0-0.3-0.1-0.6-0.1-0.9c-0.1-0.3-0.1-0.5-0.2-0.8
		c-0.1-0.2-0.2-0.5-0.3-0.6c-0.1-0.2-0.2-0.4-0.4-0.5c0,0-0.1-0.1-0.2-0.2c-0.1-0.1-0.1-0.1-0.2-0.2c-0.1,0-0.1-0.1-0.2-0.1
		C137.1,127.7,137,127.6,136.9,127.6z"/>
	<path id="XMLID_118_" class="st5" d="M140.1,131.7c0-0.1,0-0.2,0.1-0.3c0-0.1,0.1-0.2,0.1-0.2c0.1-0.1,0.1-0.1,0.2-0.2
		s0.2-0.1,0.3-0.1c0.3,0,0.5-0.1,0.8-0.2c0.2-0.1,0.4-0.3,0.6-0.5c0.2-0.2,0.3-0.4,0.5-0.6c0.1-0.2,0.2-0.5,0.3-0.8
		c0.1-0.3,0.2-0.5,0.3-0.8c0.1-0.3,0.1-0.5,0.2-0.8l1.5,0.3c0,0.1-0.1,0.3-0.1,0.5c-0.1,0.2-0.1,0.4-0.2,0.6
		c-0.1,0.2-0.1,0.4-0.1,0.7c0,0.2-0.1,0.4-0.1,0.6c0,0.1,0,0.3,0,0.4c0,0.1,0.1,0.2,0.1,0.3s0.1,0.2,0.2,0.2s0.2,0.1,0.4,0.1
		c0.2,0,0.5-0.1,0.7-0.2c0.2-0.1,0.4-0.3,0.5-0.5c0.2-0.2,0.3-0.5,0.4-0.7s0.2-0.6,0.3-0.8c0.1-0.3,0.1-0.6,0.2-0.8
		c0.1-0.3,0.1-0.5,0.1-0.7l1.4,0.3c-0.1,0.3-0.1,0.6-0.1,0.8c0,0.2-0.1,0.5-0.1,0.7c0,0.3,0,0.5,0,0.7c0,0.2,0,0.4,0,0.5
		c0,0.2,0.1,0.3,0.1,0.4c0.1,0.1,0.1,0.2,0.2,0.3c0.1,0.1,0.2,0.1,0.4,0.1c0.2,0,0.4,0,0.6,0c0.1,0,0.3-0.1,0.4-0.1
		c0.1-0.1,0.2-0.1,0.2-0.2s0.1-0.1,0.1-0.1h0c0.1-0.1,0.1-0.2,0.1-0.4s0-0.3,0-0.4c0-0.3,0-0.6-0.1-0.9s-0.2-0.6-0.3-0.9
		c-0.1-0.3-0.2-0.6-0.3-0.9c-0.1-0.3-0.2-0.5-0.3-0.6l1.3-0.7c0,0,0.1,0.1,0.1,0.3c0.1,0.1,0.1,0.3,0.2,0.5c0.1,0.2,0.2,0.4,0.3,0.7
		c0.1,0.3,0.2,0.5,0.3,0.8c0.1,0.3,0.1,0.6,0.2,0.9c0.1,0.3,0.1,0.6,0.1,0.9c0,0.4-0.1,0.8-0.2,1.1c-0.1,0.3-0.3,0.6-0.5,0.9
		c-0.2,0.2-0.5,0.4-0.9,0.6c-0.4,0.1-0.8,0.2-1.2,0.2c-0.2,0-0.4,0-0.6-0.1s-0.4-0.1-0.5-0.2c-0.2-0.1-0.3-0.2-0.5-0.4
		c-0.1-0.1-0.3-0.3-0.4-0.4c-0.3,0.3-0.6,0.6-1,0.8c-0.4,0.2-0.8,0.3-1.2,0.3c-0.2,0-0.4,0-0.6-0.1c-0.2,0-0.4-0.1-0.6-0.2
		s-0.3-0.2-0.5-0.3c-0.1-0.1-0.3-0.3-0.3-0.5c-0.3,0.3-0.6,0.6-1,0.7s-0.8,0.3-1.3,0.3h-0.1c-0.1,0-0.2,0-0.3-0.1s-0.2-0.1-0.2-0.2
		c-0.1-0.1-0.1-0.1-0.1-0.2C140.1,131.9,140.1,131.8,140.1,131.7z M144.9,123.9l1.2-1.2l1.2,1.2l-1.2,1.2L144.9,123.9z M146.6,121.8
		l1.1-1.1l1.1,1.1l-1.1,1.1L146.6,121.8z M147.9,123.9l1.2-1.2l1.2,1.2l-1.2,1.2L147.9,123.9z"/>
	<path id="XMLID_123_" class="st5" d="M164.3,137.2c-0.4,0-0.9,0-1.3-0.1c-0.5,0-0.9-0.1-1.3-0.3c-0.4-0.1-0.8-0.3-1.2-0.5
		c-0.4-0.2-0.6-0.5-0.9-0.9c-0.5-0.8-0.8-1.8-0.7-3c0-0.7,0.2-1.4,0.4-2.2s0.5-1.7,0.9-2.6l1.3,0.5c-0.6,1.5-1,2.8-1.1,3.9
		c-0.1,1.1,0,1.9,0.4,2.5c0.2,0.3,0.4,0.5,0.7,0.7c0.3,0.2,0.6,0.3,0.9,0.3c0.3,0.1,0.6,0.1,1,0.1c0.3,0,0.6,0,0.8,0
		c0.1,0,0.3,0,0.6,0c0.3,0,0.5-0.1,0.8-0.1s0.6-0.1,0.9-0.2c0.3-0.1,0.6-0.2,0.9-0.3c0.3-0.1,0.5-0.3,0.6-0.5
		c0.2-0.2,0.2-0.4,0.2-0.6c0-0.1,0-0.1-0.1-0.2c-0.1-0.1-0.1-0.2-0.3-0.3c-0.1-0.1-0.3-0.2-0.5-0.3s-0.4-0.2-0.7-0.3
		c-0.2-0.1-0.3-0.1-0.5-0.2c-0.2-0.1-0.3-0.1-0.5-0.1c-0.1,0-0.3-0.1-0.4-0.1s-0.2-0.1-0.3-0.1l-0.2,0l0.1-1.4l5.6,0
		c0.2,0,0.4,0.1,0.5,0.2s0.2,0.3,0.2,0.5s-0.1,0.4-0.2,0.5s-0.3,0.2-0.5,0.2H169c0.2,0.1,0.3,0.3,0.4,0.4c0.1,0.1,0.2,0.3,0.2,0.4
		s0.1,0.3,0.1,0.4s0,0.2,0,0.3c0,0.4-0.1,0.8-0.3,1.1s-0.4,0.6-0.7,0.8s-0.6,0.4-1,0.6c-0.4,0.2-0.8,0.3-1.2,0.4
		c-0.4,0.1-0.8,0.2-1.2,0.2C165,137.2,164.6,137.2,164.3,137.2z"/>
	<path id="XMLID_125_" class="st5" d="M169.9,131.7c0-0.2,0.1-0.4,0.2-0.5c0.1-0.1,0.3-0.2,0.5-0.2h0c0.4,0,0.8-0.1,1-0.2
		c0.3-0.1,0.5-0.3,0.7-0.5c0.2-0.2,0.4-0.5,0.5-0.8c0.2-0.3,0.3-0.6,0.5-0.9c0.1-0.3,0.3-0.5,0.4-0.8s0.3-0.5,0.4-0.7
		c0.4-0.5,1-0.8,1.6-0.8c0.7,0,1.4,0.3,1.8,0.9c0.4,0.5,0.6,1.1,0.7,1.8c0,0.3,0.1,0.7,0,1s-0.1,0.6-0.2,0.9
		c-0.1,0.4-0.3,0.6-0.6,0.9c-0.2,0.2-0.5,0.4-0.8,0.5c-0.5,0.1-1.2,0.1-1.9-0.2c-0.5-0.2-1-0.5-1.5-0.8c0,0-0.1,0.1-0.1,0.1
		c-0.7,0.8-1.7,1.1-2.8,1.1h0c-0.2,0-0.4-0.1-0.5-0.2C169.9,132.1,169.9,131.9,169.9,131.7z M174.3,130c0.4,0.3,0.8,0.6,1.2,0.7
		s0.7,0.2,0.9,0.1c0.1,0,0.2-0.1,0.2-0.2s0.1-0.2,0.2-0.4s0.1-0.3,0.1-0.5c0-0.2,0-0.4,0-0.6c0,0,0-0.1,0-0.2c0-0.1,0-0.2-0.1-0.3
		c0-0.1-0.1-0.2-0.1-0.3c-0.1-0.1-0.1-0.2-0.2-0.3c-0.1-0.1-0.2-0.2-0.3-0.2c-0.1-0.1-0.2-0.1-0.4-0.1c-0.1,0-0.2,0-0.3,0.1
		c-0.1,0.1-0.2,0.1-0.3,0.3s-0.2,0.3-0.3,0.4c-0.1,0.2-0.2,0.4-0.3,0.6L174.3,130z"/>
	<path id="XMLID_128_" class="st5" d="M188.2,127.6c0.1,0.5,0.3,0.9,0.4,1.3c0,0.2,0.1,0.4,0.2,0.6s0.1,0.4,0.2,0.6
		c0,0.2,0.1,0.4,0.1,0.6c0,0.2,0.1,0.4,0.1,0.5c0,0.1,0,0.1,0,0.2c0,0.1,0,0.1,0,0.2c0,0.4-0.1,0.8-0.2,1.2
		c-0.1,0.4-0.3,0.8-0.5,1.2c-0.2,0.4-0.5,0.7-0.8,1.1c-0.3,0.3-0.6,0.7-1,0.9c-0.4,0.3-0.7,0.6-1.1,0.8s-0.8,0.5-1.2,0.7l-0.6-1.3
		c0.5-0.3,1-0.5,1.5-0.9c0.5-0.3,0.9-0.7,1.3-1.1s0.7-0.8,0.9-1.3s0.3-0.9,0.3-1.4c0,0,0-0.1,0-0.1c0-0.1,0-0.1,0-0.2v0
		c0-0.2,0-0.3-0.1-0.5c0-0.2-0.1-0.4-0.1-0.5c0-0.2-0.1-0.4-0.1-0.6c0-0.2-0.1-0.4-0.1-0.5c-0.1-0.4-0.2-0.8-0.4-1.2L188.2,127.6z
		 M188.7,124.7l-1.2,1.2l-1.2-1.2l1.2-1.2L188.7,124.7z"/>
	<path id="XMLID_131_" class="st5" d="M194.4,132.4c-0.5,0-1-0.1-1.4-0.2s-0.7-0.3-1-0.6c-0.2-0.2-0.3-0.3-0.4-0.5
		c-0.1-0.2-0.1-0.4-0.2-0.5c0-0.2-0.1-0.4-0.1-0.5c0-0.2,0-0.3,0-0.4v-0.1c0,0,0-0.1,0-0.3c0-0.2,0-0.4,0-0.7c0-0.3,0-0.6,0-1
		s0-0.8,0-1.2c0-0.4,0-0.9,0-1.3c0-0.5,0-0.9,0-1.3c0-0.4,0-0.8-0.1-1.2c0-0.4-0.1-0.7-0.1-0.9l1.4-0.3c0,0.2,0.1,0.6,0.1,0.9
		c0,0.4,0.1,0.8,0.1,1.2c0,0.4,0,0.9,0,1.3c0,0.5,0,0.9,0,1.4c0,0.4,0,0.8,0,1.2c0,0.4,0,0.7,0,1.1c0,0.3,0,0.6,0,0.8
		c0,0.2,0,0.3,0,0.4v0.1c0,0.2,0,0.4,0,0.6c0,0.2,0.1,0.3,0.2,0.4c0.2,0.2,0.6,0.3,1.2,0.4h0.1c0.1,0,0.2,0,0.3,0.1
		c0.1,0,0.2,0.1,0.2,0.2c0.1,0.1,0.1,0.1,0.2,0.2s0.1,0.2,0.1,0.3c0,0.2-0.1,0.4-0.2,0.5S194.6,132.4,194.4,132.4z"/>
	<path id="XMLID_133_" class="st5" d="M200.8,128c-0.2-0.2-0.4-0.3-0.6-0.5c-0.2-0.1-0.4-0.2-0.7-0.3s-0.6-0.2-0.9-0.2
		c-0.3,0-0.5,0-0.7,0.1c-0.2,0.1-0.4,0.2-0.5,0.4c-0.1,0.2-0.3,0.3-0.3,0.6c-0.1,0.2-0.1,0.4-0.1,0.6c0,0.3,0.1,0.6,0.2,0.8
		c0.1,0.3,0.3,0.5,0.5,0.6c0.2,0.2,0.5,0.3,0.8,0.4s0.6,0.1,0.9,0.1c0.3,0,0.6,0,0.8-0.1c0.3,0,0.5-0.1,0.7-0.1
		c0.2,0,0.5-0.1,0.7-0.1l0.2,1.4c-0.3,0.1-0.6,0.1-0.9,0.2c-0.3,0.1-0.8,0.1-1.2,0.2s-1,0.1-1.6,0.1s-1.3,0.1-2.1,0.1l-1.6,0
		c-0.2,0-0.4-0.1-0.5-0.2s-0.2-0.3-0.2-0.5s0.1-0.4,0.2-0.5s0.3-0.2,0.5-0.2l2.1,0c-0.4-0.3-0.6-0.7-0.8-1c-0.1-0.4-0.2-0.8-0.2-1.2
		c0-0.4,0.1-0.8,0.2-1.2c0.2-0.4,0.4-0.7,0.7-1s0.6-0.5,1-0.7c0.4-0.2,0.8-0.3,1.3-0.3c0.2,0,0.4,0,0.7,0.1c0.2,0,0.4,0.1,0.6,0.2
		s0.4,0.1,0.5,0.2s0.3,0.2,0.4,0.2c0.3,0.2,0.6,0.4,0.8,0.7L200.8,128z M199.3,122.7l-1.2,1.2l-1.2-1.2l1.2-1.2L199.3,122.7z"/>
	<path id="XMLID_136_" class="st5" d="M202.4,120.3C202.4,120.3,202.4,120.2,202.4,120.3c0.1-0.2,0.1-0.2,0.1-0.3
		c0-0.1,0.1-0.2,0.1-0.2c0-0.1,0.1-0.2,0.1-0.2c0.2-0.2,0.3-0.4,0.5-0.6c0.2-0.1,0.4-0.2,0.6-0.3c0,0,0.1,0,0.2,0c0.1,0,0.1,0,0.2,0
		c0.2,0,0.4,0,0.6,0.1s0.3,0.1,0.5,0.2c0.1,0.1,0.3,0.1,0.4,0.1s0.3,0.1,0.4,0.1c0.1,0,0.2,0,0.3-0.1s0.2-0.1,0.3-0.2
		c0.1-0.1,0.2-0.2,0.2-0.2c0.1-0.1,0.1-0.1,0.1-0.2l0.8,0.5c0,0,0,0-0.1,0.1s-0.1,0.1-0.2,0.2c-0.1,0.1-0.2,0.2-0.3,0.3
		c-0.1,0.1-0.2,0.2-0.4,0.3c-0.1,0.1-0.3,0.2-0.5,0.2s-0.3,0.1-0.5,0.1c-0.2,0-0.4,0-0.5-0.1c-0.2,0-0.3-0.1-0.5-0.2l-0.1,0
		c-0.2-0.1-0.3-0.1-0.4-0.1s-0.3,0-0.4,0c-0.1,0-0.2,0.1-0.2,0.1c-0.1,0.1-0.1,0.2-0.2,0.3c-0.1,0.1-0.1,0.2-0.2,0.3
		c0,0.1-0.1,0.2-0.1,0.2L202.4,120.3z M205.8,132.5l-1.4-0.1c0.1-1.1,0.1-2.2,0.1-3.1c0-1,0-1.9,0-2.7c0-0.8-0.1-1.5-0.1-2.1
		c0-0.5-0.1-1-0.1-1.5s-0.1-0.8-0.1-1.1c0-0.3,0-0.4,0-0.4l1.4-0.2c0,0,0,0.3,0.1,0.9c0.1,0.6,0.1,1.1,0.2,1.7
		c0,0.6,0.1,1.2,0.1,1.8c0,0.6,0,1.3,0,2c0,0.7,0,1.5,0,2.3C205.9,130.7,205.9,131.6,205.8,132.5z"/>
	<path id="XMLID_139_" class="st5" d="M222.3,126.3c0.3-0.1,0.7-0.1,1-0.1s0.6,0.1,0.8,0.1s0.4,0.1,0.6,0.2s0.2,0.1,0.2,0.1
		l-0.6,1.3c-0.2-0.1-0.4-0.1-0.5-0.2c-0.1,0-0.3-0.1-0.5-0.1c-0.2,0-0.4,0-0.6,0c-0.2,0-0.4,0.1-0.6,0.2s-0.4,0.2-0.6,0.4
		c-0.2,0.2-0.4,0.4-0.6,0.6c-0.2,0.2-0.3,0.4-0.4,0.7c-0.1,0.2-0.2,0.5-0.2,0.7s0,0.5,0.1,0.7c0.1,0.2,0.2,0.3,0.3,0.4
		c0.2,0.1,0.3,0.2,0.6,0.3s0.4,0.1,0.7,0.2s0.5,0.1,0.7,0.2c0.2,0.1,0.5,0.2,0.7,0.3c0.2,0.1,0.4,0.2,0.6,0.4
		c0.2,0.2,0.3,0.4,0.3,0.6c0.1,0.3,0.1,0.6,0,0.9c-0.1,0.5-0.3,0.9-0.6,1.3c-0.3,0.4-0.8,0.7-1.4,1c-0.5,0.3-1.1,0.5-1.8,0.6
		c-0.7,0.1-1.4,0.2-2.2,0.2c-0.9,0-1.7-0.1-2.4-0.4c-0.7-0.3-1.3-0.7-1.7-1.2c-0.4-0.5-0.7-1-0.8-1.6c-0.2-0.6-0.2-1.3-0.1-2
		c0-0.3,0.1-0.6,0.2-1c0.1-0.3,0.1-0.7,0.2-1c0.1-0.3,0.2-0.6,0.2-0.9c0.1-0.3,0.2-0.5,0.2-0.8s0.1-0.4,0.2-0.5s0.1-0.2,0.1-0.2
		l1.4,0.5c-0.2,0.7-0.4,1.4-0.6,2s-0.3,1.4-0.4,2.1c0,0.2,0,0.4,0,0.6c0,0.2,0,0.4,0.1,0.6c0,0.2,0.1,0.4,0.2,0.6
		c0.1,0.2,0.2,0.4,0.4,0.6c0.3,0.4,0.7,0.6,1.2,0.8c0.5,0.2,1.1,0.3,1.8,0.3c0.7,0,1.3-0.1,1.9-0.2c0.6-0.1,1-0.3,1.4-0.4
		c0.4-0.2,0.7-0.4,0.9-0.6c0.2-0.2,0.3-0.5,0.4-0.7c0-0.1,0-0.2-0.1-0.3s-0.2-0.1-0.4-0.2s-0.3-0.1-0.6-0.2c-0.2,0-0.4-0.1-0.7-0.2
		c-0.2-0.1-0.5-0.1-0.7-0.2c-0.2-0.1-0.4-0.2-0.6-0.3c-0.2-0.1-0.4-0.3-0.5-0.5c-0.1-0.2-0.2-0.4-0.3-0.7c-0.1-0.4-0.1-0.8-0.1-1.2
		c0-0.4,0.1-0.8,0.3-1.1c0.1-0.4,0.3-0.7,0.5-1c0.2-0.3,0.5-0.6,0.8-0.9c0.3-0.3,0.6-0.5,1-0.7C221.6,126.5,221.9,126.4,222.3,126.3
		z"/>
	<path id="XMLID_141_" class="st5" d="M229.2,132.4c-0.2,0-0.5,0-0.8-0.1s-0.6-0.1-1-0.2c-0.3-0.1-0.6-0.2-0.9-0.3
		c-0.3-0.1-0.5-0.2-0.6-0.3l0.6-1.4c0.2,0.1,0.4,0.2,0.7,0.3c0.3,0.1,0.5,0.2,0.8,0.3c0.3,0.1,0.6,0.1,0.9,0.2c0.3,0,0.6,0,0.9,0
		s0.5-0.1,0.8-0.2s0.4-0.2,0.6-0.4c0.1-0.2,0.1-0.4,0.1-0.8c-0.1-0.2-0.1-0.5-0.3-0.8c-0.1-0.3-0.3-0.5-0.4-0.8
		c-0.2-0.3-0.4-0.5-0.6-0.8s-0.4-0.5-0.6-0.7c-0.2-0.2-0.4-0.4-0.7-0.6c-0.2-0.2-0.5-0.3-0.7-0.4l0.6-1.3c0.3,0.1,0.6,0.3,0.9,0.5
		s0.6,0.4,0.9,0.7s0.5,0.5,0.8,0.9c0.3,0.3,0.5,0.6,0.7,0.9c0.2,0.3,0.4,0.7,0.5,1s0.3,0.6,0.3,1c0.1,0.3,0.1,0.5,0.1,0.7
		s0,0.4-0.1,0.6s-0.1,0.3-0.2,0.4s-0.1,0.2-0.2,0.3c-0.4,0.5-1.1,0.9-1.9,1.1c-0.2,0-0.4,0.1-0.6,0.1
		C229.6,132.4,229.4,132.4,229.2,132.4z"/>
	<path id="XMLID_143_" class="st5" d="M234.3,137.5l-0.3-1.4c0.8-0.2,1.4-0.4,2-0.6s1.1-0.6,1.5-0.9c0.4-0.3,0.8-0.7,1-1.1
		c0.2-0.4,0.4-0.8,0.5-1.1c-0.2,0-0.4,0-0.7,0c-0.3,0-0.6,0-0.8,0c-1.1-0.1-1.8-0.4-2.4-1c-0.2-0.3-0.4-0.6-0.4-1
		c-0.1-0.4-0.1-0.8,0-1.1c0.1-0.4,0.2-0.8,0.3-1.1c0.2-0.4,0.3-0.7,0.5-0.9c0.2-0.3,0.5-0.5,0.8-0.7c0.3-0.2,0.6-0.2,0.9-0.2
		c0.7,0,1.3,0.3,1.9,0.9c0.2,0.3,0.5,0.6,0.7,0.9c0.2,0.4,0.3,0.7,0.5,1.2s0.2,0.8,0.2,1.3c0,0.4,0,0.9,0,1.3
		c-0.1,0.5-0.2,1-0.4,1.5c-0.2,0.5-0.4,0.9-0.7,1.3c-0.3,0.4-0.6,0.8-1,1.1c-0.4,0.3-0.8,0.6-1.2,0.8c-0.4,0.2-0.9,0.4-1.4,0.6
		C235.3,137.3,234.8,137.5,234.3,137.5z M237.2,127.6c-0.1,0-0.3,0.1-0.4,0.2c-0.1,0.1-0.2,0.3-0.3,0.4c-0.1,0.2-0.2,0.4-0.3,0.6
		c-0.1,0.2-0.1,0.4-0.1,0.6c0,0.2,0,0.4,0,0.6c0,0.2,0.1,0.3,0.2,0.4c0.1,0.1,0.2,0.2,0.3,0.2c0.1,0.1,0.2,0.1,0.4,0.1
		c0.1,0,0.2,0.1,0.4,0.1c0.1,0,0.2,0,0.3,0c0.3,0,0.6,0,0.8,0c0.3,0,0.5,0,0.7,0c0-0.3-0.1-0.6-0.1-0.9c-0.1-0.3-0.1-0.5-0.2-0.8
		c-0.1-0.2-0.2-0.5-0.3-0.6c-0.1-0.2-0.2-0.4-0.4-0.5c0,0-0.1-0.1-0.2-0.2c-0.1-0.1-0.1-0.1-0.2-0.2c-0.1,0-0.1-0.1-0.2-0.1
		C237.4,127.7,237.3,127.6,237.2,127.6z"/>
	<path id="XMLID_146_" class="st5" d="M244.7,127.6c0.1,0.5,0.3,0.9,0.4,1.3c0,0.2,0.1,0.4,0.2,0.6s0.1,0.4,0.2,0.6
		c0,0.2,0.1,0.4,0.1,0.6c0,0.2,0.1,0.4,0.1,0.5c0,0.1,0,0.1,0,0.2c0,0.1,0,0.1,0,0.2c0,0.4-0.1,0.8-0.2,1.2
		c-0.1,0.4-0.3,0.8-0.5,1.2c-0.2,0.4-0.5,0.7-0.8,1.1c-0.3,0.3-0.6,0.7-1,0.9c-0.4,0.3-0.7,0.6-1.1,0.8c-0.4,0.3-0.8,0.5-1.2,0.7
		l-0.6-1.3c0.5-0.3,1-0.5,1.5-0.9c0.5-0.3,0.9-0.7,1.3-1.1c0.4-0.4,0.7-0.8,0.9-1.3s0.3-0.9,0.3-1.4c0,0,0-0.1,0-0.1
		c0-0.1,0-0.1,0-0.2v0c0-0.2,0-0.3-0.1-0.5c0-0.2-0.1-0.4-0.1-0.5c0-0.2-0.1-0.4-0.1-0.6c0-0.2-0.1-0.4-0.1-0.5
		c-0.1-0.4-0.2-0.8-0.4-1.2L244.7,127.6z M245.2,124.7l-1.2,1.2l-1.2-1.2l1.2-1.2L245.2,124.7z"/>
	<path id="XMLID_149_" class="st5" d="M256,131.4c-1.3,0-2.1-0.3-2.6-0.9c-0.1-0.2-0.2-0.3-0.3-0.5c-0.1-0.2-0.1-0.4-0.1-0.6
		c0-0.2,0-0.3,0-0.5s0.1-0.3,0.1-0.4c0.1-0.3,0.3-0.5,0.5-0.8c0.2-0.2,0.4-0.4,0.6-0.6c0.2-0.2,0.4-0.3,0.6-0.5
		c0.2-0.1,0.4-0.3,0.6-0.4c0.2-0.1,0.4-0.2,0.6-0.3c0.2-0.1,0.3-0.1,0.5-0.2c0-0.4-0.1-0.6-0.1-0.8c0-0.2,0-0.3,0-0.3l1.4-0.3v0
		c0,0,0,0.1,0,0.3s0,0.3,0.1,0.5c0,0.2,0,0.4,0.1,0.6c0,0.2,0,0.4,0.1,0.6s0,0.3,0.1,0.5c0,0.1,0,0.2,0,0.3c0.1,0.6,0.1,1.1,0.2,1.5
		s0.1,0.7,0.2,1c0,0.2,0.1,0.4,0.1,0.5c0,0.1,0.1,0.2,0.1,0.2c0.1,0.1,0.1,0.2,0.2,0.3c0.1,0.1,0.2,0.2,0.3,0.2
		c0.1,0.1,0.2,0.1,0.4,0.1c0.1,0,0.3,0,0.5,0c0.2,0,0.4,0.1,0.5,0.2s0.2,0.3,0.2,0.5c0,0.1,0,0.2-0.1,0.3c0,0.1-0.1,0.2-0.2,0.2
		c-0.1,0.1-0.1,0.1-0.2,0.2c-0.1,0-0.2,0.1-0.3,0.1c-0.2,0-0.4,0-0.7,0c-0.3,0-0.5-0.1-0.8-0.2c-0.4-0.2-0.7-0.5-1-0.9
		c-0.3,0-0.6,0.1-0.8,0.1C256.5,131.4,256.3,131.4,256,131.4z M256.8,127.3c-0.1,0-0.3,0.1-0.4,0.2c-0.2,0.1-0.3,0.2-0.5,0.2
		c-0.2,0.1-0.3,0.2-0.5,0.3c-0.2,0.1-0.3,0.2-0.5,0.4c-0.1,0.1-0.2,0.3-0.3,0.4c-0.1,0.1-0.1,0.3-0.1,0.5c0,0.2,0.1,0.3,0.2,0.4
		c0.1,0.1,0.2,0.2,0.4,0.2c0.2,0.1,0.3,0.1,0.5,0.1s0.4,0,0.6,0c0.2,0,0.4,0,0.6,0c0.2,0,0.3,0,0.5-0.1c-0.1-0.3-0.1-0.6-0.2-1
		C256.9,128.4,256.8,127.9,256.8,127.3z"/>
	<path id="XMLID_152_" class="st5" d="M259.3,131.7c0-0.2,0.1-0.4,0.2-0.5c0.1-0.1,0.3-0.2,0.5-0.2h0.8c0.3,0,0.5,0,0.7,0
		c0.2,0,0.5,0,0.7-0.1s0.4-0.1,0.5-0.3c0.2-0.1,0.3-0.3,0.4-0.5c0.1-0.2,0.1-0.5,0.1-0.9c0-0.4-0.1-0.8-0.3-1.4
		c-0.1-0.2-0.1-0.3-0.2-0.5c-0.1-0.2-0.1-0.4-0.2-0.5c-0.1-0.2-0.2-0.4-0.2-0.5l1.3-0.6c0,0,0,0.1,0.1,0.2c0,0.1,0.1,0.2,0.2,0.4
		c0.1,0.2,0.1,0.3,0.2,0.6c0.1,0.2,0.2,0.4,0.2,0.7c0.5,1.4,0.5,2.5,0.2,3.3c-0.3,0.8-1,1.3-1.8,1.6c-0.3,0.1-0.5,0.1-0.8,0.1
		c-0.3,0-0.5,0-0.7,0h-1H260c-0.2,0-0.4-0.1-0.5-0.2C259.3,132.1,259.3,131.9,259.3,131.7z M263.4,135.2l-1.2,1.2l-1.2-1.2l1.2-1.2
		L263.4,135.2z"/>
	<path id="XMLID_155_" class="st5" d="M276,137.4c-1.3,0-2.4-0.4-3.2-1.1c-0.4-0.3-0.7-0.7-0.9-1.2c-0.2-0.5-0.4-1-0.5-1.5
		c0-0.3-0.1-0.6-0.1-0.9c0-0.3,0-0.6,0.1-0.9c0-0.3,0.1-0.5,0.1-0.8c0.1-0.2,0.1-0.5,0.2-0.7c0.2-0.5,0.3-0.9,0.5-1.3
		c0.2-0.4,0.3-0.6,0.4-0.8l1.2,0.9c-0.1,0.1-0.1,0.2-0.2,0.4c-0.1,0.2-0.2,0.4-0.3,0.6c-0.1,0.2-0.2,0.5-0.2,0.7s-0.1,0.5-0.2,0.8
		c-0.1,0.3-0.1,0.6-0.1,0.9c0,0.3,0,0.6,0,0.9c0,0.1,0.1,0.3,0.1,0.4c0.1,0.2,0.1,0.3,0.3,0.5c0.1,0.2,0.2,0.4,0.4,0.5
		c0.2,0.2,0.4,0.3,0.6,0.5c0.2,0.1,0.5,0.3,0.8,0.4c0.3,0.1,0.7,0.2,1.1,0.2c0,0,0,0,0,0c0,0,0,0,0,0s0,0,0,0s0,0,0,0
		c1,0,1.9-0.3,2.5-0.6c0.6-0.4,1.1-0.9,1.3-1.6c0.1-0.4,0.2-0.8,0.2-1.3c0-0.4,0-0.8-0.1-1.2c-0.1-0.4-0.2-0.8-0.3-1.1
		c-0.1-0.3-0.2-0.6-0.3-0.9c-0.1-0.3-0.2-0.4-0.3-0.6c-0.1-0.1-0.1-0.2-0.1-0.2l1.2-0.8c0,0,0.1,0.1,0.2,0.3s0.2,0.4,0.4,0.7
		c0.1,0.3,0.3,0.7,0.4,1.1c0.1,0.4,0.2,0.8,0.3,1.3s0.1,1,0.1,1.5c0,0.5-0.1,1-0.3,1.6c-0.1,0.5-0.4,0.9-0.6,1.2
		c-0.3,0.4-0.6,0.7-1,1c-0.4,0.3-1,0.5-1.5,0.7c-0.6,0.2-1.2,0.3-1.9,0.3c0,0-0.1,0-0.1,0C276.1,137.4,276,137.4,276,137.4z
		 M277.7,127.7l-1.2,1.2l-1.2-1.2l1.2-1.2L277.7,127.7z"/>
	<path id="XMLID_158_" class="st5" d="M285.4,132.5l-1.4-0.1c0.1-1.1,0.1-2.2,0.1-3.1c0-1,0-1.9,0-2.7c0-0.8,0-1.6-0.1-2.3
		c0-0.7-0.1-1.2-0.1-1.7c0-0.5-0.1-0.8-0.1-1.1c0-0.3,0-0.4,0-0.4l1.4-0.2c0,0,0,0.3,0.1,0.9c0.1,0.6,0.1,1.2,0.2,2s0.1,1.4,0.1,2
		c0,0.6,0,1.3,0,2c0,0.7,0,1.5,0,2.3C285.5,130.7,285.4,131.6,285.4,132.5z"/>
	<path id="XMLID_160_" class="st5" d="M290.7,131.9L290.7,131.9c0,0.5-0.1,0.9-0.2,1.3c-0.1,0.4-0.3,0.8-0.5,1.2
		c-0.2,0.4-0.5,0.7-0.8,1.1c-0.3,0.3-0.6,0.7-1,0.9c-0.4,0.3-0.7,0.6-1.1,0.8c-0.4,0.3-0.8,0.5-1.2,0.7l-0.6-1.3
		c0.4-0.2,0.7-0.4,1-0.6c0.3-0.2,0.7-0.4,1-0.7c0.3-0.3,0.6-0.5,0.8-0.8c0.3-0.3,0.5-0.6,0.7-0.9c0.2-0.3,0.3-0.6,0.4-0.9
		c0.1-0.3,0.1-0.7,0.1-1v0c0-0.3-0.1-0.6-0.2-0.9c-0.1-0.3-0.1-0.6-0.2-0.9c-0.1-0.3-0.2-0.6-0.2-0.9c-0.1-0.3-0.2-0.5-0.2-0.7
		l1.4-0.4c0.2,0.6,0.4,1,0.5,1.4c0.2,0.4,0.4,0.7,0.5,1c0.2,0.3,0.4,0.4,0.6,0.6s0.4,0.2,0.7,0.2h0c0.1,0,0.2,0,0.3,0.1
		s0.2,0.1,0.2,0.2c0.1,0.1,0.1,0.1,0.2,0.2c0,0.1,0.1,0.2,0.1,0.3c0,0.2-0.1,0.4-0.2,0.5c-0.1,0.1-0.3,0.2-0.5,0.2h0
		c-0.1,0-0.2,0-0.3,0c-0.1,0-0.2,0-0.4-0.1c-0.1,0-0.3-0.1-0.4-0.2C291,132.1,290.8,132,290.7,131.9z"/>
	<path id="XMLID_162_" class="st5" d="M291,131.7c0-0.2,0.1-0.4,0.2-0.5c0.1-0.1,0.3-0.2,0.5-0.2h0.8c0.2,0,0.4,0,0.6,0
		c0.2,0,0.4,0,0.6,0s0.4,0,0.6-0.1c0.2,0,0.4-0.1,0.5-0.2c0.2-0.1,0.3-0.1,0.4-0.2s0.2-0.2,0.3-0.4c0.1-0.2,0.1-0.5,0.1-0.9
		c0-0.4-0.1-0.8-0.3-1.4c-0.1-0.2-0.1-0.3-0.2-0.5c-0.1-0.2-0.1-0.4-0.2-0.5c-0.1-0.2-0.2-0.4-0.2-0.5l1.3-0.6c0,0,0,0.1,0.1,0.2
		c0,0.1,0.1,0.2,0.2,0.4c0.1,0.2,0.1,0.3,0.2,0.6c0.1,0.2,0.2,0.4,0.2,0.7c0.5,1.4,0.5,2.5,0.2,3.3c-0.3,0.8-1,1.3-1.8,1.6
		c-0.1,0-0.3,0.1-0.5,0.1c-0.2,0-0.4,0-0.6,0c-0.2,0-0.4,0-0.6,0c-0.2,0-0.3,0-0.5,0h-1.1h-0.1c-0.2,0-0.4-0.1-0.5-0.2
		C291.1,132.1,291,131.9,291,131.7z M294.7,134.9l-1.2,1.2l-1.2-1.2l1.2-1.2L294.7,134.9z M297.4,134.9l-1.2,1.2l-1.2-1.2l1.2-1.2
		L297.4,134.9z"/>
	<path id="XMLID_166_" class="st5" d="M301.1,132.5l-1.4-0.1c0.1-1.1,0.1-2.2,0.1-3.1c0-1,0-1.9,0-2.7c0-0.8,0-1.6-0.1-2.3
		c0-0.7-0.1-1.2-0.1-1.7c0-0.5-0.1-0.8-0.1-1.1c0-0.3,0-0.4,0-0.4l1.4-0.2c0,0,0,0.3,0.1,0.9c0.1,0.6,0.1,1.2,0.2,2s0.1,1.4,0.1,2
		c0,0.6,0,1.3,0,2c0,0.7,0,1.5,0,2.3C301.2,130.7,301.2,131.6,301.1,132.5z"/>
	<path id="XMLID_168_" class="st5" d="M311.5,131.4c-1.3,0-2.1-0.3-2.6-0.9c-0.1-0.2-0.2-0.3-0.3-0.5c-0.1-0.2-0.1-0.4-0.1-0.6
		c0-0.2,0-0.3,0-0.5s0.1-0.3,0.1-0.4c0.1-0.3,0.3-0.5,0.5-0.8c0.2-0.2,0.4-0.4,0.6-0.6c0.2-0.2,0.4-0.3,0.6-0.5
		c0.2-0.1,0.4-0.3,0.6-0.4c0.2-0.1,0.4-0.2,0.6-0.3c0.2-0.1,0.3-0.1,0.5-0.2c0-0.4-0.1-0.6-0.1-0.8c0-0.2,0-0.3,0-0.3l1.4-0.3v0
		c0,0,0,0.1,0,0.3s0,0.3,0.1,0.5c0,0.2,0,0.4,0.1,0.6c0,0.2,0,0.4,0.1,0.6s0,0.3,0.1,0.5c0,0.1,0,0.2,0,0.3c0.1,0.6,0.1,1.1,0.2,1.5
		s0.1,0.7,0.2,1c0,0.2,0.1,0.4,0.1,0.5c0,0.1,0.1,0.2,0.1,0.2c0.1,0.1,0.1,0.2,0.2,0.3c0.1,0.1,0.2,0.2,0.3,0.2
		c0.1,0.1,0.2,0.1,0.4,0.1c0.1,0,0.3,0,0.5,0c0.2,0,0.4,0.1,0.5,0.2s0.2,0.3,0.2,0.5c0,0.1,0,0.2-0.1,0.3c0,0.1-0.1,0.2-0.2,0.2
		c-0.1,0.1-0.1,0.1-0.2,0.2c-0.1,0-0.2,0.1-0.3,0.1c-0.2,0-0.4,0-0.7,0c-0.3,0-0.5-0.1-0.8-0.2c-0.4-0.2-0.7-0.5-1-0.9
		c-0.3,0-0.6,0.1-0.8,0.1C312,131.4,311.8,131.4,311.5,131.4z M312.2,127.3c-0.1,0-0.3,0.1-0.4,0.2c-0.2,0.1-0.3,0.2-0.5,0.2
		c-0.2,0.1-0.3,0.2-0.5,0.3c-0.2,0.1-0.3,0.2-0.5,0.4c-0.1,0.1-0.2,0.3-0.3,0.4c-0.1,0.1-0.1,0.3-0.1,0.5c0,0.2,0.1,0.3,0.2,0.4
		c0.1,0.1,0.2,0.2,0.4,0.2c0.2,0.1,0.3,0.1,0.5,0.1s0.4,0,0.6,0c0.2,0,0.4,0,0.6,0c0.2,0,0.3,0,0.5-0.1c-0.1-0.3-0.1-0.6-0.2-1
		C312.4,128.4,312.3,127.9,312.2,127.3z"/>
	<path id="XMLID_171_" class="st5" d="M314.8,131.7c0-0.2,0.1-0.4,0.2-0.5c0.1-0.1,0.3-0.2,0.5-0.2h0.1c0.8,0,1.4-0.1,1.8-0.4
		c0.4-0.3,0.6-0.7,0.6-1.3c0-0.1,0-0.3,0-0.5s0-0.4-0.1-0.5c0-0.2-0.1-0.4-0.1-0.6c0-0.2-0.1-0.4-0.1-0.6l1.4-0.4
		c0.1,0.2,0.1,0.4,0.2,0.7s0.1,0.5,0.1,0.7c0,0.2,0.1,0.4,0.1,0.6c0,0.2,0,0.4,0,0.6v0c0,0.2,0,0.4,0.1,0.6c0,0.2,0.1,0.4,0.2,0.6
		c0.1,0.2,0.2,0.3,0.4,0.4c0.2,0.1,0.4,0.2,0.6,0.2c0.1,0,0.2,0,0.3,0.1c0.1,0,0.2,0.1,0.2,0.2c0.1,0.1,0.1,0.1,0.2,0.2
		s0.1,0.2,0.1,0.3c0,0.1,0,0.2-0.1,0.3c0,0.1-0.1,0.2-0.2,0.2c-0.1,0.1-0.1,0.1-0.2,0.2c-0.1,0-0.2,0.1-0.3,0.1
		c-0.2,0-0.5,0-0.7-0.1c-0.2,0-0.4-0.1-0.5-0.2c-0.2-0.1-0.3-0.2-0.4-0.3c-0.1-0.1-0.2-0.2-0.3-0.4c-0.3,0.3-0.7,0.5-1.2,0.7
		c-0.5,0.2-1.1,0.2-1.8,0.2h-0.1c-0.2,0-0.4-0.1-0.5-0.2S314.8,131.9,314.8,131.7z M319.6,124.2l-1.2,1.2l-1.2-1.2l1.2-1.2
		L319.6,124.2z"/>
	<path id="XMLID_174_" class="st5" d="M319.6,131.7c0-0.2,0.1-0.4,0.2-0.5c0.1-0.1,0.3-0.2,0.5-0.2h0.8c0.2,0,0.4,0,0.6,0
		c0.2,0,0.4,0,0.6,0s0.4,0,0.6-0.1c0.2,0,0.4-0.1,0.5-0.2c0.2-0.1,0.3-0.1,0.4-0.2s0.2-0.2,0.3-0.4c0.1-0.2,0.1-0.5,0.1-0.9
		c0-0.4-0.1-0.8-0.3-1.4c-0.1-0.2-0.1-0.3-0.2-0.5c-0.1-0.2-0.1-0.4-0.2-0.5c-0.1-0.2-0.2-0.4-0.2-0.5l1.3-0.6c0,0,0,0.1,0.1,0.2
		c0,0.1,0.1,0.2,0.2,0.4c0.1,0.2,0.1,0.3,0.2,0.6c0.1,0.2,0.2,0.4,0.2,0.7c0.5,1.4,0.5,2.5,0.2,3.3c-0.3,0.8-1,1.3-1.8,1.6
		c-0.1,0-0.3,0.1-0.5,0.1c-0.2,0-0.4,0-0.6,0c-0.2,0-0.4,0-0.6,0c-0.2,0-0.3,0-0.5,0h-1.1h-0.1c-0.2,0-0.4-0.1-0.5-0.2
		C319.7,132.1,319.6,131.9,319.6,131.7z M323.2,134.9l-1.2,1.2l-1.2-1.2l1.2-1.2L323.2,134.9z M326,134.9l-1.2,1.2l-1.2-1.2l1.2-1.2
		L326,134.9z"/>
	<path id="XMLID_178_" class="st5" d="M330.5,132.4c-0.2,0-0.5,0-0.8-0.1c-0.3-0.1-0.6-0.1-1-0.2c-0.3-0.1-0.6-0.2-0.9-0.3
		c-0.3-0.1-0.5-0.2-0.6-0.3l0.6-1.4c0.2,0.1,0.4,0.2,0.7,0.3c0.3,0.1,0.5,0.2,0.8,0.3c0.3,0.1,0.6,0.1,0.9,0.2c0.3,0,0.6,0,0.9,0
		s0.5-0.1,0.8-0.2s0.4-0.2,0.6-0.4c0.1-0.2,0.1-0.4,0.1-0.8c-0.1-0.2-0.1-0.5-0.3-0.8c-0.1-0.3-0.3-0.5-0.4-0.8
		c-0.2-0.3-0.4-0.5-0.6-0.8s-0.4-0.5-0.6-0.7c-0.2-0.2-0.4-0.4-0.7-0.6c-0.2-0.2-0.5-0.3-0.7-0.4l0.6-1.3c0.3,0.1,0.6,0.3,0.9,0.5
		s0.6,0.4,0.9,0.7c0.3,0.3,0.5,0.5,0.8,0.9c0.3,0.3,0.5,0.6,0.7,0.9c0.2,0.3,0.4,0.7,0.5,1s0.3,0.6,0.3,1c0.1,0.3,0.1,0.5,0.1,0.7
		s0,0.4-0.1,0.6c0,0.2-0.1,0.3-0.2,0.4c-0.1,0.1-0.1,0.2-0.2,0.3c-0.4,0.5-1.1,0.9-1.9,1.1c-0.2,0-0.4,0.1-0.6,0.1
		C331,132.4,330.8,132.4,330.5,132.4z"/>
	<path id="XMLID_180_" class="st5" d="M353.9,131.2c-0.2-0.2-0.3-0.5-0.5-0.8c-1.3,1.3-3.3,2-6.1,2c-1.5,0-2.7-0.2-3.7-0.5
		c-1-0.3-1.7-0.9-2.1-1.6c-0.1-0.2-0.3-0.5-0.3-0.7c-0.1-0.3-0.1-0.5-0.1-0.8c0-0.3,0-0.5,0-0.7c0-0.2,0.1-0.5,0.1-0.7
		c0.1-0.2,0.1-0.4,0.2-0.6c0.1-0.2,0.1-0.3,0.2-0.5c0.1-0.1,0.1-0.2,0.1-0.3s0.1-0.1,0.1-0.1l1.3,0.7c0,0,0,0.1-0.1,0.1
		s-0.1,0.2-0.1,0.4c-0.1,0.2-0.1,0.3-0.2,0.5c-0.1,0.2-0.1,0.4-0.1,0.6c0,0.2,0,0.4,0,0.7s0.1,0.4,0.2,0.7c0.3,0.5,0.8,0.9,1.6,1.1
		c0.8,0.3,1.7,0.4,2.9,0.4c1.1,0,2-0.1,2.8-0.3c0.8-0.2,1.4-0.5,1.9-0.9c0.2-0.2,0.4-0.4,0.6-0.6c0.2-0.2,0.3-0.4,0.4-0.7
		c0.1-0.2,0.2-0.5,0.3-0.7s0.1-0.5,0.2-0.7l1.4,0.4c0,0.1-0.1,0.2-0.1,0.3c0,0.1-0.1,0.3-0.1,0.4c-0.1,0.3-0.1,0.5-0.1,0.7
		c0,0.2,0,0.4,0.1,0.7s0.2,0.4,0.3,0.6c0.3,0.4,0.9,0.7,1.7,0.7c0.2,0,0.4,0.1,0.5,0.2c0.1,0.1,0.2,0.3,0.2,0.5s-0.1,0.4-0.2,0.5
		c-0.1,0.1-0.3,0.2-0.5,0.2h-0.1C355.5,132.4,354.5,132,353.9,131.2z M347.8,125.2l-1.2,1.2l-1.2-1.2l1.2-1.2L347.8,125.2z
		 M350.5,125.2l-1.2,1.2l-1.2-1.2l1.2-1.2L350.5,125.2z"/>
	<path id="XMLID_184_" class="st5" d="M355.8,131.7c0-0.2,0.1-0.4,0.2-0.5c0.1-0.1,0.3-0.2,0.5-0.2h0.8c0.2,0,0.4,0,0.6,0
		c0.2,0,0.4,0,0.6,0s0.4,0,0.6-0.1c0.2,0,0.4-0.1,0.5-0.2c0.2-0.1,0.3-0.1,0.4-0.2s0.2-0.2,0.3-0.4c0.1-0.2,0.1-0.5,0.1-0.9
		c0-0.4-0.1-0.8-0.3-1.4c-0.1-0.2-0.1-0.3-0.2-0.5c-0.1-0.2-0.1-0.4-0.2-0.5c-0.1-0.2-0.2-0.4-0.2-0.5l1.3-0.6c0,0,0,0.1,0.1,0.2
		c0,0.1,0.1,0.2,0.2,0.4c0.1,0.2,0.1,0.3,0.2,0.6c0.1,0.2,0.2,0.4,0.2,0.7c0.5,1.4,0.5,2.5,0.2,3.3c-0.3,0.8-1,1.3-1.8,1.6
		c-0.1,0-0.3,0.1-0.5,0.1c-0.2,0-0.4,0-0.6,0c-0.2,0-0.4,0-0.6,0c-0.2,0-0.3,0-0.5,0h-1.1h-0.1c-0.2,0-0.4-0.1-0.5-0.2
		C355.9,132.1,355.8,131.9,355.8,131.7z M359.5,134.9l-1.2,1.2l-1.2-1.2l1.2-1.2L359.5,134.9z M362.3,134.9l-1.2,1.2l-1.2-1.2
		l1.2-1.2L362.3,134.9z"/>
	<path id="XMLID_188_" class="st5" d="M367.4,132.4c-0.5,0-1-0.1-1.4-0.2c-0.4-0.1-0.7-0.3-1-0.6c-0.2-0.2-0.3-0.3-0.4-0.5
		c-0.1-0.2-0.1-0.4-0.2-0.5c0-0.2-0.1-0.4-0.1-0.5c0-0.2,0-0.3,0-0.4v-0.1c0,0,0-0.1,0-0.3c0-0.2,0-0.4,0-0.7c0-0.3,0-0.6,0-1
		s0-0.8,0-1.2c0-0.4,0-0.9,0-1.3c0-0.5,0-0.9,0-1.3c0-0.4,0-0.8-0.1-1.2c0-0.4-0.1-0.7-0.1-0.9l1.4-0.3c0,0.2,0.1,0.6,0.1,0.9
		c0,0.4,0.1,0.8,0.1,1.2c0,0.4,0,0.9,0,1.3c0,0.5,0,0.9,0,1.4c0,0.4,0,0.8,0,1.2c0,0.4,0,0.7,0,1.1c0,0.3,0,0.6,0,0.8
		c0,0.2,0,0.3,0,0.4v0.1c0,0.2,0,0.4,0,0.6c0,0.2,0.1,0.3,0.2,0.4c0.2,0.2,0.6,0.3,1.2,0.4h0.1c0.1,0,0.2,0,0.3,0.1
		c0.1,0,0.2,0.1,0.2,0.2c0.1,0.1,0.1,0.1,0.2,0.2c0,0.1,0.1,0.2,0.1,0.3c0,0.2-0.1,0.4-0.2,0.5S367.6,132.4,367.4,132.4z"/>
	<path id="XMLID_190_" class="st5" d="M366.7,131.7c0-0.1,0-0.2,0.1-0.3c0-0.1,0.1-0.2,0.1-0.2c0.1-0.1,0.1-0.1,0.2-0.2
		s0.2-0.1,0.3-0.1c0.3,0,0.5-0.1,0.8-0.2c0.2-0.1,0.4-0.3,0.6-0.5c0.2-0.2,0.3-0.4,0.5-0.6c0.1-0.2,0.2-0.5,0.3-0.8
		c0.1-0.3,0.2-0.5,0.3-0.8c0.1-0.3,0.1-0.5,0.2-0.8l1.5,0.3c0,0.1-0.1,0.3-0.1,0.5c-0.1,0.2-0.1,0.4-0.2,0.6
		c-0.1,0.2-0.1,0.4-0.1,0.7c0,0.2-0.1,0.4-0.1,0.6c0,0.1,0,0.3,0,0.4c0,0.1,0.1,0.2,0.1,0.3s0.1,0.2,0.2,0.2s0.2,0.1,0.4,0.1
		c0.2,0,0.5-0.1,0.7-0.2c0.2-0.1,0.4-0.3,0.5-0.5c0.2-0.2,0.3-0.5,0.4-0.7s0.2-0.6,0.3-0.8c0.1-0.3,0.1-0.6,0.2-0.8
		c0.1-0.3,0.1-0.5,0.1-0.7l1.4,0.3c-0.1,0.3-0.1,0.6-0.1,0.8c0,0.2-0.1,0.5-0.1,0.7c0,0.3,0,0.5,0,0.7c0,0.2,0,0.4,0,0.5
		c0,0.2,0.1,0.3,0.1,0.4c0.1,0.1,0.1,0.2,0.2,0.3c0.1,0.1,0.2,0.1,0.4,0.1c0.2,0,0.4,0,0.6,0c0.1,0,0.3-0.1,0.4-0.1
		c0.1-0.1,0.2-0.1,0.2-0.2c0-0.1,0.1-0.1,0.1-0.1h0c0.1-0.1,0.1-0.2,0.1-0.4c0-0.1,0-0.3,0-0.4c0-0.3,0-0.6-0.1-0.9
		c-0.1-0.3-0.2-0.6-0.3-0.9c-0.1-0.3-0.2-0.6-0.3-0.9c-0.1-0.3-0.2-0.5-0.3-0.6l1.3-0.7c0,0,0.1,0.1,0.1,0.3
		c0.1,0.1,0.1,0.3,0.2,0.5c0.1,0.2,0.2,0.4,0.3,0.7c0.1,0.3,0.2,0.5,0.3,0.8c0.1,0.3,0.1,0.6,0.2,0.9c0.1,0.3,0.1,0.6,0.1,0.9
		c0,0.4-0.1,0.8-0.2,1.1c-0.1,0.3-0.3,0.6-0.5,0.9c-0.2,0.2-0.5,0.4-0.9,0.6c-0.4,0.1-0.8,0.2-1.2,0.2c-0.2,0-0.4,0-0.6-0.1
		s-0.4-0.1-0.5-0.2c-0.2-0.1-0.3-0.2-0.5-0.4c-0.1-0.1-0.3-0.3-0.4-0.4c-0.3,0.3-0.6,0.6-1,0.8c-0.4,0.2-0.8,0.3-1.2,0.3
		c-0.2,0-0.4,0-0.6-0.1c-0.2,0-0.4-0.1-0.6-0.2s-0.3-0.2-0.5-0.3c-0.1-0.1-0.3-0.3-0.3-0.5c-0.3,0.3-0.6,0.6-1,0.7s-0.8,0.3-1.3,0.3
		h-0.1c-0.1,0-0.2,0-0.3-0.1s-0.2-0.1-0.2-0.2c-0.1-0.1-0.1-0.1-0.1-0.2C366.7,131.9,366.7,131.8,366.7,131.7z"/>
	<path id="XMLID_192_" class="st5" d="M398.3,131.2c-0.2-0.2-0.3-0.5-0.5-0.8c-1.3,1.3-3.3,2-6.1,2c-1.5,0-2.7-0.2-3.7-0.5
		c-1-0.3-1.7-0.9-2.1-1.6c-0.1-0.2-0.3-0.5-0.3-0.7c-0.1-0.3-0.1-0.5-0.1-0.8c0-0.3,0-0.5,0-0.7c0-0.2,0.1-0.5,0.1-0.7
		c0.1-0.2,0.1-0.4,0.2-0.6c0.1-0.2,0.1-0.3,0.2-0.5c0.1-0.1,0.1-0.2,0.1-0.3s0.1-0.1,0.1-0.1l1.3,0.7c0,0,0,0.1-0.1,0.1
		s-0.1,0.2-0.1,0.4c-0.1,0.2-0.1,0.3-0.2,0.5c-0.1,0.2-0.1,0.4-0.1,0.6c0,0.2,0,0.4,0,0.7s0.1,0.4,0.2,0.7c0.3,0.5,0.8,0.9,1.6,1.1
		c0.8,0.3,1.7,0.4,2.9,0.4c1.1,0,2-0.1,2.8-0.3c0.8-0.2,1.4-0.5,1.9-0.9c0.2-0.2,0.4-0.4,0.6-0.6c0.2-0.2,0.3-0.4,0.4-0.7
		c0.1-0.2,0.2-0.5,0.3-0.7s0.1-0.5,0.2-0.7l1.4,0.4c0,0.1-0.1,0.2-0.1,0.3c0,0.1-0.1,0.3-0.1,0.4c-0.1,0.3-0.1,0.5-0.1,0.7
		c0,0.2,0,0.4,0.1,0.7s0.2,0.4,0.3,0.6c0.3,0.4,0.9,0.7,1.7,0.7c0.2,0,0.4,0.1,0.5,0.2c0.1,0.1,0.2,0.3,0.2,0.5s-0.1,0.4-0.2,0.5
		c-0.1,0.1-0.3,0.2-0.5,0.2h-0.1C399.8,132.4,398.9,132,398.3,131.2z M392.1,125.2l-1.2,1.2l-1.2-1.2l1.2-1.2L392.1,125.2z
		 M394.9,125.2l-1.2,1.2l-1.2-1.2l1.2-1.2L394.9,125.2z"/>
	<path id="XMLID_196_" class="st5" d="M400.5,131.7c0-0.2,0.1-0.4,0.2-0.5c0.1-0.1,0.3-0.2,0.5-0.2h0.6c0.4,0,0.8,0,1.2-0.1
		s0.7-0.1,1-0.3c0.3-0.1,0.5-0.3,0.7-0.5c0.2-0.2,0.2-0.5,0.2-0.9c0-0.1,0-0.3,0-0.5c0-0.2,0-0.4-0.1-0.5c0-0.2-0.1-0.4-0.1-0.6
		c0-0.2-0.1-0.4-0.1-0.6l1.4-0.4c0.1,0.2,0.1,0.5,0.2,0.7c0.1,0.2,0.1,0.5,0.1,0.7c0,0.2,0.1,0.4,0.1,0.6c0,0.2,0,0.4,0,0.6v0
		c0,0.2,0,0.4,0,0.6c0,0.2,0.1,0.4,0.2,0.6c0.1,0.2,0.2,0.3,0.4,0.4c0.2,0.1,0.4,0.2,0.6,0.2c0.2,0,0.4,0.1,0.5,0.2s0.2,0.3,0.2,0.5
		c0,0.1,0,0.2-0.1,0.3c0,0.1-0.1,0.2-0.2,0.2c-0.1,0.1-0.1,0.1-0.2,0.2c-0.1,0-0.2,0.1-0.3,0.1c-0.5,0-0.9-0.1-1.2-0.3
		c-0.3-0.2-0.6-0.4-0.8-0.7c-0.2,0.2-0.4,0.3-0.7,0.4c-0.3,0.1-0.6,0.2-0.9,0.3c-0.3,0.1-0.7,0.1-1.1,0.2s-0.7,0.1-1.1,0.1h-0.6
		c-0.2,0-0.4-0.1-0.5-0.2C400.6,132.1,400.5,131.9,400.5,131.7z M403.7,135.2l-1.2,1.2l-1.2-1.2l1.2-1.2L403.7,135.2z M406.5,135.2
		l-1.2,1.2l-1.2-1.2l1.2-1.2L406.5,135.2z"/>
	<path id="XMLID_200_" class="st5" d="M406.9,131.7c0-0.2,0.1-0.4,0.2-0.5c0.1-0.1,0.3-0.2,0.5-0.2h0.1h0.3c0.6,0,0.9-0.1,1.2-0.4
		c0.3-0.3,0.4-0.8,0.4-1.5v-0.2c0-0.2,0-0.6,0-1.2s-0.1-1.3-0.1-2.2c0-0.5,0-1-0.1-1.5c0-0.5-0.1-0.9-0.1-1.2s0-0.6-0.1-0.9
		c0-0.2,0-0.3,0-0.4l1.4-0.2c0,0.1,0,0.2,0,0.5c0,0.2,0,0.5,0.1,0.9s0.1,0.8,0.1,1.2c0,0.5,0.1,1,0.1,1.5c0,0.9,0.1,1.6,0.1,2.2
		c0,0.6,0,1,0,1.2c0,0,0,0.1,0,0.1c0,0,0,0.1,0,0.1c0,0.2,0,0.4,0,0.6c0,0.2,0,0.4-0.1,0.7s-0.1,0.4-0.2,0.7
		c-0.1,0.2-0.2,0.4-0.4,0.6c-0.5,0.5-1.3,0.8-2.2,0.8h-0.3h-0.1c-0.2,0-0.4-0.1-0.5-0.2C406.9,132.1,406.9,131.9,406.9,131.7z"/>
	<path id="XMLID_202_" class="st5" d="M416.3,132.4c-0.5,0-1-0.1-1.4-0.2c-0.4-0.1-0.7-0.3-1-0.6c-0.2-0.2-0.3-0.3-0.4-0.5
		c-0.1-0.2-0.1-0.4-0.2-0.5c0-0.2-0.1-0.4-0.1-0.5c0-0.2,0-0.3,0-0.4v-0.1c0,0,0-0.1,0-0.3c0-0.2,0-0.4,0-0.7c0-0.3,0-0.6,0-1
		s0-0.8,0-1.2c0-0.4,0-0.9,0-1.3c0-0.5,0-0.9,0-1.3c0-0.4,0-0.8-0.1-1.2c0-0.4-0.1-0.7-0.1-0.9l1.4-0.3c0,0.2,0.1,0.6,0.1,0.9
		c0,0.4,0.1,0.8,0.1,1.2c0,0.4,0,0.9,0,1.3c0,0.5,0,0.9,0,1.4c0,0.4,0,0.8,0,1.2c0,0.4,0,0.7,0,1.1c0,0.3,0,0.6,0,0.8
		c0,0.2,0,0.3,0,0.4v0.1c0,0.2,0,0.4,0,0.6c0,0.2,0.1,0.3,0.2,0.4c0.2,0.2,0.6,0.3,1.2,0.4h0.1c0.1,0,0.2,0,0.3,0.1
		c0.1,0,0.2,0.1,0.2,0.2c0.1,0.1,0.1,0.1,0.2,0.2c0,0.1,0.1,0.2,0.1,0.3c0,0.2-0.1,0.4-0.2,0.5S416.5,132.4,416.3,132.4z"/>
	<path id="XMLID_204_" class="st5" d="M424.6,131c0.1,0,0.2,0,0.3,0.1s0.2,0.1,0.2,0.2c0.1,0.1,0.1,0.1,0.2,0.2
		c0,0.1,0.1,0.2,0.1,0.3c0,0.2-0.1,0.4-0.2,0.5s-0.3,0.2-0.5,0.2c-0.8,0-1.5-0.1-2.2-0.2c-0.7-0.1-1.3-0.4-1.8-0.7
		c-0.3,0.1-0.6,0.3-1,0.4c-0.4,0.1-0.7,0.2-1.1,0.3c-0.4,0.1-0.8,0.1-1.2,0.2c-0.4,0-0.8,0.1-1.1,0.1c-0.2,0-0.4-0.1-0.5-0.2
		c-0.1-0.1-0.2-0.3-0.2-0.5c0-0.1,0-0.2,0.1-0.3s0.1-0.2,0.2-0.2c0.1-0.1,0.1-0.1,0.2-0.2s0.2-0.1,0.3-0.1c0.2,0,0.5,0,0.8,0
		c0.3,0,0.6-0.1,0.8-0.1c0.3,0,0.5-0.1,0.8-0.1c0.2-0.1,0.5-0.1,0.6-0.2c-0.2-0.2-0.4-0.4-0.6-0.6c-0.2-0.2-0.4-0.4-0.6-0.7
		c-0.2-0.2-0.4-0.5-0.6-0.7s-0.4-0.5-0.6-0.7l0.1-1c0.2-0.2,0.5-0.4,0.8-0.6c0.3-0.2,0.5-0.3,0.8-0.4c0.3-0.1,0.5-0.2,0.8-0.2
		c0.2-0.1,0.5-0.1,0.7-0.1c0.5-0.1,1,0,1.5,0c0.5,0.1,0.9,0.2,1.3,0.3c0.3,0.1,0.5,0.2,0.6,0.4c0.2,0.1,0.3,0.3,0.4,0.4
		s0.1,0.3,0.2,0.4c0,0.1,0,0.2,0,0.3c0,0.2,0,0.5-0.1,0.8c-0.1,0.3-0.3,0.6-0.5,0.9c-0.2,0.3-0.4,0.6-0.7,0.8
		c-0.2,0.3-0.5,0.5-0.8,0.7c0.3,0.1,0.7,0.2,1.2,0.3C423.7,130.9,424.1,131,424.6,131z M420.7,129.8c0.1-0.1,0.3-0.2,0.4-0.3
		c0.1-0.1,0.3-0.3,0.4-0.4c0.1-0.1,0.3-0.3,0.4-0.5c0.1-0.2,0.2-0.3,0.3-0.5c0.1-0.1,0.2-0.3,0.2-0.4c0.1-0.1,0.1-0.2,0.1-0.3
		c-0.3-0.2-0.5-0.3-0.9-0.4c-0.3-0.1-0.7-0.1-1-0.1s-0.7,0-1.1,0.1s-0.7,0.2-1,0.4c0.4,0.5,0.8,0.9,1.1,1.3
		C420,129.2,420.3,129.5,420.7,129.8z"/>
	<path id="XMLID_207_" class="st5" d="M423.8,131.7c0-0.2,0.1-0.4,0.2-0.5s0.3-0.2,0.5-0.2c0.5,0,1,0,1.5-0.1
		c0.5-0.1,0.9-0.1,1.2-0.2c0.4-0.1,0.7-0.2,0.9-0.3c0.3-0.1,0.4-0.2,0.5-0.3c0.1-0.1,0.1-0.1,0.2-0.1s0.1-0.1,0.1-0.1h-0.7
		c-0.3,0-0.5,0-0.8-0.1c-0.3,0-0.5-0.1-0.7-0.2c-0.2-0.1-0.4-0.2-0.6-0.3c-0.2-0.1-0.3-0.3-0.5-0.4c-0.1-0.1-0.1-0.2-0.2-0.3
		c-0.1-0.1-0.1-0.3-0.2-0.4c0-0.2-0.1-0.3-0.1-0.5c0-0.2,0-0.4,0-0.7c0.1-0.4,0.2-0.7,0.3-1c0.1-0.3,0.3-0.6,0.5-0.8
		c0.2-0.3,0.5-0.5,0.7-0.7s0.6-0.2,0.8-0.2c0.6,0,1.2,0.3,1.8,0.9c0.2,0.2,0.4,0.5,0.6,0.9c0.2,0.3,0.3,0.7,0.4,1.1
		c0.1,0.4,0.2,0.8,0.2,1.2c0,0.4,0,0.8,0,1.2h0c0,0.2-0.1,0.4-0.1,0.6c0,0.1,0,0.1-0.1,0.2c0,0.1-0.1,0.2-0.1,0.3
		c-0.1,0.1-0.2,0.3-0.3,0.4c-0.1,0.1-0.3,0.3-0.4,0.4c-0.2,0.2-0.5,0.3-0.9,0.5c-0.4,0.1-0.8,0.3-1.2,0.4c-0.4,0.1-0.9,0.2-1.4,0.2
		s-1,0.1-1.5,0.1h-0.1c-0.2,0-0.4-0.1-0.5-0.2C423.9,132.1,423.8,131.9,423.8,131.7z M428.7,121.6l-1.2,1.2l-1.2-1.2l1.2-1.2
		L428.7,121.6z M427.7,125.6c-0.1,0-0.1,0-0.2,0.1c-0.1,0.1-0.2,0.2-0.3,0.3c-0.1,0.1-0.2,0.3-0.3,0.5c-0.1,0.2-0.1,0.4-0.2,0.7
		c-0.1,0.4,0,0.6,0.1,0.8c0.1,0.1,0.2,0.2,0.4,0.3c0.2,0.1,0.4,0.1,0.7,0.1c0.3,0,0.5,0,0.7,0c0.2,0,0.4,0,0.6,0
		c0-0.5-0.1-0.9-0.3-1.3c-0.1-0.4-0.3-0.8-0.6-1c-0.1-0.1-0.2-0.2-0.3-0.3C428,125.7,427.9,125.6,427.7,125.6z"/>
</g>
<g id="XMLID_12_">
	<path id="XMLID_14_" class="st5" d="M128.9,132.4c-0.2,0-0.5,0-0.8-0.1s-0.6-0.1-1-0.2c-0.3-0.1-0.6-0.2-0.9-0.3
		c-0.3-0.1-0.5-0.2-0.6-0.3l0.6-1.4c0.2,0.1,0.4,0.2,0.7,0.3c0.3,0.1,0.5,0.2,0.8,0.3c0.3,0.1,0.6,0.1,0.9,0.2c0.3,0,0.6,0,0.9,0
		s0.5-0.1,0.8-0.2s0.4-0.2,0.6-0.4c0.1-0.2,0.1-0.4,0.1-0.8c-0.1-0.2-0.1-0.5-0.3-0.8c-0.1-0.3-0.3-0.5-0.4-0.8
		c-0.2-0.3-0.4-0.5-0.6-0.8s-0.4-0.5-0.6-0.7c-0.2-0.2-0.4-0.4-0.7-0.6c-0.2-0.2-0.5-0.3-0.7-0.4l0.6-1.3c0.3,0.1,0.6,0.3,0.9,0.5
		s0.6,0.4,0.9,0.7s0.5,0.5,0.8,0.9c0.3,0.3,0.5,0.6,0.7,0.9c0.2,0.3,0.4,0.7,0.5,1s0.3,0.6,0.3,1c0.1,0.3,0.1,0.5,0.1,0.7
		s0,0.4-0.1,0.6s-0.1,0.3-0.2,0.4s-0.1,0.2-0.2,0.3c-0.4,0.5-1.1,0.9-1.9,1.1c-0.2,0-0.4,0.1-0.6,0.1
		C129.3,132.4,129.1,132.4,128.9,132.4z"/>
	<path id="XMLID_16_" class="st5" d="M134.1,137.5l-0.3-1.4c0.8-0.2,1.4-0.4,2-0.6s1.1-0.6,1.5-0.9c0.4-0.3,0.8-0.7,1-1.1
		c0.2-0.4,0.4-0.8,0.5-1.1c-0.2,0-0.4,0-0.7,0c-0.3,0-0.6,0-0.8,0c-1.1-0.1-1.8-0.4-2.4-1c-0.2-0.3-0.4-0.6-0.4-1
		c-0.1-0.4-0.1-0.8,0-1.1c0.1-0.4,0.2-0.8,0.3-1.1c0.2-0.4,0.3-0.7,0.5-0.9c0.2-0.3,0.5-0.5,0.8-0.7c0.3-0.2,0.6-0.2,0.9-0.2
		c0.7,0,1.3,0.3,1.9,0.9c0.2,0.2,0.4,0.5,0.6,0.8c0.2,0.3,0.3,0.6,0.4,0.9c0.1,0.3,0.2,0.7,0.3,1c0.1,0.4,0.1,0.7,0.1,1.1h0.5
		c0.1,0,0.2,0,0.3,0.1c0.1,0,0.2,0.1,0.2,0.2c0.1,0.1,0.1,0.1,0.2,0.2s0.1,0.2,0.1,0.3c0,0.1,0,0.2-0.1,0.3c0,0.1-0.1,0.2-0.2,0.2
		c-0.1,0.1-0.1,0.1-0.2,0.2c-0.1,0-0.2,0.1-0.3,0.1h-0.7c-0.1,0.7-0.4,1.4-0.8,2c-0.4,0.6-0.8,1.1-1.4,1.5c-0.5,0.4-1.2,0.8-1.8,1.1
		S134.8,137.4,134.1,137.5z M136.9,127.6c-0.1,0-0.3,0.1-0.4,0.2c-0.1,0.1-0.2,0.3-0.3,0.4s-0.2,0.4-0.3,0.6
		c-0.1,0.2-0.1,0.4-0.1,0.6c0,0.2,0,0.4,0,0.6c0,0.2,0.1,0.3,0.2,0.4c0.1,0.1,0.2,0.2,0.3,0.2c0.1,0.1,0.2,0.1,0.4,0.1
		c0.1,0,0.2,0.1,0.4,0.1c0.1,0,0.2,0,0.3,0c0.3,0,0.6,0,0.8,0c0.3,0,0.5,0,0.7,0c0-0.3-0.1-0.6-0.1-0.9c-0.1-0.3-0.1-0.5-0.2-0.8
		c-0.1-0.2-0.2-0.5-0.3-0.6c-0.1-0.2-0.2-0.4-0.4-0.5c0,0-0.1-0.1-0.2-0.2c-0.1-0.1-0.1-0.1-0.2-0.2c-0.1,0-0.1-0.1-0.2-0.1
		C137.1,127.7,137,127.6,136.9,127.6z"/>
	<path id="XMLID_19_" class="st5" d="M140.1,131.7c0-0.1,0-0.2,0.1-0.3c0-0.1,0.1-0.2,0.1-0.2c0.1-0.1,0.1-0.1,0.2-0.2
		s0.2-0.1,0.3-0.1c0.3,0,0.5-0.1,0.8-0.2c0.2-0.1,0.4-0.3,0.6-0.5c0.2-0.2,0.3-0.4,0.5-0.6c0.1-0.2,0.2-0.5,0.3-0.8
		c0.1-0.3,0.2-0.5,0.3-0.8c0.1-0.3,0.1-0.5,0.2-0.8l1.5,0.3c0,0.1-0.1,0.3-0.1,0.5c-0.1,0.2-0.1,0.4-0.2,0.6
		c-0.1,0.2-0.1,0.4-0.1,0.7c0,0.2-0.1,0.4-0.1,0.6c0,0.1,0,0.3,0,0.4c0,0.1,0.1,0.2,0.1,0.3s0.1,0.2,0.2,0.2s0.2,0.1,0.4,0.1
		c0.2,0,0.5-0.1,0.7-0.2c0.2-0.1,0.4-0.3,0.5-0.5c0.2-0.2,0.3-0.5,0.4-0.7s0.2-0.6,0.3-0.8c0.1-0.3,0.1-0.6,0.2-0.8
		c0.1-0.3,0.1-0.5,0.1-0.7l1.4,0.3c-0.1,0.3-0.1,0.6-0.1,0.8c0,0.2-0.1,0.5-0.1,0.7c0,0.3,0,0.5,0,0.7c0,0.2,0,0.4,0,0.5
		c0,0.2,0.1,0.3,0.1,0.4c0.1,0.1,0.1,0.2,0.2,0.3c0.1,0.1,0.2,0.1,0.4,0.1c0.2,0,0.4,0,0.6,0c0.1,0,0.3-0.1,0.4-0.1
		c0.1-0.1,0.2-0.1,0.2-0.2s0.1-0.1,0.1-0.1h0c0.1-0.1,0.1-0.2,0.1-0.4s0-0.3,0-0.4c0-0.3,0-0.6-0.1-0.9s-0.2-0.6-0.3-0.9
		c-0.1-0.3-0.2-0.6-0.3-0.9c-0.1-0.3-0.2-0.5-0.3-0.6l1.3-0.7c0,0,0.1,0.1,0.1,0.3c0.1,0.1,0.1,0.3,0.2,0.5c0.1,0.2,0.2,0.4,0.3,0.7
		c0.1,0.3,0.2,0.5,0.3,0.8c0.1,0.3,0.1,0.6,0.2,0.9c0.1,0.3,0.1,0.6,0.1,0.9c0,0.4-0.1,0.8-0.2,1.1c-0.1,0.3-0.3,0.6-0.5,0.9
		c-0.2,0.2-0.5,0.4-0.9,0.6c-0.4,0.1-0.8,0.2-1.2,0.2c-0.2,0-0.4,0-0.6-0.1s-0.4-0.1-0.5-0.2c-0.2-0.1-0.3-0.2-0.5-0.4
		c-0.1-0.1-0.3-0.3-0.4-0.4c-0.3,0.3-0.6,0.6-1,0.8c-0.4,0.2-0.8,0.3-1.2,0.3c-0.2,0-0.4,0-0.6-0.1c-0.2,0-0.4-0.1-0.6-0.2
		s-0.3-0.2-0.5-0.3c-0.1-0.1-0.3-0.3-0.3-0.5c-0.3,0.3-0.6,0.6-1,0.7s-0.8,0.3-1.3,0.3h-0.1c-0.1,0-0.2,0-0.3-0.1s-0.2-0.1-0.2-0.2
		c-0.1-0.1-0.1-0.1-0.1-0.2C140.1,131.9,140.1,131.8,140.1,131.7z M144.9,123.9l1.2-1.2l1.2,1.2l-1.2,1.2L144.9,123.9z M146.6,121.8
		l1.1-1.1l1.1,1.1l-1.1,1.1L146.6,121.8z M147.9,123.9l1.2-1.2l1.2,1.2l-1.2,1.2L147.9,123.9z"/>
	<path id="XMLID_24_" class="st5" d="M164.3,137.2c-0.4,0-0.9,0-1.3-0.1c-0.5,0-0.9-0.1-1.3-0.3c-0.4-0.1-0.8-0.3-1.2-0.5
		c-0.4-0.2-0.6-0.5-0.9-0.9c-0.5-0.8-0.8-1.8-0.7-3c0-0.7,0.2-1.4,0.4-2.2s0.5-1.7,0.9-2.6l1.3,0.5c-0.6,1.5-1,2.8-1.1,3.9
		c-0.1,1.1,0,1.9,0.4,2.5c0.2,0.3,0.4,0.5,0.7,0.7c0.3,0.2,0.6,0.3,0.9,0.3c0.3,0.1,0.6,0.1,1,0.1c0.3,0,0.6,0,0.8,0
		c0.1,0,0.3,0,0.6,0c0.3,0,0.5-0.1,0.8-0.1s0.6-0.1,0.9-0.2c0.3-0.1,0.6-0.2,0.9-0.3c0.3-0.1,0.5-0.3,0.6-0.5
		c0.2-0.2,0.2-0.4,0.2-0.6c0-0.1,0-0.1-0.1-0.2c-0.1-0.1-0.1-0.2-0.3-0.3c-0.1-0.1-0.3-0.2-0.5-0.3s-0.4-0.2-0.7-0.3
		c-0.2-0.1-0.3-0.1-0.5-0.2c-0.2-0.1-0.3-0.1-0.5-0.1c-0.1,0-0.3-0.1-0.4-0.1s-0.2-0.1-0.3-0.1l-0.2,0l0.1-1.4l5.6,0
		c0.2,0,0.4,0.1,0.5,0.2s0.2,0.3,0.2,0.5s-0.1,0.4-0.2,0.5s-0.3,0.2-0.5,0.2H169c0.2,0.1,0.3,0.3,0.4,0.4c0.1,0.1,0.2,0.3,0.2,0.4
		s0.1,0.3,0.1,0.4s0,0.2,0,0.3c0,0.4-0.1,0.8-0.3,1.1s-0.4,0.6-0.7,0.8s-0.6,0.4-1,0.6c-0.4,0.2-0.8,0.3-1.2,0.4
		c-0.4,0.1-0.8,0.2-1.2,0.2C165,137.2,164.6,137.2,164.3,137.2z"/>
	<path id="XMLID_26_" class="st5" d="M169.9,131.7c0-0.2,0.1-0.4,0.2-0.5c0.1-0.1,0.3-0.2,0.5-0.2h0c0.4,0,0.8-0.1,1-0.2
		c0.3-0.1,0.5-0.3,0.7-0.5c0.2-0.2,0.4-0.5,0.5-0.8c0.2-0.3,0.3-0.6,0.5-0.9c0.1-0.3,0.3-0.5,0.4-0.8s0.3-0.5,0.4-0.7
		c0.4-0.5,1-0.8,1.6-0.8c0.7,0,1.4,0.3,1.8,0.9c0.4,0.5,0.6,1.1,0.7,1.8c0,0.3,0.1,0.7,0,1s-0.1,0.6-0.2,0.9
		c-0.1,0.4-0.3,0.6-0.6,0.9c-0.2,0.2-0.5,0.4-0.8,0.5c-0.5,0.1-1.2,0.1-1.9-0.2c-0.5-0.2-1-0.5-1.5-0.8c0,0-0.1,0.1-0.1,0.1
		c-0.7,0.8-1.7,1.1-2.8,1.1h0c-0.2,0-0.4-0.1-0.5-0.2C169.9,132.1,169.9,131.9,169.9,131.7z M174.3,130c0.4,0.3,0.8,0.6,1.2,0.7
		s0.7,0.2,0.9,0.1c0.1,0,0.2-0.1,0.2-0.2s0.1-0.2,0.2-0.4s0.1-0.3,0.1-0.5c0-0.2,0-0.4,0-0.6c0,0,0-0.1,0-0.2c0-0.1,0-0.2-0.1-0.3
		c0-0.1-0.1-0.2-0.1-0.3c-0.1-0.1-0.1-0.2-0.2-0.3c-0.1-0.1-0.2-0.2-0.3-0.2c-0.1-0.1-0.2-0.1-0.4-0.1c-0.1,0-0.2,0-0.3,0.1
		c-0.1,0.1-0.2,0.1-0.3,0.3s-0.2,0.3-0.3,0.4c-0.1,0.2-0.2,0.4-0.3,0.6L174.3,130z"/>
	<path id="XMLID_29_" class="st5" d="M188.2,127.6c0.1,0.5,0.3,0.9,0.4,1.3c0,0.2,0.1,0.4,0.2,0.6s0.1,0.4,0.2,0.6
		c0,0.2,0.1,0.4,0.1,0.6c0,0.2,0.1,0.4,0.1,0.5c0,0.1,0,0.1,0,0.2c0,0.1,0,0.1,0,0.2c0,0.4-0.1,0.8-0.2,1.2
		c-0.1,0.4-0.3,0.8-0.5,1.2c-0.2,0.4-0.5,0.7-0.8,1.1c-0.3,0.3-0.6,0.7-1,0.9c-0.4,0.3-0.7,0.6-1.1,0.8s-0.8,0.5-1.2,0.7l-0.6-1.3
		c0.5-0.3,1-0.5,1.5-0.9c0.5-0.3,0.9-0.7,1.3-1.1s0.7-0.8,0.9-1.3s0.3-0.9,0.3-1.4c0,0,0-0.1,0-0.1c0-0.1,0-0.1,0-0.2v0
		c0-0.2,0-0.3-0.1-0.5c0-0.2-0.1-0.4-0.1-0.5c0-0.2-0.1-0.4-0.1-0.6c0-0.2-0.1-0.4-0.1-0.5c-0.1-0.4-0.2-0.8-0.4-1.2L188.2,127.6z
		 M188.7,124.7l-1.2,1.2l-1.2-1.2l1.2-1.2L188.7,124.7z"/>
	<path id="XMLID_32_" class="st5" d="M194.4,132.4c-0.5,0-1-0.1-1.4-0.2s-0.7-0.3-1-0.6c-0.2-0.2-0.3-0.3-0.4-0.5
		c-0.1-0.2-0.1-0.4-0.2-0.5c0-0.2-0.1-0.4-0.1-0.5c0-0.2,0-0.3,0-0.4v-0.1c0,0,0-0.1,0-0.3c0-0.2,0-0.4,0-0.7c0-0.3,0-0.6,0-1
		s0-0.8,0-1.2c0-0.4,0-0.9,0-1.3c0-0.5,0-0.9,0-1.3c0-0.4,0-0.8-0.1-1.2c0-0.4-0.1-0.7-0.1-0.9l1.4-0.3c0,0.2,0.1,0.6,0.1,0.9
		c0,0.4,0.1,0.8,0.1,1.2c0,0.4,0,0.9,0,1.3c0,0.5,0,0.9,0,1.4c0,0.4,0,0.8,0,1.2c0,0.4,0,0.7,0,1.1c0,0.3,0,0.6,0,0.8
		c0,0.2,0,0.3,0,0.4v0.1c0,0.2,0,0.4,0,0.6c0,0.2,0.1,0.3,0.2,0.4c0.2,0.2,0.6,0.3,1.2,0.4h0.1c0.1,0,0.2,0,0.3,0.1
		c0.1,0,0.2,0.1,0.2,0.2c0.1,0.1,0.1,0.1,0.2,0.2s0.1,0.2,0.1,0.3c0,0.2-0.1,0.4-0.2,0.5S194.6,132.4,194.4,132.4z"/>
	<path id="XMLID_34_" class="st5" d="M200.8,128c-0.2-0.2-0.4-0.3-0.6-0.5c-0.2-0.1-0.4-0.2-0.7-0.3s-0.6-0.2-0.9-0.2
		c-0.3,0-0.5,0-0.7,0.1c-0.2,0.1-0.4,0.2-0.5,0.4c-0.1,0.2-0.3,0.3-0.3,0.6c-0.1,0.2-0.1,0.4-0.1,0.6c0,0.3,0.1,0.6,0.2,0.8
		c0.1,0.3,0.3,0.5,0.5,0.6c0.2,0.2,0.5,0.3,0.8,0.4s0.6,0.1,0.9,0.1c0.3,0,0.6,0,0.8-0.1c0.3,0,0.5-0.1,0.7-0.1
		c0.2,0,0.5-0.1,0.7-0.1l0.2,1.4c-0.3,0.1-0.6,0.1-0.9,0.2c-0.3,0.1-0.8,0.1-1.2,0.2s-1,0.1-1.6,0.1s-1.3,0.1-2.1,0.1l-1.6,0
		c-0.2,0-0.4-0.1-0.5-0.2s-0.2-0.3-0.2-0.5s0.1-0.4,0.2-0.5s0.3-0.2,0.5-0.2l2.1,0c-0.4-0.3-0.6-0.7-0.8-1c-0.1-0.4-0.2-0.8-0.2-1.2
		c0-0.4,0.1-0.8,0.2-1.2c0.2-0.4,0.4-0.7,0.7-1s0.6-0.5,1-0.7c0.4-0.2,0.8-0.3,1.3-0.3c0.2,0,0.4,0,0.7,0.1c0.2,0,0.4,0.1,0.6,0.2
		s0.4,0.1,0.5,0.2s0.3,0.2,0.4,0.2c0.3,0.2,0.6,0.4,0.8,0.7L200.8,128z M199.3,122.7l-1.2,1.2l-1.2-1.2l1.2-1.2L199.3,122.7z"/>
	<path id="XMLID_37_" class="st5" d="M202.4,120.3C202.4,120.3,202.4,120.2,202.4,120.3c0.1-0.2,0.1-0.2,0.1-0.3
		c0-0.1,0.1-0.2,0.1-0.2c0-0.1,0.1-0.2,0.1-0.2c0.2-0.2,0.3-0.4,0.5-0.6c0.2-0.1,0.4-0.2,0.6-0.3c0,0,0.1,0,0.2,0c0.1,0,0.1,0,0.2,0
		c0.2,0,0.4,0,0.6,0.1s0.3,0.1,0.5,0.2c0.1,0.1,0.3,0.1,0.4,0.1s0.3,0.1,0.4,0.1c0.1,0,0.2,0,0.3-0.1s0.2-0.1,0.3-0.2
		c0.1-0.1,0.2-0.2,0.2-0.2c0.1-0.1,0.1-0.1,0.1-0.2l0.8,0.5c0,0,0,0-0.1,0.1s-0.1,0.1-0.2,0.2c-0.1,0.1-0.2,0.2-0.3,0.3
		c-0.1,0.1-0.2,0.2-0.4,0.3c-0.1,0.1-0.3,0.2-0.5,0.2s-0.3,0.1-0.5,0.1c-0.2,0-0.4,0-0.5-0.1c-0.2,0-0.3-0.1-0.5-0.2l-0.1,0
		c-0.2-0.1-0.3-0.1-0.4-0.1s-0.3,0-0.4,0c-0.1,0-0.2,0.1-0.2,0.1c-0.1,0.1-0.1,0.2-0.2,0.3c-0.1,0.1-0.1,0.2-0.2,0.3
		c0,0.1-0.1,0.2-0.1,0.2L202.4,120.3z M205.8,132.5l-1.4-0.1c0.1-1.1,0.1-2.2,0.1-3.1c0-1,0-1.9,0-2.7c0-0.8-0.1-1.5-0.1-2.1
		c0-0.5-0.1-1-0.1-1.5s-0.1-0.8-0.1-1.1c0-0.3,0-0.4,0-0.4l1.4-0.2c0,0,0,0.3,0.1,0.9c0.1,0.6,0.1,1.1,0.2,1.7
		c0,0.6,0.1,1.2,0.1,1.8c0,0.6,0,1.3,0,2c0,0.7,0,1.5,0,2.3C205.9,130.7,205.9,131.6,205.8,132.5z"/>
	<path id="XMLID_40_" class="st5" d="M222.3,126.3c0.3-0.1,0.7-0.1,1-0.1s0.6,0.1,0.8,0.1s0.4,0.1,0.6,0.2s0.2,0.1,0.2,0.1l-0.6,1.3
		c-0.2-0.1-0.4-0.1-0.5-0.2c-0.1,0-0.3-0.1-0.5-0.1c-0.2,0-0.4,0-0.6,0c-0.2,0-0.4,0.1-0.6,0.2s-0.4,0.2-0.6,0.4
		c-0.2,0.2-0.4,0.4-0.6,0.6c-0.2,0.2-0.3,0.4-0.4,0.7c-0.1,0.2-0.2,0.5-0.2,0.7s0,0.5,0.1,0.7c0.1,0.2,0.2,0.3,0.3,0.4
		c0.2,0.1,0.3,0.2,0.6,0.3s0.4,0.1,0.7,0.2s0.5,0.1,0.7,0.2c0.2,0.1,0.5,0.2,0.7,0.3c0.2,0.1,0.4,0.2,0.6,0.4
		c0.2,0.2,0.3,0.4,0.3,0.6c0.1,0.3,0.1,0.6,0,0.9c-0.1,0.5-0.3,0.9-0.6,1.3c-0.3,0.4-0.8,0.7-1.4,1c-0.5,0.3-1.1,0.5-1.8,0.6
		c-0.7,0.1-1.4,0.2-2.2,0.2c-0.9,0-1.7-0.1-2.4-0.4c-0.7-0.3-1.3-0.7-1.7-1.2c-0.4-0.5-0.7-1-0.8-1.6c-0.2-0.6-0.2-1.3-0.1-2
		c0-0.3,0.1-0.6,0.2-1c0.1-0.3,0.1-0.7,0.2-1c0.1-0.3,0.2-0.6,0.2-0.9c0.1-0.3,0.2-0.5,0.2-0.8s0.1-0.4,0.2-0.5s0.1-0.2,0.1-0.2
		l1.4,0.5c-0.2,0.7-0.4,1.4-0.6,2s-0.3,1.4-0.4,2.1c0,0.2,0,0.4,0,0.6c0,0.2,0,0.4,0.1,0.6c0,0.2,0.1,0.4,0.2,0.6
		c0.1,0.2,0.2,0.4,0.4,0.6c0.3,0.4,0.7,0.6,1.2,0.8c0.5,0.2,1.1,0.3,1.8,0.3c0.7,0,1.3-0.1,1.9-0.2c0.6-0.1,1-0.3,1.4-0.4
		c0.4-0.2,0.7-0.4,0.9-0.6c0.2-0.2,0.3-0.5,0.4-0.7c0-0.1,0-0.2-0.1-0.3s-0.2-0.1-0.4-0.2s-0.3-0.1-0.6-0.2c-0.2,0-0.4-0.1-0.7-0.2
		c-0.2-0.1-0.5-0.1-0.7-0.2c-0.2-0.1-0.4-0.2-0.6-0.3c-0.2-0.1-0.4-0.3-0.5-0.5c-0.1-0.2-0.2-0.4-0.3-0.7c-0.1-0.4-0.1-0.8-0.1-1.2
		c0-0.4,0.1-0.8,0.3-1.1c0.1-0.4,0.3-0.7,0.5-1c0.2-0.3,0.5-0.6,0.8-0.9c0.3-0.3,0.6-0.5,1-0.7C221.6,126.5,221.9,126.4,222.3,126.3
		z"/>
	<path id="XMLID_42_" class="st5" d="M229.2,132.4c-0.2,0-0.5,0-0.8-0.1s-0.6-0.1-1-0.2c-0.3-0.1-0.6-0.2-0.9-0.3
		c-0.3-0.1-0.5-0.2-0.6-0.3l0.6-1.4c0.2,0.1,0.4,0.2,0.7,0.3c0.3,0.1,0.5,0.2,0.8,0.3c0.3,0.1,0.6,0.1,0.9,0.2c0.3,0,0.6,0,0.9,0
		s0.5-0.1,0.8-0.2s0.4-0.2,0.6-0.4c0.1-0.2,0.1-0.4,0.1-0.8c-0.1-0.2-0.1-0.5-0.3-0.8c-0.1-0.3-0.3-0.5-0.4-0.8
		c-0.2-0.3-0.4-0.5-0.6-0.8s-0.4-0.5-0.6-0.7c-0.2-0.2-0.4-0.4-0.7-0.6c-0.2-0.2-0.5-0.3-0.7-0.4l0.6-1.3c0.3,0.1,0.6,0.3,0.9,0.5
		s0.6,0.4,0.9,0.7s0.5,0.5,0.8,0.9c0.3,0.3,0.5,0.6,0.7,0.9c0.2,0.3,0.4,0.7,0.5,1s0.3,0.6,0.3,1c0.1,0.3,0.1,0.5,0.1,0.7
		s0,0.4-0.1,0.6s-0.1,0.3-0.2,0.4s-0.1,0.2-0.2,0.3c-0.4,0.5-1.1,0.9-1.9,1.1c-0.2,0-0.4,0.1-0.6,0.1
		C229.6,132.4,229.4,132.4,229.2,132.4z"/>
	<path id="XMLID_44_" class="st5" d="M234.3,137.5l-0.3-1.4c0.8-0.2,1.4-0.4,2-0.6s1.1-0.6,1.5-0.9c0.4-0.3,0.8-0.7,1-1.1
		c0.2-0.4,0.4-0.8,0.5-1.1c-0.2,0-0.4,0-0.7,0c-0.3,0-0.6,0-0.8,0c-1.1-0.1-1.8-0.4-2.4-1c-0.2-0.3-0.4-0.6-0.4-1
		c-0.1-0.4-0.1-0.8,0-1.1c0.1-0.4,0.2-0.8,0.3-1.1c0.2-0.4,0.3-0.7,0.5-0.9c0.2-0.3,0.5-0.5,0.8-0.7c0.3-0.2,0.6-0.2,0.9-0.2
		c0.7,0,1.3,0.3,1.9,0.9c0.2,0.3,0.5,0.6,0.7,0.9c0.2,0.4,0.3,0.7,0.5,1.2s0.2,0.8,0.2,1.3c0,0.4,0,0.9,0,1.3
		c-0.1,0.5-0.2,1-0.4,1.5c-0.2,0.5-0.4,0.9-0.7,1.3c-0.3,0.4-0.6,0.8-1,1.1c-0.4,0.3-0.8,0.6-1.2,0.8c-0.4,0.2-0.9,0.4-1.4,0.6
		C235.3,137.3,234.8,137.5,234.3,137.5z M237.2,127.6c-0.1,0-0.3,0.1-0.4,0.2c-0.1,0.1-0.2,0.3-0.3,0.4c-0.1,0.2-0.2,0.4-0.3,0.6
		c-0.1,0.2-0.1,0.4-0.1,0.6c0,0.2,0,0.4,0,0.6c0,0.2,0.1,0.3,0.2,0.4c0.1,0.1,0.2,0.2,0.3,0.2c0.1,0.1,0.2,0.1,0.4,0.1
		c0.1,0,0.2,0.1,0.4,0.1c0.1,0,0.2,0,0.3,0c0.3,0,0.6,0,0.8,0c0.3,0,0.5,0,0.7,0c0-0.3-0.1-0.6-0.1-0.9c-0.1-0.3-0.1-0.5-0.2-0.8
		c-0.1-0.2-0.2-0.5-0.3-0.6c-0.1-0.2-0.2-0.4-0.4-0.5c0,0-0.1-0.1-0.2-0.2c-0.1-0.1-0.1-0.1-0.2-0.2c-0.1,0-0.1-0.1-0.2-0.1
		C237.4,127.7,237.3,127.6,237.2,127.6z"/>
	<path id="XMLID_47_" class="st5" d="M244.7,127.6c0.1,0.5,0.3,0.9,0.4,1.3c0,0.2,0.1,0.4,0.2,0.6s0.1,0.4,0.2,0.6
		c0,0.2,0.1,0.4,0.1,0.6c0,0.2,0.1,0.4,0.1,0.5c0,0.1,0,0.1,0,0.2c0,0.1,0,0.1,0,0.2c0,0.4-0.1,0.8-0.2,1.2
		c-0.1,0.4-0.3,0.8-0.5,1.2c-0.2,0.4-0.5,0.7-0.8,1.1c-0.3,0.3-0.6,0.7-1,0.9c-0.4,0.3-0.7,0.6-1.1,0.8c-0.4,0.3-0.8,0.5-1.2,0.7
		l-0.6-1.3c0.5-0.3,1-0.5,1.5-0.9c0.5-0.3,0.9-0.7,1.3-1.1c0.4-0.4,0.7-0.8,0.9-1.3s0.3-0.9,0.3-1.4c0,0,0-0.1,0-0.1
		c0-0.1,0-0.1,0-0.2v0c0-0.2,0-0.3-0.1-0.5c0-0.2-0.1-0.4-0.1-0.5c0-0.2-0.1-0.4-0.1-0.6c0-0.2-0.1-0.4-0.1-0.5
		c-0.1-0.4-0.2-0.8-0.4-1.2L244.7,127.6z M245.2,124.7l-1.2,1.2l-1.2-1.2l1.2-1.2L245.2,124.7z"/>
	<path id="XMLID_50_" class="st5" d="M256,131.4c-1.3,0-2.1-0.3-2.6-0.9c-0.1-0.2-0.2-0.3-0.3-0.5c-0.1-0.2-0.1-0.4-0.1-0.6
		c0-0.2,0-0.3,0-0.5s0.1-0.3,0.1-0.4c0.1-0.3,0.3-0.5,0.5-0.8c0.2-0.2,0.4-0.4,0.6-0.6c0.2-0.2,0.4-0.3,0.6-0.5
		c0.2-0.1,0.4-0.3,0.6-0.4c0.2-0.1,0.4-0.2,0.6-0.3c0.2-0.1,0.3-0.1,0.5-0.2c0-0.4-0.1-0.6-0.1-0.8c0-0.2,0-0.3,0-0.3l1.4-0.3v0
		c0,0,0,0.1,0,0.3s0,0.3,0.1,0.5c0,0.2,0,0.4,0.1,0.6c0,0.2,0,0.4,0.1,0.6s0,0.3,0.1,0.5c0,0.1,0,0.2,0,0.3c0.1,0.6,0.1,1.1,0.2,1.5
		s0.1,0.7,0.2,1c0,0.2,0.1,0.4,0.1,0.5c0,0.1,0.1,0.2,0.1,0.2c0.1,0.1,0.1,0.2,0.2,0.3c0.1,0.1,0.2,0.2,0.3,0.2
		c0.1,0.1,0.2,0.1,0.4,0.1c0.1,0,0.3,0,0.5,0c0.2,0,0.4,0.1,0.5,0.2s0.2,0.3,0.2,0.5c0,0.1,0,0.2-0.1,0.3c0,0.1-0.1,0.2-0.2,0.2
		c-0.1,0.1-0.1,0.1-0.2,0.2c-0.1,0-0.2,0.1-0.3,0.1c-0.2,0-0.4,0-0.7,0c-0.3,0-0.5-0.1-0.8-0.2c-0.4-0.2-0.7-0.5-1-0.9
		c-0.3,0-0.6,0.1-0.8,0.1C256.5,131.4,256.3,131.4,256,131.4z M256.8,127.3c-0.1,0-0.3,0.1-0.4,0.2c-0.2,0.1-0.3,0.2-0.5,0.2
		c-0.2,0.1-0.3,0.2-0.5,0.3c-0.2,0.1-0.3,0.2-0.5,0.4c-0.1,0.1-0.2,0.3-0.3,0.4c-0.1,0.1-0.1,0.3-0.1,0.5c0,0.2,0.1,0.3,0.2,0.4
		c0.1,0.1,0.2,0.2,0.4,0.2c0.2,0.1,0.3,0.1,0.5,0.1s0.4,0,0.6,0c0.2,0,0.4,0,0.6,0c0.2,0,0.3,0,0.5-0.1c-0.1-0.3-0.1-0.6-0.2-1
		C256.9,128.4,256.8,127.9,256.8,127.3z"/>
	<path id="XMLID_53_" class="st5" d="M259.3,131.7c0-0.2,0.1-0.4,0.2-0.5c0.1-0.1,0.3-0.2,0.5-0.2h0.8c0.3,0,0.5,0,0.7,0
		c0.2,0,0.5,0,0.7-0.1s0.4-0.1,0.5-0.3c0.2-0.1,0.3-0.3,0.4-0.5c0.1-0.2,0.1-0.5,0.1-0.9c0-0.4-0.1-0.8-0.3-1.4
		c-0.1-0.2-0.1-0.3-0.2-0.5c-0.1-0.2-0.1-0.4-0.2-0.5c-0.1-0.2-0.2-0.4-0.2-0.5l1.3-0.6c0,0,0,0.1,0.1,0.2c0,0.1,0.1,0.2,0.2,0.4
		c0.1,0.2,0.1,0.3,0.2,0.6c0.1,0.2,0.2,0.4,0.2,0.7c0.5,1.4,0.5,2.5,0.2,3.3c-0.3,0.8-1,1.3-1.8,1.6c-0.3,0.1-0.5,0.1-0.8,0.1
		c-0.3,0-0.5,0-0.7,0h-1H260c-0.2,0-0.4-0.1-0.5-0.2C259.3,132.1,259.3,131.9,259.3,131.7z M263.4,135.2l-1.2,1.2l-1.2-1.2l1.2-1.2
		L263.4,135.2z"/>
	<path id="XMLID_56_" class="st5" d="M276,137.4c-1.3,0-2.4-0.4-3.2-1.1c-0.4-0.3-0.7-0.7-0.9-1.2c-0.2-0.5-0.4-1-0.5-1.5
		c0-0.3-0.1-0.6-0.1-0.9c0-0.3,0-0.6,0.1-0.9c0-0.3,0.1-0.5,0.1-0.8c0.1-0.2,0.1-0.5,0.2-0.7c0.2-0.5,0.3-0.9,0.5-1.3
		c0.2-0.4,0.3-0.6,0.4-0.8l1.2,0.9c-0.1,0.1-0.1,0.2-0.2,0.4c-0.1,0.2-0.2,0.4-0.3,0.6c-0.1,0.2-0.2,0.5-0.2,0.7s-0.1,0.5-0.2,0.8
		c-0.1,0.3-0.1,0.6-0.1,0.9c0,0.3,0,0.6,0,0.9c0,0.1,0.1,0.3,0.1,0.4c0.1,0.2,0.1,0.3,0.3,0.5c0.1,0.2,0.2,0.4,0.4,0.5
		c0.2,0.2,0.4,0.3,0.6,0.5c0.2,0.1,0.5,0.3,0.8,0.4c0.3,0.1,0.7,0.2,1.1,0.2c0,0,0,0,0,0c0,0,0,0,0,0s0,0,0,0s0,0,0,0
		c1,0,1.9-0.3,2.5-0.6c0.6-0.4,1.1-0.9,1.3-1.6c0.1-0.4,0.2-0.8,0.2-1.3c0-0.4,0-0.8-0.1-1.2c-0.1-0.4-0.2-0.8-0.3-1.1
		c-0.1-0.3-0.2-0.6-0.3-0.9c-0.1-0.3-0.2-0.4-0.3-0.6c-0.1-0.1-0.1-0.2-0.1-0.2l1.2-0.8c0,0,0.1,0.1,0.2,0.3s0.2,0.4,0.4,0.7
		c0.1,0.3,0.3,0.7,0.4,1.1c0.1,0.4,0.2,0.8,0.3,1.3s0.1,1,0.1,1.5c0,0.5-0.1,1-0.3,1.6c-0.1,0.5-0.4,0.9-0.6,1.2
		c-0.3,0.4-0.6,0.7-1,1c-0.4,0.3-1,0.5-1.5,0.7c-0.6,0.2-1.2,0.3-1.9,0.3c0,0-0.1,0-0.1,0C276.1,137.4,276,137.4,276,137.4z
		 M277.7,127.7l-1.2,1.2l-1.2-1.2l1.2-1.2L277.7,127.7z"/>
	<path id="XMLID_59_" class="st5" d="M285.4,132.5l-1.4-0.1c0.1-1.1,0.1-2.2,0.1-3.1c0-1,0-1.9,0-2.7c0-0.8,0-1.6-0.1-2.3
		c0-0.7-0.1-1.2-0.1-1.7c0-0.5-0.1-0.8-0.1-1.1c0-0.3,0-0.4,0-0.4l1.4-0.2c0,0,0,0.3,0.1,0.9c0.1,0.6,0.1,1.2,0.2,2s0.1,1.4,0.1,2
		c0,0.6,0,1.3,0,2c0,0.7,0,1.5,0,2.3C285.5,130.7,285.4,131.6,285.4,132.5z"/>
	<path id="XMLID_61_" class="st5" d="M290.7,131.9L290.7,131.9c0,0.5-0.1,0.9-0.2,1.3c-0.1,0.4-0.3,0.8-0.5,1.2
		c-0.2,0.4-0.5,0.7-0.8,1.1c-0.3,0.3-0.6,0.7-1,0.9c-0.4,0.3-0.7,0.6-1.1,0.8c-0.4,0.3-0.8,0.5-1.2,0.7l-0.6-1.3
		c0.4-0.2,0.7-0.4,1-0.6c0.3-0.2,0.7-0.4,1-0.7c0.3-0.3,0.6-0.5,0.8-0.8c0.3-0.3,0.5-0.6,0.7-0.9c0.2-0.3,0.3-0.6,0.4-0.9
		c0.1-0.3,0.1-0.7,0.1-1v0c0-0.3-0.1-0.6-0.2-0.9c-0.1-0.3-0.1-0.6-0.2-0.9c-0.1-0.3-0.2-0.6-0.2-0.9c-0.1-0.3-0.2-0.5-0.2-0.7
		l1.4-0.4c0.2,0.6,0.4,1,0.5,1.4c0.2,0.4,0.4,0.7,0.5,1c0.2,0.3,0.4,0.4,0.6,0.6s0.4,0.2,0.7,0.2h0c0.1,0,0.2,0,0.3,0.1
		s0.2,0.1,0.2,0.2c0.1,0.1,0.1,0.1,0.2,0.2c0,0.1,0.1,0.2,0.1,0.3c0,0.2-0.1,0.4-0.2,0.5c-0.1,0.1-0.3,0.2-0.5,0.2h0
		c-0.1,0-0.2,0-0.3,0c-0.1,0-0.2,0-0.4-0.1c-0.1,0-0.3-0.1-0.4-0.2C291,132.1,290.8,132,290.7,131.9z"/>
	<path id="XMLID_63_" class="st5" d="M291,131.7c0-0.2,0.1-0.4,0.2-0.5c0.1-0.1,0.3-0.2,0.5-0.2h0.8c0.2,0,0.4,0,0.6,0
		c0.2,0,0.4,0,0.6,0s0.4,0,0.6-0.1c0.2,0,0.4-0.1,0.5-0.2c0.2-0.1,0.3-0.1,0.4-0.2s0.2-0.2,0.3-0.4c0.1-0.2,0.1-0.5,0.1-0.9
		c0-0.4-0.1-0.8-0.3-1.4c-0.1-0.2-0.1-0.3-0.2-0.5c-0.1-0.2-0.1-0.4-0.2-0.5c-0.1-0.2-0.2-0.4-0.2-0.5l1.3-0.6c0,0,0,0.1,0.1,0.2
		c0,0.1,0.1,0.2,0.2,0.4c0.1,0.2,0.1,0.3,0.2,0.6c0.1,0.2,0.2,0.4,0.2,0.7c0.5,1.4,0.5,2.5,0.2,3.3c-0.3,0.8-1,1.3-1.8,1.6
		c-0.1,0-0.3,0.1-0.5,0.1c-0.2,0-0.4,0-0.6,0c-0.2,0-0.4,0-0.6,0c-0.2,0-0.3,0-0.5,0h-1.1h-0.1c-0.2,0-0.4-0.1-0.5-0.2
		C291.1,132.1,291,131.9,291,131.7z M294.7,134.9l-1.2,1.2l-1.2-1.2l1.2-1.2L294.7,134.9z M297.4,134.9l-1.2,1.2l-1.2-1.2l1.2-1.2
		L297.4,134.9z"/>
	<path id="XMLID_67_" class="st5" d="M301.1,132.5l-1.4-0.1c0.1-1.1,0.1-2.2,0.1-3.1c0-1,0-1.9,0-2.7c0-0.8,0-1.6-0.1-2.3
		c0-0.7-0.1-1.2-0.1-1.7c0-0.5-0.1-0.8-0.1-1.1c0-0.3,0-0.4,0-0.4l1.4-0.2c0,0,0,0.3,0.1,0.9c0.1,0.6,0.1,1.2,0.2,2s0.1,1.4,0.1,2
		c0,0.6,0,1.3,0,2c0,0.7,0,1.5,0,2.3C301.2,130.7,301.2,131.6,301.1,132.5z"/>
	<path id="XMLID_69_" class="st5" d="M311.5,131.4c-1.3,0-2.1-0.3-2.6-0.9c-0.1-0.2-0.2-0.3-0.3-0.5c-0.1-0.2-0.1-0.4-0.1-0.6
		c0-0.2,0-0.3,0-0.5s0.1-0.3,0.1-0.4c0.1-0.3,0.3-0.5,0.5-0.8c0.2-0.2,0.4-0.4,0.6-0.6c0.2-0.2,0.4-0.3,0.6-0.5
		c0.2-0.1,0.4-0.3,0.6-0.4c0.2-0.1,0.4-0.2,0.6-0.3c0.2-0.1,0.3-0.1,0.5-0.2c0-0.4-0.1-0.6-0.1-0.8c0-0.2,0-0.3,0-0.3l1.4-0.3v0
		c0,0,0,0.1,0,0.3s0,0.3,0.1,0.5c0,0.2,0,0.4,0.1,0.6c0,0.2,0,0.4,0.1,0.6s0,0.3,0.1,0.5c0,0.1,0,0.2,0,0.3c0.1,0.6,0.1,1.1,0.2,1.5
		s0.1,0.7,0.2,1c0,0.2,0.1,0.4,0.1,0.5c0,0.1,0.1,0.2,0.1,0.2c0.1,0.1,0.1,0.2,0.2,0.3c0.1,0.1,0.2,0.2,0.3,0.2
		c0.1,0.1,0.2,0.1,0.4,0.1c0.1,0,0.3,0,0.5,0c0.2,0,0.4,0.1,0.5,0.2s0.2,0.3,0.2,0.5c0,0.1,0,0.2-0.1,0.3c0,0.1-0.1,0.2-0.2,0.2
		c-0.1,0.1-0.1,0.1-0.2,0.2c-0.1,0-0.2,0.1-0.3,0.1c-0.2,0-0.4,0-0.7,0c-0.3,0-0.5-0.1-0.8-0.2c-0.4-0.2-0.7-0.5-1-0.9
		c-0.3,0-0.6,0.1-0.8,0.1C312,131.4,311.8,131.4,311.5,131.4z M312.2,127.3c-0.1,0-0.3,0.1-0.4,0.2c-0.2,0.1-0.3,0.2-0.5,0.2
		c-0.2,0.1-0.3,0.2-0.5,0.3c-0.2,0.1-0.3,0.2-0.5,0.4c-0.1,0.1-0.2,0.3-0.3,0.4c-0.1,0.1-0.1,0.3-0.1,0.5c0,0.2,0.1,0.3,0.2,0.4
		c0.1,0.1,0.2,0.2,0.4,0.2c0.2,0.1,0.3,0.1,0.5,0.1s0.4,0,0.6,0c0.2,0,0.4,0,0.6,0c0.2,0,0.3,0,0.5-0.1c-0.1-0.3-0.1-0.6-0.2-1
		C312.4,128.4,312.3,127.9,312.2,127.3z"/>
	<path id="XMLID_72_" class="st5" d="M314.8,131.7c0-0.2,0.1-0.4,0.2-0.5c0.1-0.1,0.3-0.2,0.5-0.2h0.1c0.8,0,1.4-0.1,1.8-0.4
		c0.4-0.3,0.6-0.7,0.6-1.3c0-0.1,0-0.3,0-0.5s0-0.4-0.1-0.5c0-0.2-0.1-0.4-0.1-0.6c0-0.2-0.1-0.4-0.1-0.6l1.4-0.4
		c0.1,0.2,0.1,0.4,0.2,0.7s0.1,0.5,0.1,0.7c0,0.2,0.1,0.4,0.1,0.6c0,0.2,0,0.4,0,0.6v0c0,0.2,0,0.4,0.1,0.6c0,0.2,0.1,0.4,0.2,0.6
		c0.1,0.2,0.2,0.3,0.4,0.4c0.2,0.1,0.4,0.2,0.6,0.2c0.1,0,0.2,0,0.3,0.1c0.1,0,0.2,0.1,0.2,0.2c0.1,0.1,0.1,0.1,0.2,0.2
		s0.1,0.2,0.1,0.3c0,0.1,0,0.2-0.1,0.3c0,0.1-0.1,0.2-0.2,0.2c-0.1,0.1-0.1,0.1-0.2,0.2c-0.1,0-0.2,0.1-0.3,0.1
		c-0.2,0-0.5,0-0.7-0.1c-0.2,0-0.4-0.1-0.5-0.2c-0.2-0.1-0.3-0.2-0.4-0.3c-0.1-0.1-0.2-0.2-0.3-0.4c-0.3,0.3-0.7,0.5-1.2,0.7
		c-0.5,0.2-1.1,0.2-1.8,0.2h-0.1c-0.2,0-0.4-0.1-0.5-0.2S314.8,131.9,314.8,131.7z M319.6,124.2l-1.2,1.2l-1.2-1.2l1.2-1.2
		L319.6,124.2z"/>
	<path id="XMLID_75_" class="st5" d="M319.6,131.7c0-0.2,0.1-0.4,0.2-0.5c0.1-0.1,0.3-0.2,0.5-0.2h0.8c0.2,0,0.4,0,0.6,0
		c0.2,0,0.4,0,0.6,0s0.4,0,0.6-0.1c0.2,0,0.4-0.1,0.5-0.2c0.2-0.1,0.3-0.1,0.4-0.2s0.2-0.2,0.3-0.4c0.1-0.2,0.1-0.5,0.1-0.9
		c0-0.4-0.1-0.8-0.3-1.4c-0.1-0.2-0.1-0.3-0.2-0.5c-0.1-0.2-0.1-0.4-0.2-0.5c-0.1-0.2-0.2-0.4-0.2-0.5l1.3-0.6c0,0,0,0.1,0.1,0.2
		c0,0.1,0.1,0.2,0.2,0.4c0.1,0.2,0.1,0.3,0.2,0.6c0.1,0.2,0.2,0.4,0.2,0.7c0.5,1.4,0.5,2.5,0.2,3.3c-0.3,0.8-1,1.3-1.8,1.6
		c-0.1,0-0.3,0.1-0.5,0.1c-0.2,0-0.4,0-0.6,0c-0.2,0-0.4,0-0.6,0c-0.2,0-0.3,0-0.5,0h-1.1h-0.1c-0.2,0-0.4-0.1-0.5-0.2
		C319.7,132.1,319.6,131.9,319.6,131.7z M323.2,134.9l-1.2,1.2l-1.2-1.2l1.2-1.2L323.2,134.9z M326,134.9l-1.2,1.2l-1.2-1.2l1.2-1.2
		L326,134.9z"/>
	<path id="XMLID_79_" class="st5" d="M330.5,132.4c-0.2,0-0.5,0-0.8-0.1c-0.3-0.1-0.6-0.1-1-0.2c-0.3-0.1-0.6-0.2-0.9-0.3
		c-0.3-0.1-0.5-0.2-0.6-0.3l0.6-1.4c0.2,0.1,0.4,0.2,0.7,0.3c0.3,0.1,0.5,0.2,0.8,0.3c0.3,0.1,0.6,0.1,0.9,0.2c0.3,0,0.6,0,0.9,0
		s0.5-0.1,0.8-0.2s0.4-0.2,0.6-0.4c0.1-0.2,0.1-0.4,0.1-0.8c-0.1-0.2-0.1-0.5-0.3-0.8c-0.1-0.3-0.3-0.5-0.4-0.8
		c-0.2-0.3-0.4-0.5-0.6-0.8s-0.4-0.5-0.6-0.7c-0.2-0.2-0.4-0.4-0.7-0.6c-0.2-0.2-0.5-0.3-0.7-0.4l0.6-1.3c0.3,0.1,0.6,0.3,0.9,0.5
		s0.6,0.4,0.9,0.7c0.3,0.3,0.5,0.5,0.8,0.9c0.3,0.3,0.5,0.6,0.7,0.9c0.2,0.3,0.4,0.7,0.5,1s0.3,0.6,0.3,1c0.1,0.3,0.1,0.5,0.1,0.7
		s0,0.4-0.1,0.6c0,0.2-0.1,0.3-0.2,0.4c-0.1,0.1-0.1,0.2-0.2,0.3c-0.4,0.5-1.1,0.9-1.9,1.1c-0.2,0-0.4,0.1-0.6,0.1
		C331,132.4,330.8,132.4,330.5,132.4z"/>
	<path id="XMLID_81_" class="st5" d="M353.9,131.2c-0.2-0.2-0.3-0.5-0.5-0.8c-1.3,1.3-3.3,2-6.1,2c-1.5,0-2.7-0.2-3.7-0.5
		c-1-0.3-1.7-0.9-2.1-1.6c-0.1-0.2-0.3-0.5-0.3-0.7c-0.1-0.3-0.1-0.5-0.1-0.8c0-0.3,0-0.5,0-0.7c0-0.2,0.1-0.5,0.1-0.7
		c0.1-0.2,0.1-0.4,0.2-0.6c0.1-0.2,0.1-0.3,0.2-0.5c0.1-0.1,0.1-0.2,0.1-0.3s0.1-0.1,0.1-0.1l1.3,0.7c0,0,0,0.1-0.1,0.1
		s-0.1,0.2-0.1,0.4c-0.1,0.2-0.1,0.3-0.2,0.5c-0.1,0.2-0.1,0.4-0.1,0.6c0,0.2,0,0.4,0,0.7s0.1,0.4,0.2,0.7c0.3,0.5,0.8,0.9,1.6,1.1
		c0.8,0.3,1.7,0.4,2.9,0.4c1.1,0,2-0.1,2.8-0.3c0.8-0.2,1.4-0.5,1.9-0.9c0.2-0.2,0.4-0.4,0.6-0.6c0.2-0.2,0.3-0.4,0.4-0.7
		c0.1-0.2,0.2-0.5,0.3-0.7s0.1-0.5,0.2-0.7l1.4,0.4c0,0.1-0.1,0.2-0.1,0.3c0,0.1-0.1,0.3-0.1,0.4c-0.1,0.3-0.1,0.5-0.1,0.7
		c0,0.2,0,0.4,0.1,0.7s0.2,0.4,0.3,0.6c0.3,0.4,0.9,0.7,1.7,0.7c0.2,0,0.4,0.1,0.5,0.2c0.1,0.1,0.2,0.3,0.2,0.5s-0.1,0.4-0.2,0.5
		c-0.1,0.1-0.3,0.2-0.5,0.2h-0.1C355.5,132.4,354.5,132,353.9,131.2z M347.8,125.2l-1.2,1.2l-1.2-1.2l1.2-1.2L347.8,125.2z
		 M350.5,125.2l-1.2,1.2l-1.2-1.2l1.2-1.2L350.5,125.2z"/>
	<path id="XMLID_85_" class="st5" d="M355.8,131.7c0-0.2,0.1-0.4,0.2-0.5c0.1-0.1,0.3-0.2,0.5-0.2h0.8c0.2,0,0.4,0,0.6,0
		c0.2,0,0.4,0,0.6,0s0.4,0,0.6-0.1c0.2,0,0.4-0.1,0.5-0.2c0.2-0.1,0.3-0.1,0.4-0.2s0.2-0.2,0.3-0.4c0.1-0.2,0.1-0.5,0.1-0.9
		c0-0.4-0.1-0.8-0.3-1.4c-0.1-0.2-0.1-0.3-0.2-0.5c-0.1-0.2-0.1-0.4-0.2-0.5c-0.1-0.2-0.2-0.4-0.2-0.5l1.3-0.6c0,0,0,0.1,0.1,0.2
		c0,0.1,0.1,0.2,0.2,0.4c0.1,0.2,0.1,0.3,0.2,0.6c0.1,0.2,0.2,0.4,0.2,0.7c0.5,1.4,0.5,2.5,0.2,3.3c-0.3,0.8-1,1.3-1.8,1.6
		c-0.1,0-0.3,0.1-0.5,0.1c-0.2,0-0.4,0-0.6,0c-0.2,0-0.4,0-0.6,0c-0.2,0-0.3,0-0.5,0h-1.1h-0.1c-0.2,0-0.4-0.1-0.5-0.2
		C355.9,132.1,355.8,131.9,355.8,131.7z M359.5,134.9l-1.2,1.2l-1.2-1.2l1.2-1.2L359.5,134.9z M362.3,134.9l-1.2,1.2l-1.2-1.2
		l1.2-1.2L362.3,134.9z"/>
	<path id="XMLID_89_" class="st5" d="M367.4,132.4c-0.5,0-1-0.1-1.4-0.2c-0.4-0.1-0.7-0.3-1-0.6c-0.2-0.2-0.3-0.3-0.4-0.5
		c-0.1-0.2-0.1-0.4-0.2-0.5c0-0.2-0.1-0.4-0.1-0.5c0-0.2,0-0.3,0-0.4v-0.1c0,0,0-0.1,0-0.3c0-0.2,0-0.4,0-0.7c0-0.3,0-0.6,0-1
		s0-0.8,0-1.2c0-0.4,0-0.9,0-1.3c0-0.5,0-0.9,0-1.3c0-0.4,0-0.8-0.1-1.2c0-0.4-0.1-0.7-0.1-0.9l1.4-0.3c0,0.2,0.1,0.6,0.1,0.9
		c0,0.4,0.1,0.8,0.1,1.2c0,0.4,0,0.9,0,1.3c0,0.5,0,0.9,0,1.4c0,0.4,0,0.8,0,1.2c0,0.4,0,0.7,0,1.1c0,0.3,0,0.6,0,0.8
		c0,0.2,0,0.3,0,0.4v0.1c0,0.2,0,0.4,0,0.6c0,0.2,0.1,0.3,0.2,0.4c0.2,0.2,0.6,0.3,1.2,0.4h0.1c0.1,0,0.2,0,0.3,0.1
		c0.1,0,0.2,0.1,0.2,0.2c0.1,0.1,0.1,0.1,0.2,0.2c0,0.1,0.1,0.2,0.1,0.3c0,0.2-0.1,0.4-0.2,0.5S367.6,132.4,367.4,132.4z"/>
	<path id="XMLID_91_" class="st5" d="M366.7,131.7c0-0.1,0-0.2,0.1-0.3c0-0.1,0.1-0.2,0.1-0.2c0.1-0.1,0.1-0.1,0.2-0.2
		s0.2-0.1,0.3-0.1c0.3,0,0.5-0.1,0.8-0.2c0.2-0.1,0.4-0.3,0.6-0.5c0.2-0.2,0.3-0.4,0.5-0.6c0.1-0.2,0.2-0.5,0.3-0.8
		c0.1-0.3,0.2-0.5,0.3-0.8c0.1-0.3,0.1-0.5,0.2-0.8l1.5,0.3c0,0.1-0.1,0.3-0.1,0.5c-0.1,0.2-0.1,0.4-0.2,0.6
		c-0.1,0.2-0.1,0.4-0.1,0.7c0,0.2-0.1,0.4-0.1,0.6c0,0.1,0,0.3,0,0.4c0,0.1,0.1,0.2,0.1,0.3s0.1,0.2,0.2,0.2s0.2,0.1,0.4,0.1
		c0.2,0,0.5-0.1,0.7-0.2c0.2-0.1,0.4-0.3,0.5-0.5c0.2-0.2,0.3-0.5,0.4-0.7s0.2-0.6,0.3-0.8c0.1-0.3,0.1-0.6,0.2-0.8
		c0.1-0.3,0.1-0.5,0.1-0.7l1.4,0.3c-0.1,0.3-0.1,0.6-0.1,0.8c0,0.2-0.1,0.5-0.1,0.7c0,0.3,0,0.5,0,0.7c0,0.2,0,0.4,0,0.5
		c0,0.2,0.1,0.3,0.1,0.4c0.1,0.1,0.1,0.2,0.2,0.3c0.1,0.1,0.2,0.1,0.4,0.1c0.2,0,0.4,0,0.6,0c0.1,0,0.3-0.1,0.4-0.1
		c0.1-0.1,0.2-0.1,0.2-0.2c0-0.1,0.1-0.1,0.1-0.1h0c0.1-0.1,0.1-0.2,0.1-0.4c0-0.1,0-0.3,0-0.4c0-0.3,0-0.6-0.1-0.9
		c-0.1-0.3-0.2-0.6-0.3-0.9c-0.1-0.3-0.2-0.6-0.3-0.9c-0.1-0.3-0.2-0.5-0.3-0.6l1.3-0.7c0,0,0.1,0.1,0.1,0.3
		c0.1,0.1,0.1,0.3,0.2,0.5c0.1,0.2,0.2,0.4,0.3,0.7c0.1,0.3,0.2,0.5,0.3,0.8c0.1,0.3,0.1,0.6,0.2,0.9c0.1,0.3,0.1,0.6,0.1,0.9
		c0,0.4-0.1,0.8-0.2,1.1c-0.1,0.3-0.3,0.6-0.5,0.9c-0.2,0.2-0.5,0.4-0.9,0.6c-0.4,0.1-0.8,0.2-1.2,0.2c-0.2,0-0.4,0-0.6-0.1
		s-0.4-0.1-0.5-0.2c-0.2-0.1-0.3-0.2-0.5-0.4c-0.1-0.1-0.3-0.3-0.4-0.4c-0.3,0.3-0.6,0.6-1,0.8c-0.4,0.2-0.8,0.3-1.2,0.3
		c-0.2,0-0.4,0-0.6-0.1c-0.2,0-0.4-0.1-0.6-0.2s-0.3-0.2-0.5-0.3c-0.1-0.1-0.3-0.3-0.3-0.5c-0.3,0.3-0.6,0.6-1,0.7s-0.8,0.3-1.3,0.3
		h-0.1c-0.1,0-0.2,0-0.3-0.1s-0.2-0.1-0.2-0.2c-0.1-0.1-0.1-0.1-0.1-0.2C366.7,131.9,366.7,131.8,366.7,131.7z"/>
	<path id="XMLID_93_" class="st5" d="M398.3,131.2c-0.2-0.2-0.3-0.5-0.5-0.8c-1.3,1.3-3.3,2-6.1,2c-1.5,0-2.7-0.2-3.7-0.5
		c-1-0.3-1.7-0.9-2.1-1.6c-0.1-0.2-0.3-0.5-0.3-0.7c-0.1-0.3-0.1-0.5-0.1-0.8c0-0.3,0-0.5,0-0.7c0-0.2,0.1-0.5,0.1-0.7
		c0.1-0.2,0.1-0.4,0.2-0.6c0.1-0.2,0.1-0.3,0.2-0.5c0.1-0.1,0.1-0.2,0.1-0.3s0.1-0.1,0.1-0.1l1.3,0.7c0,0,0,0.1-0.1,0.1
		s-0.1,0.2-0.1,0.4c-0.1,0.2-0.1,0.3-0.2,0.5c-0.1,0.2-0.1,0.4-0.1,0.6c0,0.2,0,0.4,0,0.7s0.1,0.4,0.2,0.7c0.3,0.5,0.8,0.9,1.6,1.1
		c0.8,0.3,1.7,0.4,2.9,0.4c1.1,0,2-0.1,2.8-0.3c0.8-0.2,1.4-0.5,1.9-0.9c0.2-0.2,0.4-0.4,0.6-0.6c0.2-0.2,0.3-0.4,0.4-0.7
		c0.1-0.2,0.2-0.5,0.3-0.7s0.1-0.5,0.2-0.7l1.4,0.4c0,0.1-0.1,0.2-0.1,0.3c0,0.1-0.1,0.3-0.1,0.4c-0.1,0.3-0.1,0.5-0.1,0.7
		c0,0.2,0,0.4,0.1,0.7s0.2,0.4,0.3,0.6c0.3,0.4,0.9,0.7,1.7,0.7c0.2,0,0.4,0.1,0.5,0.2c0.1,0.1,0.2,0.3,0.2,0.5s-0.1,0.4-0.2,0.5
		c-0.1,0.1-0.3,0.2-0.5,0.2h-0.1C399.8,132.4,398.9,132,398.3,131.2z M392.1,125.2l-1.2,1.2l-1.2-1.2l1.2-1.2L392.1,125.2z
		 M394.9,125.2l-1.2,1.2l-1.2-1.2l1.2-1.2L394.9,125.2z"/>
	<path id="XMLID_97_" class="st5" d="M400.5,131.7c0-0.2,0.1-0.4,0.2-0.5c0.1-0.1,0.3-0.2,0.5-0.2h0.6c0.4,0,0.8,0,1.2-0.1
		s0.7-0.1,1-0.3c0.3-0.1,0.5-0.3,0.7-0.5c0.2-0.2,0.2-0.5,0.2-0.9c0-0.1,0-0.3,0-0.5c0-0.2,0-0.4-0.1-0.5c0-0.2-0.1-0.4-0.1-0.6
		c0-0.2-0.1-0.4-0.1-0.6l1.4-0.4c0.1,0.2,0.1,0.5,0.2,0.7c0.1,0.2,0.1,0.5,0.1,0.7c0,0.2,0.1,0.4,0.1,0.6c0,0.2,0,0.4,0,0.6v0
		c0,0.2,0,0.4,0,0.6c0,0.2,0.1,0.4,0.2,0.6c0.1,0.2,0.2,0.3,0.4,0.4c0.2,0.1,0.4,0.2,0.6,0.2c0.2,0,0.4,0.1,0.5,0.2s0.2,0.3,0.2,0.5
		c0,0.1,0,0.2-0.1,0.3c0,0.1-0.1,0.2-0.2,0.2c-0.1,0.1-0.1,0.1-0.2,0.2c-0.1,0-0.2,0.1-0.3,0.1c-0.5,0-0.9-0.1-1.2-0.3
		c-0.3-0.2-0.6-0.4-0.8-0.7c-0.2,0.2-0.4,0.3-0.7,0.4c-0.3,0.1-0.6,0.2-0.9,0.3c-0.3,0.1-0.7,0.1-1.1,0.2s-0.7,0.1-1.1,0.1h-0.6
		c-0.2,0-0.4-0.1-0.5-0.2C400.6,132.1,400.5,131.9,400.5,131.7z M403.7,135.2l-1.2,1.2l-1.2-1.2l1.2-1.2L403.7,135.2z M406.5,135.2
		l-1.2,1.2l-1.2-1.2l1.2-1.2L406.5,135.2z"/>
	<path id="XMLID_101_" class="st5" d="M406.9,131.7c0-0.2,0.1-0.4,0.2-0.5c0.1-0.1,0.3-0.2,0.5-0.2h0.1h0.3c0.6,0,0.9-0.1,1.2-0.4
		c0.3-0.3,0.4-0.8,0.4-1.5v-0.2c0-0.2,0-0.6,0-1.2s-0.1-1.3-0.1-2.2c0-0.5,0-1-0.1-1.5c0-0.5-0.1-0.9-0.1-1.2s0-0.6-0.1-0.9
		c0-0.2,0-0.3,0-0.4l1.4-0.2c0,0.1,0,0.2,0,0.5c0,0.2,0,0.5,0.1,0.9s0.1,0.8,0.1,1.2c0,0.5,0.1,1,0.1,1.5c0,0.9,0.1,1.6,0.1,2.2
		c0,0.6,0,1,0,1.2c0,0,0,0.1,0,0.1c0,0,0,0.1,0,0.1c0,0.2,0,0.4,0,0.6c0,0.2,0,0.4-0.1,0.7s-0.1,0.4-0.2,0.7
		c-0.1,0.2-0.2,0.4-0.4,0.6c-0.5,0.5-1.3,0.8-2.2,0.8h-0.3h-0.1c-0.2,0-0.4-0.1-0.5-0.2C406.9,132.1,406.9,131.9,406.9,131.7z"/>
	<path id="XMLID_103_" class="st5" d="M416.3,132.4c-0.5,0-1-0.1-1.4-0.2c-0.4-0.1-0.7-0.3-1-0.6c-0.2-0.2-0.3-0.3-0.4-0.5
		c-0.1-0.2-0.1-0.4-0.2-0.5c0-0.2-0.1-0.4-0.1-0.5c0-0.2,0-0.3,0-0.4v-0.1c0,0,0-0.1,0-0.3c0-0.2,0-0.4,0-0.7c0-0.3,0-0.6,0-1
		s0-0.8,0-1.2c0-0.4,0-0.9,0-1.3c0-0.5,0-0.9,0-1.3c0-0.4,0-0.8-0.1-1.2c0-0.4-0.1-0.7-0.1-0.9l1.4-0.3c0,0.2,0.1,0.6,0.1,0.9
		c0,0.4,0.1,0.8,0.1,1.2c0,0.4,0,0.9,0,1.3c0,0.5,0,0.9,0,1.4c0,0.4,0,0.8,0,1.2c0,0.4,0,0.7,0,1.1c0,0.3,0,0.6,0,0.8
		c0,0.2,0,0.3,0,0.4v0.1c0,0.2,0,0.4,0,0.6c0,0.2,0.1,0.3,0.2,0.4c0.2,0.2,0.6,0.3,1.2,0.4h0.1c0.1,0,0.2,0,0.3,0.1
		c0.1,0,0.2,0.1,0.2,0.2c0.1,0.1,0.1,0.1,0.2,0.2c0,0.1,0.1,0.2,0.1,0.3c0,0.2-0.1,0.4-0.2,0.5S416.5,132.4,416.3,132.4z"/>
	<path id="XMLID_105_" class="st5" d="M424.6,131c0.1,0,0.2,0,0.3,0.1s0.2,0.1,0.2,0.2c0.1,0.1,0.1,0.1,0.2,0.2
		c0,0.1,0.1,0.2,0.1,0.3c0,0.2-0.1,0.4-0.2,0.5s-0.3,0.2-0.5,0.2c-0.8,0-1.5-0.1-2.2-0.2c-0.7-0.1-1.3-0.4-1.8-0.7
		c-0.3,0.1-0.6,0.3-1,0.4c-0.4,0.1-0.7,0.2-1.1,0.3c-0.4,0.1-0.8,0.1-1.2,0.2c-0.4,0-0.8,0.1-1.1,0.1c-0.2,0-0.4-0.1-0.5-0.2
		c-0.1-0.1-0.2-0.3-0.2-0.5c0-0.1,0-0.2,0.1-0.3s0.1-0.2,0.2-0.2c0.1-0.1,0.1-0.1,0.2-0.2s0.2-0.1,0.3-0.1c0.2,0,0.5,0,0.8,0
		c0.3,0,0.6-0.1,0.8-0.1c0.3,0,0.5-0.1,0.8-0.1c0.2-0.1,0.5-0.1,0.6-0.2c-0.2-0.2-0.4-0.4-0.6-0.6c-0.2-0.2-0.4-0.4-0.6-0.7
		c-0.2-0.2-0.4-0.5-0.6-0.7s-0.4-0.5-0.6-0.7l0.1-1c0.2-0.2,0.5-0.4,0.8-0.6c0.3-0.2,0.5-0.3,0.8-0.4c0.3-0.1,0.5-0.2,0.8-0.2
		c0.2-0.1,0.5-0.1,0.7-0.1c0.5-0.1,1,0,1.5,0c0.5,0.1,0.9,0.2,1.3,0.3c0.3,0.1,0.5,0.2,0.6,0.4c0.2,0.1,0.3,0.3,0.4,0.4
		s0.1,0.3,0.2,0.4c0,0.1,0,0.2,0,0.3c0,0.2,0,0.5-0.1,0.8c-0.1,0.3-0.3,0.6-0.5,0.9c-0.2,0.3-0.4,0.6-0.7,0.8
		c-0.2,0.3-0.5,0.5-0.8,0.7c0.3,0.1,0.7,0.2,1.2,0.3C423.7,130.9,424.1,131,424.6,131z M420.7,129.8c0.1-0.1,0.3-0.2,0.4-0.3
		c0.1-0.1,0.3-0.3,0.4-0.4c0.1-0.1,0.3-0.3,0.4-0.5c0.1-0.2,0.2-0.3,0.3-0.5c0.1-0.1,0.2-0.3,0.2-0.4c0.1-0.1,0.1-0.2,0.1-0.3
		c-0.3-0.2-0.5-0.3-0.9-0.4c-0.3-0.1-0.7-0.1-1-0.1s-0.7,0-1.1,0.1s-0.7,0.2-1,0.4c0.4,0.5,0.8,0.9,1.1,1.3
		C420,129.2,420.3,129.5,420.7,129.8z"/>
	<path id="XMLID_108_" class="st5" d="M423.8,131.7c0-0.2,0.1-0.4,0.2-0.5s0.3-0.2,0.5-0.2c0.5,0,1,0,1.5-0.1
		c0.5-0.1,0.9-0.1,1.2-0.2c0.4-0.1,0.7-0.2,0.9-0.3c0.3-0.1,0.4-0.2,0.5-0.3c0.1-0.1,0.1-0.1,0.2-0.1s0.1-0.1,0.1-0.1h-0.7
		c-0.3,0-0.5,0-0.8-0.1c-0.3,0-0.5-0.1-0.7-0.2c-0.2-0.1-0.4-0.2-0.6-0.3c-0.2-0.1-0.3-0.3-0.5-0.4c-0.1-0.1-0.1-0.2-0.2-0.3
		c-0.1-0.1-0.1-0.3-0.2-0.4c0-0.2-0.1-0.3-0.1-0.5c0-0.2,0-0.4,0-0.7c0.1-0.4,0.2-0.7,0.3-1c0.1-0.3,0.3-0.6,0.5-0.8
		c0.2-0.3,0.5-0.5,0.7-0.7s0.6-0.2,0.8-0.2c0.6,0,1.2,0.3,1.8,0.9c0.2,0.2,0.4,0.5,0.6,0.9c0.2,0.3,0.3,0.7,0.4,1.1
		c0.1,0.4,0.2,0.8,0.2,1.2c0,0.4,0,0.8,0,1.2h0c0,0.2-0.1,0.4-0.1,0.6c0,0.1,0,0.1-0.1,0.2c0,0.1-0.1,0.2-0.1,0.3
		c-0.1,0.1-0.2,0.3-0.3,0.4c-0.1,0.1-0.3,0.3-0.4,0.4c-0.2,0.2-0.5,0.3-0.9,0.5c-0.4,0.1-0.8,0.3-1.2,0.4c-0.4,0.1-0.9,0.2-1.4,0.2
		s-1,0.1-1.5,0.1h-0.1c-0.2,0-0.4-0.1-0.5-0.2C423.9,132.1,423.8,131.9,423.8,131.7z M428.7,121.6l-1.2,1.2l-1.2-1.2l1.2-1.2
		L428.7,121.6z M427.7,125.6c-0.1,0-0.1,0-0.2,0.1c-0.1,0.1-0.2,0.2-0.3,0.3c-0.1,0.1-0.2,0.3-0.3,0.5c-0.1,0.2-0.1,0.4-0.2,0.7
		c-0.1,0.4,0,0.6,0.1,0.8c0.1,0.1,0.2,0.2,0.4,0.3c0.2,0.1,0.4,0.1,0.7,0.1c0.3,0,0.5,0,0.7,0c0.2,0,0.4,0,0.6,0
		c0-0.5-0.1-0.9-0.3-1.3c-0.1-0.4-0.3-0.8-0.6-1c-0.1-0.1-0.2-0.2-0.3-0.3C428,125.7,427.9,125.6,427.7,125.6z"/>
</g>
</svg>
