<?xml version="1.0" encoding="iso-8859-1"?>
<!-- Generator: Adobe Illustrator 18.1.1, SVG Export Plug-In . SVG Version: 6.00 Build 0)  -->
<svg version="1.1" id="Capa_1" xmlns="http://www.w3.org/2000/svg" xmlns:xlink="http://www.w3.org/1999/xlink" x="0px" y="0px"
	 viewBox="0 0 32.046 32.046" style="enable-background:new 0 0 32.046 32.046;" xml:space="preserve">
<g>
	<g id="c35_shop">
		<path d="M0,1.323v16.353h5.127v6.988v3.532v2.526h3.525v-2.526h15.063v2.526h3.522V17.677h4.809V1.323H0z M30.41,2.226
			l-7.582,14.317h-4.673l7.581-14.317C25.736,2.226,30.41,2.226,30.41,2.226z M22.479,2.191l-7.585,14.318H10.22l7.586-14.318
			C17.806,2.191,22.479,2.191,22.479,2.191z M1.278,2.371l5.486-0.016l-5.513,10.33L1.278,2.371z M7.293,16.661H2.621l7.581-14.316
			h4.674L7.293,16.661z M23.716,24.664H8.652v-6.988h15.063L23.716,24.664L23.716,24.664z M31.401,16.418l-5.487-0.006l5.515-10.33
			L31.401,16.418z"/>
	</g>
	<g id="Capa_1_194_">
	</g>
</g>
<g>
</g>
<g>
</g>
<g>
</g>
<g>
</g>
<g>
</g>
<g>
</g>
<g>
</g>
<g>
</g>
<g>
</g>
<g>
</g>
<g>
</g>
<g>
</g>
<g>
</g>
<g>
</g>
<g>
</g>
</svg>
