<?xml version="1.0" encoding="utf-8"?>
<!-- Generator: Adobe Illustrator 19.0.0, SVG Export Plug-In . SVG Version: 6.00 Build 0)  -->
<svg version="1.1" id="Layer_1" xmlns="http://www.w3.org/2000/svg" xmlns:xlink="http://www.w3.org/1999/xlink" x="0px" y="0px"
	 viewBox="0 0 125 173" style="enable-background:new 0 0 125 173;" xml:space="preserve">
<style type="text/css">
	.st0{fill-rule:evenodd;clip-rule:evenodd;fill:#FFFFFF;stroke:#FFFFFF;stroke-miterlimit:10;}
	.st1{fill:none;stroke:#62276F;stroke-width:4.9997;stroke-miterlimit:22.9256;}
	.st2{fill-rule:evenodd;clip-rule:evenodd;fill:#62276F;stroke:#62276F;stroke-miterlimit:10;}
</style>
<rect id="XMLID_10_" x="1" y="0.8" class="st0" width="122.7" height="122.7"/>
<ellipse id="XMLID_9_" class="st1" cx="64.8" cy="61.8" rx="54.9" ry="52.1"/>
<path id="XMLID_8_" class="st2" d="M113.7,40.2c0,0,1.2,15.1-15.8,31.4c0,0-10,11.7-30.1,10.5c0,0-2-0.4,0.6-3c0,0,5.7-8.8-5.4-16.4
	c0,0-11.2-5.2-21.5,5.7l-5.9,9.1c0,0-1.9,4.9-4.6,4.9c0,0,2.6,2.6,4.2,5.6l2.4,6c0,0,2.9,10.3,13.3,12.5c0,0,14.5,4.9,17.5-5.7
	c0,0,3.3-5.2-1-10.9c0,0,0.3-1.8,1.4-1.6c0,0,5.2-0.1,6.9-0.3c0,0-1.6,12.1,6.2,14.2c0,0,10.2,1.8,10.2-5.4c0,0,1-6.5-5.4-4.3
	c0,0-0.4,0.8-1.6,2.2c0,0-2.9,3.4-4.7-1.9c0,0-2.1-4.9,2.3-6.1c0,0,23-9.6,34.9-33l-0.6-6.4l-1.4-3.4L113.7,40.2z"/>
<path id="XMLID_7_" class="st2" d="M16,85.7c0,0-1.2-15.1,15.8-31.4c0,0,10-11.7,30.1-10.4c0,0,2,0.4-0.6,3c0,0-5.7,8.8,5.4,16.4
	c0,0,11.2,5.2,21.5-5.7l5.9-9.1c0,0,1.9-4.9,4.6-4.9c0,0-2.6-2.6-4.2-5.6l-2.4-6c0,0-2.9-10.3-13.3-12.5c0,0-14.5-4.9-17.5,5.7
	c0,0-3.3,5.2,1,10.9c0,0-0.3,1.8-1.4,1.6c0,0-5.2,0.1-6.9,0.3c0,0,1.6-12.1-6.2-14.2c0,0-10.2-1.8-10.2,5.4c0,0-1,6.5,5.4,4.3
	c0,0,0.4-0.8,1.6-2.2c0,0,2.9-3.4,4.7,1.9c0,0,2.1,4.9-2.3,6.1c0,0-23,9.6-34.9,33l0.6,6.4l1.4,3.4L16,85.7z"/>
<path id="XMLID_6_" class="st0" d="M96.6,132.2l4.8,7.7l8.5,0.2c0,0,6.2-0.3,6.2,6.3c0,0,0.2,5.4-4.7,5.4l-17,0.3v8h19.5
	c0,0,11.2-2,11.2-13.7c0,0,0.6-13.8-10.7-14l-7.7-0.2H96.6z"/>
<path id="XMLID_5_" class="st0" d="M87.2,132.4h-9.2l0.1,15.6c0.7,6.5-13.3,6.4-13.7,1l0.1-13.3c0.3-0.1-5,4.6-10.3,0.1l-0.2,12
	c-0.5,6.8-13.9,7.4-13.9-1.1v-14.2H15.4c0,0-12,0.6-12,14.1c0,0-0.2,11.8,11.5,13.5l16.8,0.1l-4.8-7.5h-9c0,0-5.4-1.1-5.4-5.9
	c0,0-0.9-6.4,5.8-6.4h11.9v8.8c0,0,1.7,10.9,15.7,11.5c0,0,10.4,0.8,13.7-4.3c0,0,2.2,4.8,13.5,4.1c7.4,0,14-4.4,14.1-12.2l0.2-5.2
	V132.4z"/>
<path id="XMLID_4_" class="st0" d="M59.3,124.8c3.5,0,6.3,2.6,6.3,5.7c0,3.2-2.8,5.7-6.3,5.7c-3.5,0-6.3-2.6-6.3-5.7
	C52.9,127.4,55.8,124.8,59.3,124.8"/>
<path id="XMLID_3_" class="st0" d="M65.6,161.6c3.5,0,6.3,2.6,6.3,5.7c0,3.2-2.8,5.7-6.3,5.7c-3.5,0-6.3-2.6-6.3-5.7
	C59.3,164.1,62.1,161.6,65.6,161.6"/>
<path id="XMLID_2_" class="st0" d="M52.4,161.6c3.5,0,6.3,2.6,6.3,5.7c0,3.2-2.8,5.7-6.3,5.7c-3.5,0-6.3-2.6-6.3-5.7
	C46.1,164.1,48.9,161.6,52.4,161.6"/>
</svg>
