<?xml version="1.0" encoding="utf-8"?>
<!-- Generator: Adobe Illustrator 19.0.0, SVG Export Plug-In . SVG Version: 6.00 Build 0)  -->
<svg version="1.0" id="Layer_1" xmlns="http://www.w3.org/2000/svg" xmlns:xlink="http://www.w3.org/1999/xlink" x="0px" y="0px"
	 viewBox="-169 229.5 160 43.5" style="enable-background:new -169 229.5 160 43.5;" xml:space="preserve">
<style type="text/css">
	.st0{fill:#FFFFFF;}
	.st1{fill:#FFFFFF;stroke:#874298;stroke-width:4;stroke-miterlimit:22.9256;}
	.st2{fill:#874298;}
</style>
<rect id="XMLID_5_" x="-53.2" y="229.5" class="st0" width="44.3" height="43.5"/>
<ellipse id="XMLID_4_" class="st1" cx="-31.1" cy="251.1" rx="19.5" ry="18.5"/>
<path id="XMLID_3_" class="st2" d="M-13.7,243.5c0,0,0.4,5.4-5.6,11.1c0,0-3.6,4.2-10.7,3.7c0,0-0.7-0.2,0.2-1.1c0,0,2-3.1-2-5.8
	c0,0-3.9-1.8-7.6,2l-2,3.3c0,0-0.7,1.7-1.6,1.7c0,0,0.9,0.9,1.5,2l0.8,2.1c0,0,1.1,3.6,4.8,4.5c0,0,5.1,1.7,6.2-2
	c0,0,1.1-1.8-0.4-3.8c0,0,0.2-0.6,0.5-0.6c0,0,1.8-0.1,2.5-0.2c0,0-0.6,4.3,2.2,5.1c0,0,3.6,0.6,3.6-2c0,0,0.4-2.3-2-1.5
	c0,0-0.2,0.3-0.6,0.8c0,0-1.1,1.2-1.7-0.7c0,0-0.8-1.7,0.8-2.2c0,0,8.2-3.4,12.4-11.7l-0.2-2.3l-0.5-1.2L-13.7,243.5z"/>
<path id="XMLID_2_" class="st2" d="M-48.5,259.5c0,0-0.4-5.4,5.6-11.1c0,0,3.6-4.2,10.7-3.7c0,0,0.7,0.2-0.2,1.1c0,0-2,3.1,2,5.8
	c0,0,3.9,1.8,7.6-2l2-3.3c0,0,0.7-1.7,1.6-1.7c0,0-0.9-0.9-1.5-2l-0.8-2.1c0,0-1.1-3.6-4.8-4.5c0,0-5.1-1.7-6.2,2
	c0,0-1.1,1.8,0.4,3.8c0,0-0.2,0.6-0.5,0.6c0,0-1.8,0.1-2.5,0.2c0,0,0.6-4.3-2.2-5.1c0,0-3.6-0.6-3.6,2c0,0-0.4,2.3,2,1.5
	c0,0,0.2-0.3,0.6-0.8c0,0,1.1-1.2,1.7,0.7c0,0,0.8,1.7-0.8,2.2c0,0-8.2,3.4-12.4,11.7l0.2,2.3l0.5,1.2L-48.5,259.5z"/>
<g>
	<path class="st0" d="M-153,266c0,1.6-0.5,3-1.4,4c-1,1.1-2.3,1.6-3.9,1.6h-3.2c-1.4,0-2.7-0.6-3.6-1.7c-1-1.1-1.4-2.3-1.4-3.8v-4.4
		h2.1v4.6c0,0.9,0.3,1.6,1,2.2c0.7,0.6,1.5,0.9,2.4,0.9h2.7c0.9,0,1.7-0.3,2.4-0.9c0.7-0.6,1-1.3,1-2.2v-6.8h2.1V266z M-158.9,259.2
		c0,0.4-0.1,0.7-0.4,1s-0.6,0.4-1,0.4c-1,0-1.6-0.5-1.6-1.4c0-0.8,0.5-1.3,1.5-1.3C-159.5,257.9-158.9,258.3-158.9,259.2z"/>
	<path class="st0" d="M-147.4,266.3h-2.1v-13.5h2.1V266.3z"/>
	<path class="st0" d="M-134,266.3c-1.1,0-1.8-0.3-2.3-1c0,1.8-0.4,3.2-1.3,4.4c-1,1.3-2.3,1.9-4,1.9h-2.7l-0.3-2.1h2.9
		c0.9,0,1.7-0.3,2.3-0.9c0.7-0.6,1-1.3,1-2.2v-6.8h2.1v3c0,1,0.8,1.4,2.3,1.5V266.3z"/>
	<path class="st0" d="M-128.4,266.3h-6.2v-2.1h6.2V266.3z"/>
	<path class="st0" d="M-121.8,262.9c0,0.9-0.3,1.7-0.8,2.4c-0.6,0.7-1.3,1.1-2.2,1.1h-4.5v-2.1h3.9c0.6,0,1-0.1,1.2-0.4
		c0.2-0.2,0.3-0.7,0.3-1.3v-2.9h2.1V262.9z M-126.2,270.3c0,0.4-0.1,0.7-0.4,0.9s-0.6,0.4-0.9,0.4c-0.4,0-0.7-0.1-1-0.3
		c-0.3-0.2-0.5-0.5-0.5-0.9c0-0.8,0.4-1.2,1.3-1.2C-126.6,269.2-126.2,269.6-126.2,270.3z M-122.1,270.3c0,0.4-0.1,0.7-0.4,0.9
		s-0.6,0.4-0.9,0.4c-0.4,0-0.7-0.1-1-0.3c-0.3-0.2-0.5-0.5-0.5-0.9c0-0.8,0.4-1.2,1.3-1.2C-122.6,269.2-122.1,269.6-122.1,270.3z"/>
	<path class="st0" d="M-116.5,266.3h-2.1v-13.5h2.1V266.3z"/>
	<path class="st0" d="M-96.1,266.3c-0.9,0-1.6-0.1-2-0.4c-0.2-0.1-0.9-0.8-2.2-1.9c-0.8,1.7-2.1,2.5-3.9,2.5c-1.2,0-2.1-0.4-2.9-1.1
		s-1.1-1.7-1.1-2.9c0-1.2,0.8-2.6,2.4-4.3l-0.6-0.7l1.4-1.4l6.3,6.7c0.6,0.6,0.9,0.9,1.1,1c0.3,0.2,0.8,0.3,1.4,0.3V266.3z
		 M-102.2,262.7c0-0.5-0.1-0.9-0.4-1.2l-1.7-1.7c-0.7,0.6-1.1,1-1.2,1.2c-0.4,0.5-0.6,1.1-0.6,1.6c0,0.5,0.2,1,0.6,1.3
		s0.8,0.5,1.4,0.5c0.5,0,1-0.2,1.4-0.5S-102.2,263.2-102.2,262.7z"/>
	<path class="st0" d="M-88,266.3h-0.7c-1.3,0-2.3-0.3-2.9-0.8c-0.7,0.5-1.4,0.8-2,0.8h-3.5v-2.1c2.2,0,3.4-0.1,3.7-0.2
		c0.5-0.2,0.7-0.8,0.7-1.9c0-0.3,0-0.7,0-1.2c0-0.6,0-1,0-1.2h2.1v2.9c0,1,0.9,1.6,2.6,1.6V266.3z M-92.5,256.4
		c0,0.4-0.1,0.8-0.4,1.1s-0.6,0.4-1,0.4c-1.1,0-1.6-0.5-1.6-1.5c0-0.8,0.5-1.3,1.5-1.3C-93.1,255.1-92.5,255.5-92.5,256.4z"/>
	<path class="st0" d="M-82.4,266.3h-6.2v-2.1h6.2V266.3z"/>
	<path class="st0" d="M-76.9,266.3h-6.2v-2.1h6.2V266.3z"/>
	<path class="st0" d="M-70.2,262.9c0,0.9-0.3,1.7-0.8,2.4c-0.6,0.7-1.3,1.1-2.2,1.1h-4.5v-2.1h3.9c0.6,0,1-0.1,1.2-0.4
		c0.2-0.2,0.3-0.7,0.3-1.3v-2.9h2.1V262.9z M-74.6,270.3c0,0.4-0.1,0.7-0.4,0.9s-0.6,0.4-0.9,0.4c-0.4,0-0.7-0.1-1-0.3
		c-0.3-0.2-0.5-0.5-0.5-0.9c0-0.8,0.4-1.2,1.3-1.2C-75.1,269.2-74.6,269.6-74.6,270.3z M-70.6,270.3c0,0.4-0.1,0.7-0.4,0.9
		s-0.6,0.4-0.9,0.4c-0.4,0-0.7-0.1-1-0.3c-0.3-0.2-0.5-0.5-0.5-0.9c0-0.8,0.4-1.2,1.3-1.2C-71.1,269.2-70.6,269.6-70.6,270.3z"/>
	<path class="st0" d="M-58.3,263.5c0,0.8-0.3,1.5-0.9,2c-0.6,0.5-1.3,0.7-2.2,0.7H-68l-0.3-2.1h6.7c0.8,0,1.2-0.3,1.2-0.8
		c0-0.3-0.1-0.5-0.3-0.8l-4.7-5l1.4-1.4l4.8,5C-58.6,261.8-58.3,262.6-58.3,263.5z"/>
</g>
<g>
	<path class="st0" d="M-153,266c0,1.6-0.5,3-1.4,4c-1,1.1-2.3,1.6-3.9,1.6h-3.2c-1.4,0-2.7-0.6-3.6-1.7c-1-1.1-1.4-2.3-1.4-3.8v-4.4
		h2.1v4.6c0,0.9,0.3,1.6,1,2.2c0.7,0.6,1.5,0.9,2.4,0.9h2.7c0.9,0,1.7-0.3,2.4-0.9c0.7-0.6,1-1.3,1-2.2v-6.8h2.1V266z M-158.9,259.2
		c0,0.4-0.1,0.7-0.4,1s-0.6,0.4-1,0.4c-1,0-1.6-0.5-1.6-1.4c0-0.8,0.5-1.3,1.5-1.3C-159.5,257.9-158.9,258.3-158.9,259.2z"/>
	<path class="st0" d="M-147.4,266.3h-2.1v-13.5h2.1V266.3z"/>
	<path class="st0" d="M-134,266.3c-1.1,0-1.8-0.3-2.3-1c0,1.8-0.4,3.2-1.3,4.4c-1,1.3-2.3,1.9-4,1.9h-2.7l-0.3-2.1h2.9
		c0.9,0,1.7-0.3,2.3-0.9c0.7-0.6,1-1.3,1-2.2v-6.8h2.1v3c0,1,0.8,1.4,2.3,1.5V266.3z"/>
	<path class="st0" d="M-128.4,266.3h-6.2v-2.1h6.2V266.3z"/>
	<path class="st0" d="M-121.8,262.9c0,0.9-0.3,1.7-0.8,2.4c-0.6,0.7-1.3,1.1-2.2,1.1h-4.5v-2.1h3.9c0.6,0,1-0.1,1.2-0.4
		c0.2-0.2,0.3-0.7,0.3-1.3v-2.9h2.1V262.9z M-126.2,270.3c0,0.4-0.1,0.7-0.4,0.9s-0.6,0.4-0.9,0.4c-0.4,0-0.7-0.1-1-0.3
		c-0.3-0.2-0.5-0.5-0.5-0.9c0-0.8,0.4-1.2,1.3-1.2C-126.6,269.2-126.2,269.6-126.2,270.3z M-122.1,270.3c0,0.4-0.1,0.7-0.4,0.9
		s-0.6,0.4-0.9,0.4c-0.4,0-0.7-0.1-1-0.3c-0.3-0.2-0.5-0.5-0.5-0.9c0-0.8,0.4-1.2,1.3-1.2C-122.6,269.2-122.1,269.6-122.1,270.3z"/>
	<path class="st0" d="M-116.5,266.3h-2.1v-13.5h2.1V266.3z"/>
	<path class="st0" d="M-96.1,266.3c-0.9,0-1.6-0.1-2-0.4c-0.2-0.1-0.9-0.8-2.2-1.9c-0.8,1.7-2.1,2.5-3.9,2.5c-1.2,0-2.1-0.4-2.9-1.1
		s-1.1-1.7-1.1-2.9c0-1.2,0.8-2.6,2.4-4.3l-0.6-0.7l1.4-1.4l6.3,6.7c0.6,0.6,0.9,0.9,1.1,1c0.3,0.2,0.8,0.3,1.4,0.3V266.3z
		 M-102.2,262.7c0-0.5-0.1-0.9-0.4-1.2l-1.7-1.7c-0.7,0.6-1.1,1-1.2,1.2c-0.4,0.5-0.6,1.1-0.6,1.6c0,0.5,0.2,1,0.6,1.3
		s0.8,0.5,1.4,0.5c0.5,0,1-0.2,1.4-0.5S-102.2,263.2-102.2,262.7z"/>
	<path class="st0" d="M-88,266.3h-0.7c-1.3,0-2.3-0.3-2.9-0.8c-0.7,0.5-1.4,0.8-2,0.8h-3.5v-2.1c2.2,0,3.4-0.1,3.7-0.2
		c0.5-0.2,0.7-0.8,0.7-1.9c0-0.3,0-0.7,0-1.2c0-0.6,0-1,0-1.2h2.1v2.9c0,1,0.9,1.6,2.6,1.6V266.3z M-92.5,256.4
		c0,0.4-0.1,0.8-0.4,1.1s-0.6,0.4-1,0.4c-1.1,0-1.6-0.5-1.6-1.5c0-0.8,0.5-1.3,1.5-1.3C-93.1,255.1-92.5,255.5-92.5,256.4z"/>
	<path class="st0" d="M-82.4,266.3h-6.2v-2.1h6.2V266.3z"/>
	<path class="st0" d="M-76.9,266.3h-6.2v-2.1h6.2V266.3z"/>
	<path class="st0" d="M-70.2,262.9c0,0.9-0.3,1.7-0.8,2.4c-0.6,0.7-1.3,1.1-2.2,1.1h-4.5v-2.1h3.9c0.6,0,1-0.1,1.2-0.4
		c0.2-0.2,0.3-0.7,0.3-1.3v-2.9h2.1V262.9z M-74.6,270.3c0,0.4-0.1,0.7-0.4,0.9s-0.6,0.4-0.9,0.4c-0.4,0-0.7-0.1-1-0.3
		c-0.3-0.2-0.5-0.5-0.5-0.9c0-0.8,0.4-1.2,1.3-1.2C-75.1,269.2-74.6,269.6-74.6,270.3z M-70.6,270.3c0,0.4-0.1,0.7-0.4,0.9
		s-0.6,0.4-0.9,0.4c-0.4,0-0.7-0.1-1-0.3c-0.3-0.2-0.5-0.5-0.5-0.9c0-0.8,0.4-1.2,1.3-1.2C-71.1,269.2-70.6,269.6-70.6,270.3z"/>
	<path class="st0" d="M-58.3,263.5c0,0.8-0.3,1.5-0.9,2c-0.6,0.5-1.3,0.7-2.2,0.7H-68l-0.3-2.1h6.7c0.8,0,1.2-0.3,1.2-0.8
		c0-0.3-0.1-0.5-0.3-0.8l-4.7-5l1.4-1.4l4.8,5C-58.6,261.8-58.3,262.6-58.3,263.5z"/>
</g>
<g>
	<path class="st0" d="M-153,266c0,1.6-0.5,3-1.4,4c-1,1.1-2.3,1.6-3.9,1.6h-3.2c-1.4,0-2.7-0.6-3.6-1.7c-1-1.1-1.4-2.3-1.4-3.8v-4.4
		h2.1v4.6c0,0.9,0.3,1.6,1,2.2c0.7,0.6,1.5,0.9,2.4,0.9h2.7c0.9,0,1.7-0.3,2.4-0.9c0.7-0.6,1-1.3,1-2.2v-6.8h2.1V266z M-158.9,259.2
		c0,0.4-0.1,0.7-0.4,1s-0.6,0.4-1,0.4c-1,0-1.6-0.5-1.6-1.4c0-0.8,0.5-1.3,1.5-1.3C-159.5,257.9-158.9,258.3-158.9,259.2z"/>
	<path class="st0" d="M-147.4,266.3h-2.1v-13.5h2.1V266.3z"/>
	<path class="st0" d="M-134,266.3c-1.1,0-1.8-0.3-2.3-1c0,1.8-0.4,3.2-1.3,4.4c-1,1.3-2.3,1.9-4,1.9h-2.7l-0.3-2.1h2.9
		c0.9,0,1.7-0.3,2.3-0.9c0.7-0.6,1-1.3,1-2.2v-6.8h2.1v3c0,1,0.8,1.4,2.3,1.5V266.3z"/>
	<path class="st0" d="M-128.4,266.3h-6.2v-2.1h6.2V266.3z"/>
	<path class="st0" d="M-121.8,262.9c0,0.9-0.3,1.7-0.8,2.4c-0.6,0.7-1.3,1.1-2.2,1.1h-4.5v-2.1h3.9c0.6,0,1-0.1,1.2-0.4
		c0.2-0.2,0.3-0.7,0.3-1.3v-2.9h2.1V262.9z M-126.2,270.3c0,0.4-0.1,0.7-0.4,0.9s-0.6,0.4-0.9,0.4c-0.4,0-0.7-0.1-1-0.3
		c-0.3-0.2-0.5-0.5-0.5-0.9c0-0.8,0.4-1.2,1.3-1.2C-126.6,269.2-126.2,269.6-126.2,270.3z M-122.1,270.3c0,0.4-0.1,0.7-0.4,0.9
		s-0.6,0.4-0.9,0.4c-0.4,0-0.7-0.1-1-0.3c-0.3-0.2-0.5-0.5-0.5-0.9c0-0.8,0.4-1.2,1.3-1.2C-122.6,269.2-122.1,269.6-122.1,270.3z"/>
	<path class="st0" d="M-116.5,266.3h-2.1v-13.5h2.1V266.3z"/>
	<path class="st0" d="M-96.1,266.3c-0.9,0-1.6-0.1-2-0.4c-0.2-0.1-0.9-0.8-2.2-1.9c-0.8,1.7-2.1,2.5-3.9,2.5c-1.2,0-2.1-0.4-2.9-1.1
		s-1.1-1.7-1.1-2.9c0-1.2,0.8-2.6,2.4-4.3l-0.6-0.7l1.4-1.4l6.3,6.7c0.6,0.6,0.9,0.9,1.1,1c0.3,0.2,0.8,0.3,1.4,0.3V266.3z
		 M-102.2,262.7c0-0.5-0.1-0.9-0.4-1.2l-1.7-1.7c-0.7,0.6-1.1,1-1.2,1.2c-0.4,0.5-0.6,1.1-0.6,1.6c0,0.5,0.2,1,0.6,1.3
		s0.8,0.5,1.4,0.5c0.5,0,1-0.2,1.4-0.5S-102.2,263.2-102.2,262.7z"/>
	<path class="st0" d="M-88,266.3h-0.7c-1.3,0-2.3-0.3-2.9-0.8c-0.7,0.5-1.4,0.8-2,0.8h-3.5v-2.1c2.2,0,3.4-0.1,3.7-0.2
		c0.5-0.2,0.7-0.8,0.7-1.9c0-0.3,0-0.7,0-1.2c0-0.6,0-1,0-1.2h2.1v2.9c0,1,0.9,1.6,2.6,1.6V266.3z M-92.5,256.4
		c0,0.4-0.1,0.8-0.4,1.1s-0.6,0.4-1,0.4c-1.1,0-1.6-0.5-1.6-1.5c0-0.8,0.5-1.3,1.5-1.3C-93.1,255.1-92.5,255.5-92.5,256.4z"/>
	<path class="st0" d="M-82.4,266.3h-6.2v-2.1h6.2V266.3z"/>
	<path class="st0" d="M-76.9,266.3h-6.2v-2.1h6.2V266.3z"/>
	<path class="st0" d="M-70.2,262.9c0,0.9-0.3,1.7-0.8,2.4c-0.6,0.7-1.3,1.1-2.2,1.1h-4.5v-2.1h3.9c0.6,0,1-0.1,1.2-0.4
		c0.2-0.2,0.3-0.7,0.3-1.3v-2.9h2.1V262.9z M-74.6,270.3c0,0.4-0.1,0.7-0.4,0.9s-0.6,0.4-0.9,0.4c-0.4,0-0.7-0.1-1-0.3
		c-0.3-0.2-0.5-0.5-0.5-0.9c0-0.8,0.4-1.2,1.3-1.2C-75.1,269.2-74.6,269.6-74.6,270.3z M-70.6,270.3c0,0.4-0.1,0.7-0.4,0.9
		s-0.6,0.4-0.9,0.4c-0.4,0-0.7-0.1-1-0.3c-0.3-0.2-0.5-0.5-0.5-0.9c0-0.8,0.4-1.2,1.3-1.2C-71.1,269.2-70.6,269.6-70.6,270.3z"/>
	<path class="st0" d="M-58.3,263.5c0,0.8-0.3,1.5-0.9,2c-0.6,0.5-1.3,0.7-2.2,0.7H-68l-0.3-2.1h6.7c0.8,0,1.2-0.3,1.2-0.8
		c0-0.3-0.1-0.5-0.3-0.8l-4.7-5l1.4-1.4l4.8,5C-58.6,261.8-58.3,262.6-58.3,263.5z"/>
</g>
</svg>
