<?xml version="1.0" encoding="utf-8"?>
<!-- Generator: Adobe Illustrator 19.0.0, SVG Export Plug-In . SVG Version: 6.00 Build 0)  -->
<svg version="1.1" id="Layer_1" xmlns="http://www.w3.org/2000/svg" xmlns:xlink="http://www.w3.org/1999/xlink" x="0px" y="0px"
	 viewBox="60 -17.7 279.7 78.2" style="enable-background:new 60 -17.7 279.7 78.2;" xml:space="preserve">
<style type="text/css">
	.st0{fill:#FFFFFF;}
	.st1{fill:none;stroke:#9124B5;stroke-width:4.9997;stroke-miterlimit:22.9256;}
	.st2{fill:#9124B5;}
</style>
<rect id="XMLID_5_" x="60.4" y="-15.8" class="st0" width="76.2" height="76.3"/>
<ellipse id="XMLID_4_" class="st1" cx="99" cy="22" rx="34.1" ry="32.4"/>
<path id="XMLID_3_" class="st2" d="M129.4,8.7c0,0,0.7,9.4-9.8,19.5c0,0-6.2,7.3-18.7,6.5c0,0-1.2-0.3,0.4-1.9c0,0,3.6-5.5-3.4-10.2
	c0,0-6.9-3.2-13.3,3.5L81,31.8c0,0-1.2,3-2.8,3c0,0,1.6,1.6,2.6,3.5l1.5,3.7c0,0,1.8,6.4,8.3,7.8c0,0,9,3,10.9-3.5
	c0,0,2-3.2-0.6-6.7c0,0,0.2-1.1,0.9-1c0,0,3.2-0.1,4.3-0.2c0,0-1,7.5,3.8,8.9c0,0,6.3,1.1,6.3-3.4c0,0,0.6-4-3.4-2.7
	c0,0-0.3,0.5-1,1.3c0,0-1.8,2.1-2.9-1.2c0,0-1.3-3,1.4-3.8c0,0,14.3-6,21.7-20.5l-0.4-4l-0.9-2.1L129.4,8.7z"/>
<path id="XMLID_2_" class="st2" d="M68.6,36.8c0,0-0.7-9.4,9.8-19.5c0,0,6.2-7.3,18.7-6.5c0,0,1.2,0.3-0.4,1.9c0,0-3.6,5.5,3.4,10.2
	c0,0,6.9,3.2,13.3-3.5l3.6-5.7c0,0,1.2-3,2.8-3c0,0-1.6-1.6-2.6-3.5l-1.5-3.7c0,0-1.8-6.4-8.3-7.8c0,0-9-3-10.9,3.5
	c0,0-2,3.2,0.6,6.7c0,0-0.2,1.1-0.9,1c0,0-3.2,0.1-4.3,0.2c0,0,1-7.5-3.8-8.9c0,0-6.3-1.1-6.3,3.4c0,0-0.6,4,3.4,2.7
	c0,0,0.3-0.5,1-1.3c0,0,1.8-2.1,2.9,1.2c0,0,1.3,3-1.4,3.8c0,0-14.3,6-21.7,20.5l0.4,4l0.9,2.1L68.6,36.8z"/>
<g>
	<path class="st0" d="M145.4,38.3h4.4c3.5,0,6,0.9,7.7,2.7c1.7,1.8,2.5,3.9,2.5,6.3s-0.9,4.5-2.6,6.3c-1.7,1.8-4.3,2.7-7.6,2.7h-4.4
		V38.3z M147.9,40.7v13.2h0.1c1.8,0,3.2-0.1,4.1-0.2c0.9-0.1,1.8-0.5,2.6-1.1c0.8-0.6,1.5-1.3,2-2.2c0.5-0.9,0.7-1.9,0.7-3
		c0-1.4-0.4-2.6-1.2-3.8c-0.8-1.1-1.7-1.9-2.8-2.3s-2.6-0.6-4.4-0.6H147.9z"/>
	<path class="st0" d="M165.6,38.3h2.4v18h-2.4V38.3z"/>
	<path class="st0" d="M174.6,37.6l13.3,13.7v-13h2.5v18.9l-13.3-13.7v12.8h-2.5V37.6z"/>
	<path class="st0" d="M196.7,38.3h10v2.5h-7.6v4.5h7.6v2.4h-7.6v6.2h7.6v2.4h-10V38.3z"/>
	<path class="st0" d="M212.4,38.3h2.5v6.9h8.6v-6.9h2.4v18h-2.4v-8.7h-8.6v8.7h-2.5V38.3z"/>
	<path class="st0" d="M243.3,38.3h2.4v18h-2.4V38.3z"/>
	<path class="st0" d="M252.8,38.3h3.9c1.9,0,3.5,0.5,4.8,1.5c1.2,1,1.8,2.2,1.8,3.7c0,1.2-0.4,2.3-1.2,3.2c-0.8,0.9-2,1.6-3.7,2
		l5.2,7.7h-2.8l-5-7.4h-0.6v7.4h-2.5V38.3H252.8z M255.3,40.5v6.3c3.6,0.1,5.5-1,5.5-3.2c0-0.8-0.2-1.4-0.6-1.9s-1-0.8-1.7-1
		S256.7,40.5,255.3,40.5z"/>
	<path class="st0" d="M276.4,37.6l8.5,18.7h-2.5l-2.1-4.6h-7.7l-2.1,4.6h-2.6L276.4,37.6z M276.4,43.2l-2.9,6.4h5.8L276.4,43.2z"/>
	<path class="st0" d="M289.8,37.6l13.3,13.7v-13h2.5v18.9l-13.3-13.7v12.8h-2.5V37.6z"/>
</g>
<g>
	<path class="st0" d="M145.4,38.3h4.4c3.5,0,6,0.9,7.7,2.7c1.7,1.8,2.5,3.9,2.5,6.3s-0.9,4.5-2.6,6.3c-1.7,1.8-4.3,2.7-7.6,2.7h-4.4
		V38.3z M147.9,40.7v13.2h0.1c1.8,0,3.2-0.1,4.1-0.2c0.9-0.1,1.8-0.5,2.6-1.1c0.8-0.6,1.5-1.3,2-2.2c0.5-0.9,0.7-1.9,0.7-3
		c0-1.4-0.4-2.6-1.2-3.8c-0.8-1.1-1.7-1.9-2.8-2.3s-2.6-0.6-4.4-0.6H147.9z"/>
	<path class="st0" d="M165.6,38.3h2.4v18h-2.4V38.3z"/>
	<path class="st0" d="M174.6,37.6l13.3,13.7v-13h2.5v18.9l-13.3-13.7v12.8h-2.5V37.6z"/>
	<path class="st0" d="M196.7,38.3h10v2.5h-7.6v4.5h7.6v2.4h-7.6v6.2h7.6v2.4h-10V38.3z"/>
	<path class="st0" d="M212.4,38.3h2.5v6.9h8.6v-6.9h2.4v18h-2.4v-8.7h-8.6v8.7h-2.5V38.3z"/>
	<path class="st0" d="M243.3,38.3h2.4v18h-2.4V38.3z"/>
	<path class="st0" d="M252.8,38.3h3.9c1.9,0,3.5,0.5,4.8,1.5c1.2,1,1.8,2.2,1.8,3.7c0,1.2-0.4,2.3-1.2,3.2c-0.8,0.9-2,1.6-3.7,2
		l5.2,7.7h-2.8l-5-7.4h-0.6v7.4h-2.5V38.3H252.8z M255.3,40.5v6.3c3.6,0.1,5.5-1,5.5-3.2c0-0.8-0.2-1.4-0.6-1.9s-1-0.8-1.7-1
		S256.7,40.5,255.3,40.5z"/>
	<path class="st0" d="M276.4,37.6l8.5,18.7h-2.5l-2.1-4.6h-7.7l-2.1,4.6h-2.6L276.4,37.6z M276.4,43.2l-2.9,6.4h5.8L276.4,43.2z"/>
	<path class="st0" d="M289.8,37.6l13.3,13.7v-13h2.5v18.9l-13.3-13.7v12.8h-2.5V37.6z"/>
</g>
<g>
	<path class="st0" d="M145.4,38.3h4.4c3.5,0,6,0.9,7.7,2.7c1.7,1.8,2.5,3.9,2.5,6.3s-0.9,4.5-2.6,6.3c-1.7,1.8-4.3,2.7-7.6,2.7h-4.4
		V38.3z M147.9,40.7v13.2h0.1c1.8,0,3.2-0.1,4.1-0.2c0.9-0.1,1.8-0.5,2.6-1.1c0.8-0.6,1.5-1.3,2-2.2c0.5-0.9,0.7-1.9,0.7-3
		c0-1.4-0.4-2.6-1.2-3.8c-0.8-1.1-1.7-1.9-2.8-2.3s-2.6-0.6-4.4-0.6H147.9z"/>
	<path class="st0" d="M165.6,38.3h2.4v18h-2.4V38.3z"/>
	<path class="st0" d="M174.6,37.6l13.3,13.7v-13h2.5v18.9l-13.3-13.7v12.8h-2.5V37.6z"/>
	<path class="st0" d="M196.7,38.3h10v2.5h-7.6v4.5h7.6v2.4h-7.6v6.2h7.6v2.4h-10V38.3z"/>
	<path class="st0" d="M212.4,38.3h2.5v6.9h8.6v-6.9h2.4v18h-2.4v-8.7h-8.6v8.7h-2.5V38.3z"/>
	<path class="st0" d="M243.3,38.3h2.4v18h-2.4V38.3z"/>
	<path class="st0" d="M252.8,38.3h3.9c1.9,0,3.5,0.5,4.8,1.5c1.2,1,1.8,2.2,1.8,3.7c0,1.2-0.4,2.3-1.2,3.2c-0.8,0.9-2,1.6-3.7,2
		l5.2,7.7h-2.8l-5-7.4h-0.6v7.4h-2.5V38.3H252.8z M255.3,40.5v6.3c3.6,0.1,5.5-1,5.5-3.2c0-0.8-0.2-1.4-0.6-1.9s-1-0.8-1.7-1
		S256.7,40.5,255.3,40.5z"/>
	<path class="st0" d="M276.4,37.6l8.5,18.7h-2.5l-2.1-4.6h-7.7l-2.1,4.6h-2.6L276.4,37.6z M276.4,43.2l-2.9,6.4h5.8L276.4,43.2z"/>
	<path class="st0" d="M289.8,37.6l13.3,13.7v-13h2.5v18.9l-13.3-13.7v12.8h-2.5V37.6z"/>
</g>
</svg>
