<?xml version="1.0" encoding="utf-8"?>
<!-- Generator: Adobe Illustrator 19.0.0, SVG Export Plug-In . SVG Version: 6.00 Build 0)  -->
<svg version="1.0" id="Layer_1" xmlns="http://www.w3.org/2000/svg" xmlns:xlink="http://www.w3.org/1999/xlink" x="0px" y="0px"
	 viewBox="-109 211.8 279.7 78.2" style="enable-background:new -109 211.8 279.7 78.2;" xml:space="preserve">
<style type="text/css">
	.st0{fill:#FFFFFF;}
	.st1{fill:#FFFFFF;stroke:#9124B5;stroke-width:4;stroke-miterlimit:22.9256;}
	.st2{fill:#9124B5;}
</style>
<rect id="XMLID_5_" x="94.7" y="213.7" class="st0" width="76.2" height="76.3"/>
<ellipse id="XMLID_4_" class="st1" cx="133.4" cy="251.5" rx="34.1" ry="32.4"/>
<path id="XMLID_3_" class="st2" d="M163.7,238.2c0,0,0.7,9.4-9.8,19.5c0,0-6.2,7.3-18.7,6.5c0,0-1.2-0.3,0.4-1.9
	c0,0,3.6-5.5-3.4-10.2c0,0-6.9-3.2-13.3,3.5l-3.6,5.7c0,0-1.2,3-2.8,3c0,0,1.6,1.6,2.6,3.5l1.5,3.7c0,0,1.8,6.4,8.3,7.8
	c0,0,9,3,10.9-3.5c0,0,2-3.2-0.6-6.7c0,0,0.2-1.1,0.9-1c0,0,3.2-0.1,4.3-0.2c0,0-1,7.5,3.8,8.9c0,0,6.3,1.1,6.3-3.4
	c0,0,0.6-4-3.4-2.7c0,0-0.3,0.5-1,1.3c0,0-1.8,2.1-2.9-1.2c0,0-1.3-3,1.4-3.8c0,0,14.3-6,21.7-20.5l-0.4-4l-0.9-2.1L163.7,238.2z"/>
<path id="XMLID_2_" class="st2" d="M103,266.3c0,0-0.7-9.4,9.8-19.5c0,0,6.2-7.3,18.7-6.5c0,0,1.2,0.3-0.4,1.9c0,0-3.6,5.5,3.4,10.2
	c0,0,6.9,3.2,13.3-3.5l3.6-5.7c0,0,1.2-3,2.8-3c0,0-1.6-1.6-2.6-3.5l-1.5-3.7c0,0-1.8-6.4-8.3-7.8c0,0-9-3-10.9,3.5
	c0,0-2,3.2,0.6,6.7c0,0-0.2,1.1-0.9,1c0,0-3.2,0.1-4.3,0.2c0,0,1-7.5-3.8-8.9c0,0-6.3-1.1-6.3,3.4c0,0-0.6,4,3.4,2.7
	c0,0,0.3-0.5,1-1.3c0,0,1.8-2.1,2.9,1.2c0,0,1.3,3-1.4,3.8c0,0-14.3,6-21.7,20.5l0.4,4l0.9,2.1L103,266.3z"/>
<g>
	<path class="st0" d="M-85.4,276.5c0,2.5-0.7,4.6-2.2,6.2c-1.5,1.7-3.5,2.5-6,2.5h-5c-2.2,0-4.1-0.8-5.6-2.5
		c-1.5-1.6-2.2-3.6-2.2-5.8v-6.8h3.2v7.2c0,1.4,0.5,2.5,1.6,3.5c1,0.9,2.2,1.3,3.6,1.3h4.2c1.4,0,2.6-0.4,3.6-1.3
		c1-0.9,1.5-2,1.5-3.4v-10.4h3.3V276.5z M-94.6,266.1c0,0.6-0.2,1.1-0.7,1.6c-0.4,0.4-1,0.7-1.6,0.7c-1.6,0-2.4-0.7-2.4-2.2
		c0-1.3,0.8-2,2.3-2C-95.4,264.2-94.6,264.8-94.6,266.1z"/>
	<path class="st0" d="M-76.9,277.1h-3.2v-20.8h3.2V277.1z"/>
	<path class="st0" d="M-56.2,277.1c-1.6,0-2.8-0.5-3.5-1.5c0,2.7-0.7,5-2,6.8c-1.5,2-3.5,3-6.2,3h-4.2l-0.5-3.2h4.5
		c1.4,0,2.6-0.4,3.6-1.3c1-0.9,1.6-2.1,1.6-3.5v-10.4h3.3v4.7c0,1.5,1.2,2.2,3.5,2.3V277.1z"/>
	<path class="st0" d="M-47.6,277.1h-9.5v-3.3h9.5V277.1z"/>
	<path class="st0" d="M-39.1,277.1h-9.5v-3.3h9.5V277.1z"/>
	<path class="st0" d="M-28.8,271.8c0,1.4-0.4,2.6-1.2,3.6c-0.9,1.1-2,1.6-3.4,1.6h-7v-3.2h5.9c0.9,0,1.5-0.2,1.9-0.6
		c0.3-0.4,0.5-1,0.5-1.9v-4.5h3.3V271.8z M-35.6,283.3c0,0.6-0.2,1-0.6,1.4c-0.4,0.4-0.9,0.5-1.5,0.5c-0.6,0-1.1-0.2-1.6-0.5
		c-0.5-0.4-0.7-0.8-0.7-1.4c0-1.2,0.7-1.8,2.1-1.8C-36.4,281.5-35.6,282.1-35.6,283.3z M-29.4,283.3c0,0.6-0.2,1-0.6,1.4
		c-0.4,0.4-0.9,0.5-1.5,0.5c-0.6,0-1.1-0.2-1.6-0.5c-0.5-0.4-0.7-0.8-0.7-1.4c0-1.2,0.7-1.8,2.1-1.8
		C-30.1,281.5-29.4,282.1-29.4,283.3z"/>
	<path class="st0" d="M-20.7,277.1h-3.2v-20.8h3.2V277.1z"/>
	<path class="st0" d="M10.7,277.1c-1.4,0-2.5-0.2-3.1-0.6c-0.3-0.2-1.5-1.2-3.4-3c-1.2,2.6-3.2,3.9-5.9,3.9c-1.8,0-3.3-0.6-4.4-1.8
		c-1.2-1.2-1.8-2.6-1.8-4.4c0-1.9,1.3-4.1,3.8-6.6l-0.9-1l2.2-2.2l9.7,10.4c0.9,0.9,1.4,1.4,1.6,1.6c0.5,0.3,1.2,0.4,2.2,0.5V277.1z
		 M1.3,271.4c0-0.8-0.2-1.4-0.6-1.8l-2.6-2.6c-1,1-1.6,1.6-1.9,1.9c-0.6,0.8-1,1.6-1,2.5c0,0.8,0.3,1.5,0.8,2
		c0.6,0.5,1.3,0.8,2.1,0.8c0.8,0,1.6-0.3,2.2-0.8C1,272.9,1.3,272.3,1.3,271.4z"/>
	<path class="st0" d="M23.3,277.1h-1.1c-2,0-3.6-0.4-4.5-1.3c-1.1,0.8-2.1,1.3-3.1,1.3H9.2v-3.2c3.4,0,5.3-0.1,5.7-0.2
		c0.7-0.3,1.1-1.2,1.1-2.9c0-0.4,0-1.1,0-1.9s0-1.5,0-1.9h3.3v4.5c0,1.6,1.3,2.4,4,2.5V277.1z M16.2,261.7c0,0.6-0.2,1.2-0.7,1.6
		c-0.4,0.4-1,0.7-1.6,0.7c-1.7,0-2.5-0.8-2.5-2.3c0-1.3,0.8-1.9,2.3-1.9C15.4,259.8,16.2,260.5,16.2,261.7z"/>
	<path class="st0" d="M31.8,277.1h-9.5v-3.3h9.5V277.1z"/>
	<path class="st0" d="M40.3,277.1h-9.5v-3.3h9.5V277.1z"/>
	<path class="st0" d="M48.8,277.1h-9.5v-3.3h9.5V277.1z"/>
	<path class="st0" d="M57.2,277.1h-9.5v-3.3h9.5V277.1z"/>
	<path class="st0" d="M67.5,271.8c0,1.4-0.4,2.6-1.2,3.6c-0.9,1.1-2,1.6-3.4,1.6h-7v-3.2h5.9c0.9,0,1.5-0.2,1.9-0.6s0.5-1,0.5-1.9
		v-4.5h3.3V271.8z M60.8,283.3c0,0.6-0.2,1-0.6,1.4c-0.4,0.4-0.9,0.5-1.5,0.5c-0.6,0-1.1-0.2-1.6-0.5c-0.5-0.4-0.7-0.8-0.7-1.4
		c0-1.2,0.7-1.8,2.1-1.8C60,281.5,60.8,282.1,60.8,283.3z M67,283.3c0,0.6-0.2,1-0.6,1.4s-0.9,0.5-1.5,0.5c-0.6,0-1.1-0.2-1.6-0.5
		c-0.5-0.4-0.7-0.8-0.7-1.4c0-1.2,0.7-1.8,2.1-1.8C66.2,281.5,67,282.1,67,283.3z"/>
	<path class="st0" d="M85.9,272.8c0,1.3-0.5,2.4-1.5,3.1c-0.9,0.7-2,1.1-3.3,1.1H71l-0.5-3.2h10.3c1.2,0,1.8-0.4,1.8-1.3
		c0-0.4-0.2-0.8-0.5-1.2l-7.3-7.8l2.2-2.2l7.3,7.7C85.4,270.2,85.9,271.4,85.9,272.8z"/>
</g>
<g>
	<path class="st0" d="M-85.4,276.5c0,2.5-0.7,4.6-2.2,6.2c-1.5,1.7-3.5,2.5-6,2.5h-5c-2.2,0-4.1-0.8-5.6-2.5
		c-1.5-1.6-2.2-3.6-2.2-5.8v-6.8h3.2v7.2c0,1.4,0.5,2.5,1.6,3.5c1,0.9,2.2,1.3,3.6,1.3h4.2c1.4,0,2.6-0.4,3.6-1.3
		c1-0.9,1.5-2,1.5-3.4v-10.4h3.3V276.5z M-94.6,266.1c0,0.6-0.2,1.1-0.7,1.6c-0.4,0.4-1,0.7-1.6,0.7c-1.6,0-2.4-0.7-2.4-2.2
		c0-1.3,0.8-2,2.3-2C-95.4,264.2-94.6,264.8-94.6,266.1z"/>
	<path class="st0" d="M-76.9,277.1h-3.2v-20.8h3.2V277.1z"/>
	<path class="st0" d="M-56.2,277.1c-1.6,0-2.8-0.5-3.5-1.5c0,2.7-0.7,5-2,6.8c-1.5,2-3.5,3-6.2,3h-4.2l-0.5-3.2h4.5
		c1.4,0,2.6-0.4,3.6-1.3c1-0.9,1.6-2.1,1.6-3.5v-10.4h3.3v4.7c0,1.5,1.2,2.2,3.5,2.3V277.1z"/>
	<path class="st0" d="M-47.6,277.1h-9.5v-3.3h9.5V277.1z"/>
	<path class="st0" d="M-39.1,277.1h-9.5v-3.3h9.5V277.1z"/>
	<path class="st0" d="M-28.8,271.8c0,1.4-0.4,2.6-1.2,3.6c-0.9,1.1-2,1.6-3.4,1.6h-7v-3.2h5.9c0.9,0,1.5-0.2,1.9-0.6
		c0.3-0.4,0.5-1,0.5-1.9v-4.5h3.3V271.8z M-35.6,283.3c0,0.6-0.2,1-0.6,1.4c-0.4,0.4-0.9,0.5-1.5,0.5c-0.6,0-1.1-0.2-1.6-0.5
		c-0.5-0.4-0.7-0.8-0.7-1.4c0-1.2,0.7-1.8,2.1-1.8C-36.4,281.5-35.6,282.1-35.6,283.3z M-29.4,283.3c0,0.6-0.2,1-0.6,1.4
		c-0.4,0.4-0.9,0.5-1.5,0.5c-0.6,0-1.1-0.2-1.6-0.5c-0.5-0.4-0.7-0.8-0.7-1.4c0-1.2,0.7-1.8,2.1-1.8
		C-30.1,281.5-29.4,282.1-29.4,283.3z"/>
	<path class="st0" d="M-20.7,277.1h-3.2v-20.8h3.2V277.1z"/>
	<path class="st0" d="M10.7,277.1c-1.4,0-2.5-0.2-3.1-0.6c-0.3-0.2-1.5-1.2-3.4-3c-1.2,2.6-3.2,3.9-5.9,3.9c-1.8,0-3.3-0.6-4.4-1.8
		c-1.2-1.2-1.8-2.6-1.8-4.4c0-1.9,1.3-4.1,3.8-6.6l-0.9-1l2.2-2.2l9.7,10.4c0.9,0.9,1.4,1.4,1.6,1.6c0.5,0.3,1.2,0.4,2.2,0.5V277.1z
		 M1.3,271.4c0-0.8-0.2-1.4-0.6-1.8l-2.6-2.6c-1,1-1.6,1.6-1.9,1.9c-0.6,0.8-1,1.6-1,2.5c0,0.8,0.3,1.5,0.8,2
		c0.6,0.5,1.3,0.8,2.1,0.8c0.8,0,1.6-0.3,2.2-0.8C1,272.9,1.3,272.3,1.3,271.4z"/>
	<path class="st0" d="M23.3,277.1h-1.1c-2,0-3.6-0.4-4.5-1.3c-1.1,0.8-2.1,1.3-3.1,1.3H9.2v-3.2c3.4,0,5.3-0.1,5.7-0.2
		c0.7-0.3,1.1-1.2,1.1-2.9c0-0.4,0-1.1,0-1.9s0-1.5,0-1.9h3.3v4.5c0,1.6,1.3,2.4,4,2.5V277.1z M16.2,261.7c0,0.6-0.2,1.2-0.7,1.6
		c-0.4,0.4-1,0.7-1.6,0.7c-1.7,0-2.5-0.8-2.5-2.3c0-1.3,0.8-1.9,2.3-1.9C15.4,259.8,16.2,260.5,16.2,261.7z"/>
	<path class="st0" d="M31.8,277.1h-9.5v-3.3h9.5V277.1z"/>
	<path class="st0" d="M40.3,277.1h-9.5v-3.3h9.5V277.1z"/>
	<path class="st0" d="M48.8,277.1h-9.5v-3.3h9.5V277.1z"/>
	<path class="st0" d="M57.2,277.1h-9.5v-3.3h9.5V277.1z"/>
	<path class="st0" d="M67.5,271.8c0,1.4-0.4,2.6-1.2,3.6c-0.9,1.1-2,1.6-3.4,1.6h-7v-3.2h5.9c0.9,0,1.5-0.2,1.9-0.6s0.5-1,0.5-1.9
		v-4.5h3.3V271.8z M60.8,283.3c0,0.6-0.2,1-0.6,1.4c-0.4,0.4-0.9,0.5-1.5,0.5c-0.6,0-1.1-0.2-1.6-0.5c-0.5-0.4-0.7-0.8-0.7-1.4
		c0-1.2,0.7-1.8,2.1-1.8C60,281.5,60.8,282.1,60.8,283.3z M67,283.3c0,0.6-0.2,1-0.6,1.4s-0.9,0.5-1.5,0.5c-0.6,0-1.1-0.2-1.6-0.5
		c-0.5-0.4-0.7-0.8-0.7-1.4c0-1.2,0.7-1.8,2.1-1.8C66.2,281.5,67,282.1,67,283.3z"/>
	<path class="st0" d="M85.9,272.8c0,1.3-0.5,2.4-1.5,3.1c-0.9,0.7-2,1.1-3.3,1.1H71l-0.5-3.2h10.3c1.2,0,1.8-0.4,1.8-1.3
		c0-0.4-0.2-0.8-0.5-1.2l-7.3-7.8l2.2-2.2l7.3,7.7C85.4,270.2,85.9,271.4,85.9,272.8z"/>
</g>
<g>
	<path class="st0" d="M-85.4,276.5c0,2.5-0.7,4.6-2.2,6.2c-1.5,1.7-3.5,2.5-6,2.5h-5c-2.2,0-4.1-0.8-5.6-2.5
		c-1.5-1.6-2.2-3.6-2.2-5.8v-6.8h3.2v7.2c0,1.4,0.5,2.5,1.6,3.5c1,0.9,2.2,1.3,3.6,1.3h4.2c1.4,0,2.6-0.4,3.6-1.3
		c1-0.9,1.5-2,1.5-3.4v-10.4h3.3V276.5z M-94.6,266.1c0,0.6-0.2,1.1-0.7,1.6c-0.4,0.4-1,0.7-1.6,0.7c-1.6,0-2.4-0.7-2.4-2.2
		c0-1.3,0.8-2,2.3-2C-95.4,264.2-94.6,264.8-94.6,266.1z"/>
	<path class="st0" d="M-76.9,277.1h-3.2v-20.8h3.2V277.1z"/>
	<path class="st0" d="M-56.2,277.1c-1.6,0-2.8-0.5-3.5-1.5c0,2.7-0.7,5-2,6.8c-1.5,2-3.5,3-6.2,3h-4.2l-0.5-3.2h4.5
		c1.4,0,2.6-0.4,3.6-1.3c1-0.9,1.6-2.1,1.6-3.5v-10.4h3.3v4.7c0,1.5,1.2,2.2,3.5,2.3V277.1z"/>
	<path class="st0" d="M-47.6,277.1h-9.5v-3.3h9.5V277.1z"/>
	<path class="st0" d="M-39.1,277.1h-9.5v-3.3h9.5V277.1z"/>
	<path class="st0" d="M-28.8,271.8c0,1.4-0.4,2.6-1.2,3.6c-0.9,1.1-2,1.6-3.4,1.6h-7v-3.2h5.9c0.9,0,1.5-0.2,1.9-0.6
		c0.3-0.4,0.5-1,0.5-1.9v-4.5h3.3V271.8z M-35.6,283.3c0,0.6-0.2,1-0.6,1.4c-0.4,0.4-0.9,0.5-1.5,0.5c-0.6,0-1.1-0.2-1.6-0.5
		c-0.5-0.4-0.7-0.8-0.7-1.4c0-1.2,0.7-1.8,2.1-1.8C-36.4,281.5-35.6,282.1-35.6,283.3z M-29.4,283.3c0,0.6-0.2,1-0.6,1.4
		c-0.4,0.4-0.9,0.5-1.5,0.5c-0.6,0-1.1-0.2-1.6-0.5c-0.5-0.4-0.7-0.8-0.7-1.4c0-1.2,0.7-1.8,2.1-1.8
		C-30.1,281.5-29.4,282.1-29.4,283.3z"/>
	<path class="st0" d="M-20.7,277.1h-3.2v-20.8h3.2V277.1z"/>
	<path class="st0" d="M10.7,277.1c-1.4,0-2.5-0.2-3.1-0.6c-0.3-0.2-1.5-1.2-3.4-3c-1.2,2.6-3.2,3.9-5.9,3.9c-1.8,0-3.3-0.6-4.4-1.8
		c-1.2-1.2-1.8-2.6-1.8-4.4c0-1.9,1.3-4.1,3.8-6.6l-0.9-1l2.2-2.2l9.7,10.4c0.9,0.9,1.4,1.4,1.6,1.6c0.5,0.3,1.2,0.4,2.2,0.5V277.1z
		 M1.3,271.4c0-0.8-0.2-1.4-0.6-1.8l-2.6-2.6c-1,1-1.6,1.6-1.9,1.9c-0.6,0.8-1,1.6-1,2.5c0,0.8,0.3,1.5,0.8,2
		c0.6,0.5,1.3,0.8,2.1,0.8c0.8,0,1.6-0.3,2.2-0.8C1,272.9,1.3,272.3,1.3,271.4z"/>
	<path class="st0" d="M23.3,277.1h-1.1c-2,0-3.6-0.4-4.5-1.3c-1.1,0.8-2.1,1.3-3.1,1.3H9.2v-3.2c3.4,0,5.3-0.1,5.7-0.2
		c0.7-0.3,1.1-1.2,1.1-2.9c0-0.4,0-1.1,0-1.9s0-1.5,0-1.9h3.3v4.5c0,1.6,1.3,2.4,4,2.5V277.1z M16.2,261.7c0,0.6-0.2,1.2-0.7,1.6
		c-0.4,0.4-1,0.7-1.6,0.7c-1.7,0-2.5-0.8-2.5-2.3c0-1.3,0.8-1.9,2.3-1.9C15.4,259.8,16.2,260.5,16.2,261.7z"/>
	<path class="st0" d="M31.8,277.1h-9.5v-3.3h9.5V277.1z"/>
	<path class="st0" d="M40.3,277.1h-9.5v-3.3h9.5V277.1z"/>
	<path class="st0" d="M48.8,277.1h-9.5v-3.3h9.5V277.1z"/>
	<path class="st0" d="M57.2,277.1h-9.5v-3.3h9.5V277.1z"/>
	<path class="st0" d="M67.5,271.8c0,1.4-0.4,2.6-1.2,3.6c-0.9,1.1-2,1.6-3.4,1.6h-7v-3.2h5.9c0.9,0,1.5-0.2,1.9-0.6s0.5-1,0.5-1.9
		v-4.5h3.3V271.8z M60.8,283.3c0,0.6-0.2,1-0.6,1.4c-0.4,0.4-0.9,0.5-1.5,0.5c-0.6,0-1.1-0.2-1.6-0.5c-0.5-0.4-0.7-0.8-0.7-1.4
		c0-1.2,0.7-1.8,2.1-1.8C60,281.5,60.8,282.1,60.8,283.3z M67,283.3c0,0.6-0.2,1-0.6,1.4s-0.9,0.5-1.5,0.5c-0.6,0-1.1-0.2-1.6-0.5
		c-0.5-0.4-0.7-0.8-0.7-1.4c0-1.2,0.7-1.8,2.1-1.8C66.2,281.5,67,282.1,67,283.3z"/>
	<path class="st0" d="M85.9,272.8c0,1.3-0.5,2.4-1.5,3.1c-0.9,0.7-2,1.1-3.3,1.1H71l-0.5-3.2h10.3c1.2,0,1.8-0.4,1.8-1.3
		c0-0.4-0.2-0.8-0.5-1.2l-7.3-7.8l2.2-2.2l7.3,7.7C85.4,270.2,85.9,271.4,85.9,272.8z"/>
</g>
</svg>
