<?xml version="1.0" encoding="utf-8"?>
<!-- Generator: Adobe Illustrator 19.0.0, SVG Export Plug-In . SVG Version: 6.00 Build 0)  -->
<svg version="1.1" id="Layer_1" xmlns="http://www.w3.org/2000/svg" xmlns:xlink="http://www.w3.org/1999/xlink" x="0px" y="0px"
	 viewBox="0 0 125 173" style="enable-background:new 0 0 125 173;" xml:space="preserve">
<style type="text/css">
	.st0{fill:#FFFFFF;stroke:#FFFFFF;stroke-miterlimit:10;}
	.st1{fill:none;stroke:#62276F;stroke-width:4.9997;stroke-miterlimit:22.9256;}
	.st2{fill:#62276F;stroke:#62276F;stroke-miterlimit:10;}
	.st3{fill:#FFFFFF;}
	.st4{fill:#62276F;}
</style>
<rect id="XMLID_10_" x="1" y="0.8" class="st0" width="122.7" height="122.7"/>
<ellipse id="XMLID_9_" class="st1" cx="64.8" cy="61.8" rx="54.9" ry="52.1"/>
<path id="XMLID_8_" class="st2" d="M113.7,40.2c0,0,1.2,15.1-15.8,31.4c0,0-10,11.7-30.1,10.5c0,0-2-0.4,0.6-3c0,0,5.7-8.8-5.4-16.4
	c0,0-11.2-5.2-21.5,5.7l-5.9,9.1c0,0-1.9,4.9-4.6,4.9c0,0,2.6,2.6,4.2,5.6l2.4,6c0,0,2.9,10.3,13.3,12.5c0,0,14.5,4.9,17.5-5.7
	c0,0,3.3-5.2-1-10.9c0,0,0.3-1.8,1.4-1.6c0,0,5.2-0.1,6.9-0.3c0,0-1.6,12.1,6.2,14.2c0,0,10.2,1.8,10.2-5.4c0,0,1-6.5-5.4-4.3
	c0,0-0.4,0.8-1.6,2.2c0,0-2.9,3.4-4.7-1.9c0,0-2.1-4.9,2.3-6.1c0,0,23-9.6,34.9-33l-0.6-6.4l-1.4-3.4L113.7,40.2z"/>
<path id="XMLID_7_" class="st2" d="M16,85.7c0,0-1.2-15.1,15.8-31.4c0,0,10-11.7,30.1-10.4c0,0,2,0.4-0.6,3c0,0-5.7,8.8,5.4,16.4
	c0,0,11.2,5.2,21.5-5.7l5.9-9.1c0,0,1.9-4.9,4.6-4.9c0,0-2.6-2.6-4.2-5.6l-2.4-6c0,0-2.9-10.3-13.3-12.5c0,0-14.5-4.9-17.5,5.7
	c0,0-3.3,5.2,1,10.9c0,0-0.3,1.8-1.4,1.6c0,0-5.2,0.1-6.9,0.3c0,0,1.6-12.1-6.2-14.2c0,0-10.2-1.8-10.2,5.4c0,0-1,6.5,5.4,4.3
	c0,0,0.4-0.8,1.6-2.2c0,0,2.9-3.4,4.7,1.9c0,0,2.1,4.9-2.3,6.1c0,0-23,9.6-34.9,33l0.6,6.4l1.4,3.4L16,85.7z"/>
<path class="st3" d="M1.5,172.6c0.9,0.1,1.9,0.2,3.1,0.3c1.2,0.1,2.6,0.1,4.1,0.1c2.9,0,5.5-0.3,7.8-0.9c2.3-0.6,4.2-1.6,5.7-2.8
	c0.6-0.5,1.3-1.2,1.9-1.9c0.6-0.8,1.1-1.7,1.6-2.7c0.5-1,0.8-2.2,1.1-3.5c0.3-1.3,0.4-2.8,0.4-4.5c0-2.8-0.5-5.1-1.3-7.1
	c-0.9-1.9-2.1-3.5-3.7-4.7c-0.9-0.7-2-1.3-3.1-1.8c-1.2-0.5-2.5-0.8-4-1.1c-1.5-0.2-3.1-0.4-5-0.4c-1.6,0-3.2,0.1-4.6,0.2
	c-1.5,0.1-2.8,0.3-4,0.5V172.6z"/>
<polygon class="st3" points="116.8,141.9 116.8,154.2 105.5,154.2 105.5,141.9 99.1,141.9 99.1,172.7 105.5,172.7 105.5,159.4 
	116.8,159.4 116.8,172.7 123.2,172.7 123.2,141.9 "/>
<polygon class="st3" points="82,167.7 82,159.2 92.8,159.2 92.8,154.3 82,154.3 82,146.9 93.5,146.9 93.5,141.9 75.6,141.9 
	75.6,172.7 94.2,172.7 94.2,167.7 "/>
<path class="st3" d="M63.3,141.9v9.3c0,2.5,0,4.9,0.1,7.1c0.1,2.2,0.2,4.3,0.4,6.2h-0.1c-0.4-1.1-0.9-2.2-1.5-3.3
	c-0.5-1.2-1.1-2.3-1.7-3.4c-0.6-1.1-1.2-2.2-1.8-3.3l-7-12.5h-6.9v30.8h5.8v-9.5c0-1.8,0-3.5,0-5.1c0-1.6-0.1-3.1-0.1-4.5
	c-0.1-1.4-0.1-2.7-0.2-4h0.2c0.5,1.1,1,2.3,1.5,3.5c0.6,1.2,1.2,2.4,1.8,3.5c0.6,1.2,1.2,2.3,1.8,3.3l7.1,12.7h6.4v-30.8H63.3z"/>
<rect x="32" y="141.9" class="st3" width="6.4" height="30.8"/>
<path class="st4" d="M7.9,146.5c0.3-0.1,0.8-0.1,1.3-0.2c0.5,0,1.1-0.1,1.8-0.1c2,0,3.7,0.4,5.1,1.1c1.4,0.8,2.5,1.9,3.3,3.5
	c0.8,1.5,1.2,3.5,1.2,5.8c0,2-0.2,3.8-0.7,5.2c-0.5,1.5-1.2,2.7-2.1,3.6c-0.9,0.9-2,1.6-3.2,2.1c-1.2,0.4-2.6,0.7-4.2,0.6
	c-0.4,0-0.9,0-1.3,0c-0.4,0-0.8,0-1.2-0.1V146.5z"/>
</svg>
